<?xml version="1.0" standalone="no"?>
<!DOCTYPE svg PUBLIC "-//W3C//DTD SVG 1.1//EN" "http://www.w3.org/Graphics/SVG/1.1/DTD/svg11.dtd" >
<svg>
<metadata>
Created by FontForge 20090622 at Sat Feb 25 15:01:29 2017
 By deploy user
Copyright (c) 2007 by George Triantafyllakos. All rights reserved.
</metadata>
<defs>
<font id="BPdotsSquares" horiz-adv-x="600" >
  <font-face 
    font-family="BPdotsSquares"
    font-weight="400"
    font-stretch="normal"
    units-per-em="1000"
    panose-1="2 0 5 6 0 0 0 2 0 4"
    ascent="800"
    descent="-200"
    x-height="475"
    cap-height="675"
    bbox="-1 -200 575 1100"
    underline-thickness="50"
    underline-position="-50"
    unicode-range="U+0020-U+2265"
  />
<missing-glyph 
 />
    <glyph glyph-name=".notdef" 
 />
    <glyph glyph-name=".null" horiz-adv-x="0" 
 />
    <glyph glyph-name="nonmarkingreturn" horiz-adv-x="333" 
 />
    <glyph glyph-name="space" unicode=" " 
 />
    <glyph glyph-name="exclam" unicode="!" 
d="M200 0v75h75v-75h-75zM200 600v75h75v-75h-75zM200 100v75h75v-75h-75zM200 400v75h75v-75h-75zM200 300v75h75v-75h-75zM200 500v75h75v-75h-75z" />
    <glyph glyph-name="quotedbl" unicode="&#x22;" 
d="M200 600v75h75v-75h-75zM401 600v75h75v-75h-75zM200 500v75h75v-75h-75zM100 400v75h75v-75h-75zM300 400v75h75v-75h-75zM401 500v75h75v-75h-75z" />
    <glyph glyph-name="numbersign" unicode="#" 
d="M100 0v75h75v-75h-75zM100 600v75h75v-75h-75zM300 600v75h75v-75h-75zM100 400v75h75v-75h-75zM300 100v75h75v-75h-75zM300 500v75h75v-75h-75zM100 500v75h75v-75h-75zM0 400v75h75v-75h-75zM0 200v75h75v-75h-75zM300 200v75h75v-75h-75zM100 100v75h75v-75h-75z
M200 200v75h75v-75h-75zM300 300v75h75v-75h-75zM100 200v75h75v-75h-75zM400 200v75h75v-75h-75zM100 300v75h75v-75h-75zM300 0v75h75v-75h-75zM300 400v75h75v-75h-75zM400 400v75h75v-75h-75zM200 400v75h75v-75h-75z" />
    <glyph glyph-name="dollar" unicode="$" 
d="M0 0v75h75v-75h-75zM100 0v75h75v-75h-75zM200 -100v75h75v-75h-75zM100 400v75h75v-75h-75zM300 400v75h75v-75h-75zM100 200v75h75v-75h-75zM400 400v75h75v-75h-75zM400 100v75h75v-75h-75zM200 100v75h75v-75h-75zM300 200v75h75v-75h-75zM200 400v75h75v-75h-75z
M300 0v75h75v-75h-75zM200 500v75h75v-75h-75zM200 300v75h75v-75h-75zM0 300v75h75v-75h-75zM200 200v75h75v-75h-75zM200 0v75h75v-75h-75z" />
    <glyph glyph-name="percent" unicode="%" 
d="M0 0v75h75v-75h-75zM200 0v75h75v-75h-75zM0 500v75h75v-75h-75zM200 400v75h75v-75h-75zM300 0v75h75v-75h-75zM100 300v75h75v-75h-75zM0 600v75h75v-75h-75zM300 500v75h75v-75h-75zM200 100v75h75v-75h-75zM100 600v75h75v-75h-75zM0 100v75h75v-75h-75zM100 500v75
h75v-75h-75zM300 600v75h75v-75h-75zM100 200v75h75v-75h-75zM300 100v75h75v-75h-75z" />
    <glyph glyph-name="ampersand" unicode="&#x26;" 
d="M200 0v75h75v-75h-75zM0 500v75h75v-75h-75zM300 300v75h75v-75h-75zM200 600v75h75v-75h-75zM200 300v75h75v-75h-75zM0 200v75h75v-75h-75zM400 300v75h75v-75h-75zM300 100v75h75v-75h-75zM100 600v75h75v-75h-75zM0 400v75h75v-75h-75zM300 200v75h75v-75h-75z
M100 300v75h75v-75h-75zM0 100v75h75v-75h-75zM100 0v75h75v-75h-75z" />
    <glyph glyph-name="quotesingle" unicode="'" 
d="M200 401v75h75v-75h-75zM300 500v75h75v-75h-75zM300 601v75h75v-75h-75z" />
    <glyph glyph-name="parenleft" unicode="(" 
d="M300 0v75h75v-75h-75zM200 300v75h75v-75h-75zM300 600v75h75v-75h-75zM200 200v75h75v-75h-75zM200 400v75h75v-75h-75zM200 500v75h75v-75h-75zM200 100v75h75v-75h-75z" />
    <glyph glyph-name="parenright" unicode=")" 
d="M200 0v75h75v-75h-75zM300 300v75h75v-75h-75zM200 600v75h75v-75h-75zM300 200v75h75v-75h-75zM300 400v75h75v-75h-75zM300 500v75h75v-75h-75zM300 100v75h75v-75h-75z" />
    <glyph glyph-name="asterisk" unicode="*" 
d="M0 400v75h75v-75h-75zM200 600v75h75v-75h-75zM0 600v75h75v-75h-75zM100 500v75h75v-75h-75zM200 400v75h75v-75h-75z" />
    <glyph glyph-name="plus" unicode="+" 
d="M200 0v75h75v-75h-75zM100 200v75h75v-75h-75zM200 400v75h75v-75h-75zM200 100v75h75v-75h-75zM300 200v75h75v-75h-75zM0 200v75h75v-75h-75zM400 200v75h75v-75h-75zM200 200v75h75v-75h-75zM200 300v75h75v-75h-75z" />
    <glyph glyph-name="comma" unicode="," 
d="M200 0v75h75v-75h-75zM200 100v75h75v-75h-75zM100 -100v75h75v-75h-75z" />
    <glyph glyph-name="hyphen" unicode="-" 
d="M100 200v75h75v-75h-75zM200 200v75h75v-75h-75zM300 200v75h75v-75h-75z" />
    <glyph glyph-name="period" unicode="." 
d="M200 0v75h75v-75h-75zM200 100v75h75v-75h-75z" />
    <glyph glyph-name="slash" unicode="/" 
d="M100 0v75h75v-75h-75zM200 300v75h75v-75h-75zM400 600v75h75v-75h-75zM200 200v75h75v-75h-75zM300 400v75h75v-75h-75zM100 100v75h75v-75h-75zM400 500v75h75v-75h-75z" />
    <glyph glyph-name="zero" unicode="0" 
d="M100 0v75h75v-75h-75zM300 400v75h75v-75h-75zM400 100v75h75v-75h-75zM0 200v75h75v-75h-75zM300 0v75h75v-75h-75zM200 200v75h75v-75h-75zM100 400v75h75v-75h-75zM400 300v75h75v-75h-75zM100 100v75h75v-75h-75zM0 300v75h75v-75h-75zM0 100v75h75v-75h-75zM300 300
v75h75v-75h-75zM400 200v75h75v-75h-75zM200 0v75h75v-75h-75zM200 400v75h75v-75h-75z" />
    <glyph glyph-name="one" unicode="1" 
d="M0 0v75h75v-75h-75zM100 400v75h75v-75h-75zM0 400v75h75v-75h-75zM100 0v75h75v-75h-75zM400 0v75h75v-75h-75zM200 100v75h75v-75h-75zM200 200v75h75v-75h-75zM300 0v75h75v-75h-75zM200 300v75h75v-75h-75zM200 0v75h75v-75h-75zM200 400v75h75v-75h-75z" />
    <glyph glyph-name="two" unicode="2" 
d="M0 0v75h75v-75h-75zM300 0v75h75v-75h-75zM300 400v75h75v-75h-75zM400 0v75h75v-75h-75zM200 400v75h75v-75h-75zM100 100v75h75v-75h-75zM200 0v75h75v-75h-75zM300 200v75h75v-75h-75zM0 300v75h75v-75h-75zM100 400v75h75v-75h-75zM200 200v75h75v-75h-75zM400 300
v75h75v-75h-75zM100 0v75h75v-75h-75z" />
    <glyph glyph-name="three" unicode="3" 
d="M400 0v75h75v-75h-75zM200 100v75h75v-75h-75zM100 100v75h75v-75h-75zM200 400v75h75v-75h-75zM400 -100v75h75v-75h-75zM300 400v75h75v-75h-75zM300 -200v75h75v-75h-75zM300 100v75h75v-75h-75zM400 300v75h75v-75h-75zM100 400v75h75v-75h-75zM0 300v75h75v-75h-75z
M400 200v75h75v-75h-75zM100 -200v75h75v-75h-75zM0 -100v75h75v-75h-75zM200 -200v75h75v-75h-75z" />
    <glyph glyph-name="four" unicode="4" 
d="M300 -200v75h75v-75h-75zM300 400v75h75v-75h-75zM300 100v75h75v-75h-75zM0 100v75h75v-75h-75zM300 200v75h75v-75h-75zM200 300v75h75v-75h-75zM300 -100v75h75v-75h-75zM300 0v75h75v-75h-75zM0 0v75h75v-75h-75zM100 200v75h75v-75h-75zM100 0v75h75v-75h-75zM200 0
v75h75v-75h-75zM400 0v75h75v-75h-75zM300 300v75h75v-75h-75z" />
    <glyph glyph-name="five" unicode="5" 
d="M0 -200v75h75v-75h-75zM400 0v75h75v-75h-75zM0 100v75h75v-75h-75zM0 300v75h75v-75h-75zM200 400v75h75v-75h-75zM100 -200v75h75v-75h-75zM100 100v75h75v-75h-75zM300 400v75h75v-75h-75zM300 -200v75h75v-75h-75zM200 100v75h75v-75h-75zM100 400v75h75v-75h-75z
M0 200v75h75v-75h-75zM0 400v75h75v-75h-75zM400 400v75h75v-75h-75zM300 100v75h75v-75h-75zM200 -200v75h75v-75h-75zM400 -100v75h75v-75h-75z" />
    <glyph glyph-name="six" unicode="6" 
d="M100 0v75h75v-75h-75zM200 0v75h75v-75h-75zM300 600v75h75v-75h-75zM0 300v75h75v-75h-75zM0 200v75h75v-75h-75zM100 500v75h75v-75h-75zM400 200v75h75v-75h-75zM300 0v75h75v-75h-75zM400 100v75h75v-75h-75zM0 400v75h75v-75h-75zM0 100v75h75v-75h-75zM300 300v75
h75v-75h-75zM100 300v75h75v-75h-75zM200 600v75h75v-75h-75zM200 300v75h75v-75h-75z" />
    <glyph glyph-name="seven" unicode="7" 
d="M100 -200v75h75v-75h-75zM100 400v75h75v-75h-75zM400 400v75h75v-75h-75zM100 -100v75h75v-75h-75zM200 400v75h75v-75h-75zM400 300v75h75v-75h-75zM0 400v75h75v-75h-75zM300 400v75h75v-75h-75zM300 200v75h75v-75h-75zM100 0v75h75v-75h-75zM200 100v75h75v-75h-75z
" />
    <glyph glyph-name="eight" unicode="8" 
d="M100 0v75h75v-75h-75zM0 200v75h75v-75h-75zM300 600v75h75v-75h-75zM300 300v75h75v-75h-75zM400 500v75h75v-75h-75zM100 300v75h75v-75h-75zM400 200v75h75v-75h-75zM0 500v75h75v-75h-75zM0 100v75h75v-75h-75zM400 400v75h75v-75h-75zM0 400v75h75v-75h-75zM100 600
v75h75v-75h-75zM400 100v75h75v-75h-75zM200 0v75h75v-75h-75zM200 600v75h75v-75h-75zM300 0v75h75v-75h-75zM200 300v75h75v-75h-75z" />
    <glyph glyph-name="nine" unicode="9" 
d="M100 -200v75h75v-75h-75zM200 400v75h75v-75h-75zM300 400v75h75v-75h-75zM400 100v75h75v-75h-75zM400 300v75h75v-75h-75zM100 100v75h75v-75h-75zM300 100v75h75v-75h-75zM300 -100v75h75v-75h-75zM100 400v75h75v-75h-75zM200 100v75h75v-75h-75zM200 -200v75h75v-75
h-75zM0 300v75h75v-75h-75zM0 200v75h75v-75h-75zM400 0v75h75v-75h-75zM400 200v75h75v-75h-75z" />
    <glyph glyph-name="colon" unicode=":" 
d="M200 0v75h75v-75h-75zM200 400v75h75v-75h-75zM200 100v75h75v-75h-75zM200 300v75h75v-75h-75z" />
    <glyph glyph-name="semicolon" unicode=";" 
d="M200 0v75h75v-75h-75zM200 300v75h75v-75h-75zM200 400v75h75v-75h-75zM100 -100v75h75v-75h-75zM200 100v75h75v-75h-75z" />
    <glyph glyph-name="less" unicode="&#x3c;" 
d="M300 0v75h75v-75h-75zM200 300v75h75v-75h-75zM300 400v75h75v-75h-75zM100 200v75h75v-75h-75zM200 100v75h75v-75h-75z" />
    <glyph glyph-name="equal" unicode="=" 
d="M100 300v75h75v-75h-75zM400 100v75h75v-75h-75zM0 100v75h75v-75h-75zM200 100v75h75v-75h-75zM100 100v75h75v-75h-75zM0 300v75h75v-75h-75zM300 100v75h75v-75h-75zM400 300v75h75v-75h-75zM300 300v75h75v-75h-75zM200 300v75h75v-75h-75z" />
    <glyph glyph-name="greater" unicode="&#x3e;" 
d="M200 0v75h75v-75h-75zM300 300v75h75v-75h-75zM200 400v75h75v-75h-75zM400 200v75h75v-75h-75zM300 100v75h75v-75h-75z" />
    <glyph glyph-name="question" unicode="?" 
d="M200 0v75h75v-75h-75zM200 100v75h75v-75h-75zM300 300v75h75v-75h-75zM100 600v75h75v-75h-75zM0 500v75h75v-75h-75zM400 500v75h75v-75h-75zM200 600v75h75v-75h-75zM300 600v75h75v-75h-75zM200 300v75h75v-75h-75zM400 400v75h75v-75h-75z" />
    <glyph glyph-name="at" unicode="@" 
d="M100 0v75h75v-75h-75zM100 200v75h75v-75h-75zM300 400v75h75v-75h-75zM0 100v75h75v-75h-75zM200 400v75h75v-75h-75zM300 300v75h75v-75h-75zM0 500v75h75v-75h-75zM400 200v75h75v-75h-75zM0 200v75h75v-75h-75zM400 400v75h75v-75h-75zM100 600v75h75v-75h-75z
M200 200v75h75v-75h-75zM400 0v75h75v-75h-75zM100 300v75h75v-75h-75zM300 600v75h75v-75h-75zM200 600v75h75v-75h-75zM400 500v75h75v-75h-75zM300 0v75h75v-75h-75zM0 400v75h75v-75h-75zM300 200v75h75v-75h-75zM0 300v75h75v-75h-75zM200 0v75h75v-75h-75zM400 300v75
h75v-75h-75z" />
    <glyph glyph-name="A" unicode="A" 
d="M0 0v75h75v-75h-75zM300 200v75h75v-75h-75zM0 500v75h75v-75h-75zM400 200v75h75v-75h-75zM400 300v75h75v-75h-75zM200 200v75h75v-75h-75zM400 400v75h75v-75h-75zM100 200v75h75v-75h-75zM100 600v75h75v-75h-75zM0 300v75h75v-75h-75zM400 500v75h75v-75h-75z
M200 600v75h75v-75h-75zM0 400v75h75v-75h-75zM400 0v75h75v-75h-75zM400 100v75h75v-75h-75zM0 200v75h75v-75h-75zM300 600v75h75v-75h-75zM0 100v75h75v-75h-75z" />
    <glyph glyph-name="B" unicode="B" 
d="M0 0v75h75v-75h-75zM300 600v75h75v-75h-75zM400 200v75h75v-75h-75zM400 400v75h75v-75h-75zM0 300v75h75v-75h-75zM300 0v75h75v-75h-75zM0 500v75h75v-75h-75zM300 300v75h75v-75h-75zM100 600v75h75v-75h-75zM0 600v75h75v-75h-75zM0 200v75h75v-75h-75zM200 0v75h75
v-75h-75zM400 500v75h75v-75h-75zM100 0v75h75v-75h-75zM200 600v75h75v-75h-75zM100 300v75h75v-75h-75zM0 400v75h75v-75h-75zM200 300v75h75v-75h-75zM0 100v75h75v-75h-75zM400 100v75h75v-75h-75z" />
    <glyph glyph-name="C" unicode="C" 
d="M100 0v75h75v-75h-75zM300 600v75h75v-75h-75zM0 200v75h75v-75h-75zM400 100v75h75v-75h-75zM200 600v75h75v-75h-75zM300 0v75h75v-75h-75zM0 300v75h75v-75h-75zM200 0v75h75v-75h-75zM100 600v75h75v-75h-75zM400 500v75h75v-75h-75zM0 500v75h75v-75h-75zM0 400v75
h75v-75h-75zM0 100v75h75v-75h-75z" />
    <glyph glyph-name="D" unicode="D" 
d="M0 0v75h75v-75h-75zM300 600v75h75v-75h-75zM300 0v75h75v-75h-75zM200 0v75h75v-75h-75zM400 500v75h75v-75h-75zM200 600v75h75v-75h-75zM400 300v75h75v-75h-75zM0 100v75h75v-75h-75zM100 600v75h75v-75h-75zM0 200v75h75v-75h-75zM400 400v75h75v-75h-75zM400 100
v75h75v-75h-75zM100 0v75h75v-75h-75zM0 400v75h75v-75h-75zM0 300v75h75v-75h-75zM400 200v75h75v-75h-75zM0 500v75h75v-75h-75zM0 600v75h75v-75h-75z" />
    <glyph glyph-name="E" unicode="E" 
d="M0 0v75h75v-75h-75zM0 300v75h75v-75h-75zM0 500v75h75v-75h-75zM200 0v75h75v-75h-75zM400 600v75h75v-75h-75zM0 200v75h75v-75h-75zM0 100v75h75v-75h-75zM200 600v75h75v-75h-75zM100 600v75h75v-75h-75zM300 600v75h75v-75h-75zM0 400v75h75v-75h-75zM300 300v75h75
v-75h-75zM100 0v75h75v-75h-75zM400 0v75h75v-75h-75zM100 300v75h75v-75h-75zM200 300v75h75v-75h-75zM300 0v75h75v-75h-75zM0 600v75h75v-75h-75z" />
    <glyph glyph-name="F" unicode="F" 
d="M0 0v75h75v-75h-75zM0 300v75h75v-75h-75zM400 600v75h75v-75h-75zM0 400v75h75v-75h-75zM0 100v75h75v-75h-75zM200 600v75h75v-75h-75zM0 500v75h75v-75h-75zM300 600v75h75v-75h-75zM100 600v75h75v-75h-75zM0 600v75h75v-75h-75zM200 300v75h75v-75h-75zM100 300v75
h75v-75h-75zM300 300v75h75v-75h-75zM0 200v75h75v-75h-75z" />
    <glyph glyph-name="G" unicode="G" 
d="M100 0v75h75v-75h-75zM300 600v75h75v-75h-75zM0 500v75h75v-75h-75zM200 600v75h75v-75h-75zM400 200v75h75v-75h-75zM0 200v75h75v-75h-75zM0 300v75h75v-75h-75zM0 100v75h75v-75h-75zM200 0v75h75v-75h-75zM100 600v75h75v-75h-75zM300 200v75h75v-75h-75zM300 0v75
h75v-75h-75zM400 0v75h75v-75h-75zM0 400v75h75v-75h-75zM400 100v75h75v-75h-75zM400 500v75h75v-75h-75z" />
    <glyph glyph-name="H" unicode="H" 
d="M0 0v75h75v-75h-75zM400 200v75h75v-75h-75zM300 300v75h75v-75h-75zM400 400v75h75v-75h-75zM200 300v75h75v-75h-75zM400 300v75h75v-75h-75zM0 600v75h75v-75h-75zM100 300v75h75v-75h-75zM400 100v75h75v-75h-75zM400 500v75h75v-75h-75zM0 500v75h75v-75h-75zM400 0
v75h75v-75h-75zM400 600v75h75v-75h-75zM0 200v75h75v-75h-75zM0 100v75h75v-75h-75zM0 300v75h75v-75h-75zM0 400v75h75v-75h-75z" />
    <glyph glyph-name="I" unicode="I" 
d="M100 0v75h75v-75h-75zM200 0v75h75v-75h-75zM400 600v75h75v-75h-75zM200 300v75h75v-75h-75zM200 200v75h75v-75h-75zM200 400v75h75v-75h-75zM0 0v75h75v-75h-75zM0 600v75h75v-75h-75zM300 600v75h75v-75h-75zM400 0v75h75v-75h-75zM200 100v75h75v-75h-75zM300 0v75
h75v-75h-75zM200 500v75h75v-75h-75zM200 600v75h75v-75h-75zM100 600v75h75v-75h-75z" />
    <glyph glyph-name="J" unicode="J" 
d="M100 0v75h75v-75h-75zM300 300v75h75v-75h-75zM200 0v75h75v-75h-75zM100 600v75h75v-75h-75zM300 600v75h75v-75h-75zM300 400v75h75v-75h-75zM300 500v75h75v-75h-75zM200 600v75h75v-75h-75zM0 600v75h75v-75h-75zM0 100v75h75v-75h-75zM300 200v75h75v-75h-75z
M300 100v75h75v-75h-75z" />
    <glyph glyph-name="K" unicode="K" 
d="M0 0v75h75v-75h-75zM100 300v75h75v-75h-75zM0 100v75h75v-75h-75zM0 200v75h75v-75h-75zM400 500v75h75v-75h-75zM300 400v75h75v-75h-75zM0 600v75h75v-75h-75zM300 200v75h75v-75h-75zM0 300v75h75v-75h-75zM400 600v75h75v-75h-75zM200 300v75h75v-75h-75zM400 100
v75h75v-75h-75zM0 500v75h75v-75h-75zM0 400v75h75v-75h-75zM400 0v75h75v-75h-75z" />
    <glyph glyph-name="L" unicode="L" 
d="M0 0v75h75v-75h-75zM0 600v75h75v-75h-75zM0 300v75h75v-75h-75zM100 0v75h75v-75h-75zM300 0v75h75v-75h-75zM0 100v75h75v-75h-75zM0 200v75h75v-75h-75zM0 500v75h75v-75h-75zM400 0v75h75v-75h-75zM200 0v75h75v-75h-75zM0 400v75h75v-75h-75z" />
    <glyph glyph-name="M" unicode="M" 
d="M0 0v75h75v-75h-75zM0 300v75h75v-75h-75zM400 600v75h75v-75h-75zM400 400v75h75v-75h-75zM400 500v75h75v-75h-75zM0 500v75h75v-75h-75zM300 500v75h75v-75h-75zM100 400v75h75v-75h-75zM400 0v75h75v-75h-75zM400 300v75h75v-75h-75zM0 100v75h75v-75h-75zM400 200
v75h75v-75h-75zM0 400v75h75v-75h-75zM200 200v75h75v-75h-75zM300 400v75h75v-75h-75zM0 200v75h75v-75h-75zM0 600v75h75v-75h-75zM200 300v75h75v-75h-75zM100 500v75h75v-75h-75zM400 100v75h75v-75h-75z" />
    <glyph glyph-name="N" unicode="N" 
d="M0 0v75h75v-75h-75zM400 100v75h75v-75h-75zM0 600v75h75v-75h-75zM300 200v75h75v-75h-75zM0 500v75h75v-75h-75zM400 200v75h75v-75h-75zM400 300v75h75v-75h-75zM400 500v75h75v-75h-75zM0 300v75h75v-75h-75zM0 200v75h75v-75h-75zM200 400v75h75v-75h-75zM0 400v75
h75v-75h-75zM0 100v75h75v-75h-75zM400 0v75h75v-75h-75zM200 300v75h75v-75h-75zM400 600v75h75v-75h-75zM100 500v75h75v-75h-75zM400 400v75h75v-75h-75z" />
    <glyph glyph-name="O" unicode="O" 
d="M100 0v75h75v-75h-75zM200 0v75h75v-75h-75zM300 600v75h75v-75h-75zM400 300v75h75v-75h-75zM400 100v75h75v-75h-75zM400 400v75h75v-75h-75zM300 0v75h75v-75h-75zM100 600v75h75v-75h-75zM400 500v75h75v-75h-75zM0 500v75h75v-75h-75zM0 400v75h75v-75h-75zM0 100
v75h75v-75h-75zM0 200v75h75v-75h-75zM400 200v75h75v-75h-75zM0 300v75h75v-75h-75zM200 600v75h75v-75h-75z" />
    <glyph glyph-name="P" unicode="P" 
d="M0 0v75h75v-75h-75zM300 600v75h75v-75h-75zM400 400v75h75v-75h-75zM0 400v75h75v-75h-75zM100 600v75h75v-75h-75zM0 500v75h75v-75h-75zM0 200v75h75v-75h-75zM200 200v75h75v-75h-75zM0 600v75h75v-75h-75zM400 500v75h75v-75h-75zM100 200v75h75v-75h-75zM0 300v75
h75v-75h-75zM400 300v75h75v-75h-75zM200 600v75h75v-75h-75zM0 100v75h75v-75h-75zM300 200v75h75v-75h-75z" />
    <glyph glyph-name="Q" unicode="Q" 
d="M100 0v75h75v-75h-75zM400 400v75h75v-75h-75zM300 -200v75h75v-75h-75zM300 600v75h75v-75h-75zM200 -100v75h75v-75h-75zM200 600v75h75v-75h-75zM400 200v75h75v-75h-75zM100 600v75h75v-75h-75zM0 200v75h75v-75h-75zM200 0v75h75v-75h-75zM0 300v75h75v-75h-75z
M0 500v75h75v-75h-75zM0 400v75h75v-75h-75zM400 500v75h75v-75h-75zM400 300v75h75v-75h-75zM300 0v75h75v-75h-75zM200 100v75h75v-75h-75zM400 100v75h75v-75h-75zM0 100v75h75v-75h-75z" />
    <glyph glyph-name="R" unicode="R" 
d="M0 0v75h75v-75h-75zM300 600v75h75v-75h-75zM400 0v75h75v-75h-75zM0 100v75h75v-75h-75zM400 500v75h75v-75h-75zM200 600v75h75v-75h-75zM100 300v75h75v-75h-75zM100 600v75h75v-75h-75zM0 200v75h75v-75h-75zM0 300v75h75v-75h-75zM400 400v75h75v-75h-75zM300 200
v75h75v-75h-75zM400 100v75h75v-75h-75zM0 400v75h75v-75h-75zM200 300v75h75v-75h-75zM300 300v75h75v-75h-75zM0 500v75h75v-75h-75zM0 600v75h75v-75h-75z" />
    <glyph glyph-name="S" unicode="S" 
d="M0 0v75h75v-75h-75zM100 0v75h75v-75h-75zM400 600v75h75v-75h-75zM100 300v75h75v-75h-75zM400 200v75h75v-75h-75zM200 300v75h75v-75h-75zM400 100v75h75v-75h-75zM200 0v75h75v-75h-75zM200 600v75h75v-75h-75zM0 400v75h75v-75h-75zM300 600v75h75v-75h-75zM0 500
v75h75v-75h-75zM300 300v75h75v-75h-75zM300 0v75h75v-75h-75zM100 600v75h75v-75h-75z" />
    <glyph glyph-name="T" unicode="T" 
d="M200 0v75h75v-75h-75zM200 300v75h75v-75h-75zM400 600v75h75v-75h-75zM100 600v75h75v-75h-75zM0 600v75h75v-75h-75zM200 500v75h75v-75h-75zM300 600v75h75v-75h-75zM200 200v75h75v-75h-75zM200 400v75h75v-75h-75zM200 600v75h75v-75h-75zM200 100v75h75v-75h-75z
" />
    <glyph glyph-name="U" unicode="U" 
d="M100 0v75h75v-75h-75zM0 100v75h75v-75h-75zM400 600v75h75v-75h-75zM0 300v75h75v-75h-75zM200 0v75h75v-75h-75zM400 400v75h75v-75h-75zM300 0v75h75v-75h-75zM400 100v75h75v-75h-75zM400 500v75h75v-75h-75zM0 600v75h75v-75h-75zM0 200v75h75v-75h-75zM400 200v75
h75v-75h-75zM400 300v75h75v-75h-75zM0 500v75h75v-75h-75zM0 400v75h75v-75h-75z" />
    <glyph glyph-name="V" unicode="V" 
d="M200 0v75h75v-75h-75zM0 300v75h75v-75h-75zM400 600v75h75v-75h-75zM400 500v75h75v-75h-75zM100 200v75h75v-75h-75zM100 100v75h75v-75h-75zM300 100v75h75v-75h-75zM0 400v75h75v-75h-75zM0 500v75h75v-75h-75zM400 400v75h75v-75h-75zM400 300v75h75v-75h-75z
M300 200v75h75v-75h-75zM0 600v75h75v-75h-75z" />
    <glyph glyph-name="W" unicode="W" 
d="M100 0v75h75v-75h-75zM300 100v75h75v-75h-75zM400 600v75h75v-75h-75zM0 400v75h75v-75h-75zM100 100v75h75v-75h-75zM400 300v75h75v-75h-75zM0 300v75h75v-75h-75zM400 500v75h75v-75h-75zM0 200v75h75v-75h-75zM400 200v75h75v-75h-75zM200 400v75h75v-75h-75zM0 500
v75h75v-75h-75zM300 0v75h75v-75h-75zM400 400v75h75v-75h-75zM200 300v75h75v-75h-75zM200 200v75h75v-75h-75zM0 600v75h75v-75h-75zM200 500v75h75v-75h-75z" />
    <glyph glyph-name="X" unicode="X" 
d="M0 0v75h75v-75h-75zM0 500v75h75v-75h-75zM400 100v75h75v-75h-75zM100 200v75h75v-75h-75zM400 500v75h75v-75h-75zM0 600v75h75v-75h-75zM100 400v75h75v-75h-75zM300 200v75h75v-75h-75zM400 600v75h75v-75h-75zM0 100v75h75v-75h-75zM300 400v75h75v-75h-75zM400 0
v75h75v-75h-75zM200 300v75h75v-75h-75z" />
    <glyph glyph-name="Y" unicode="Y" 
d="M200 0v75h75v-75h-75zM300 300v75h75v-75h-75zM200 100v75h75v-75h-75zM400 500v75h75v-75h-75zM400 400v75h75v-75h-75zM0 500v75h75v-75h-75zM400 600v75h75v-75h-75zM100 300v75h75v-75h-75zM0 400v75h75v-75h-75zM0 600v75h75v-75h-75zM200 200v75h75v-75h-75z" />
    <glyph glyph-name="Z" unicode="Z" 
d="M0 0v75h75v-75h-75zM300 600v75h75v-75h-75zM200 300v75h75v-75h-75zM100 200v75h75v-75h-75zM0 100v75h75v-75h-75zM100 600v75h75v-75h-75zM400 0v75h75v-75h-75zM200 0v75h75v-75h-75zM400 600v75h75v-75h-75zM300 400v75h75v-75h-75zM100 0v75h75v-75h-75zM0 600v75
h75v-75h-75zM200 600v75h75v-75h-75zM300 0v75h75v-75h-75zM400 500v75h75v-75h-75z" />
    <glyph glyph-name="bracketleft" unicode="[" 
d="M200 0v75h75v-75h-75zM200 200v75h75v-75h-75zM300 600v75h75v-75h-75zM200 600v75h75v-75h-75zM200 400v75h75v-75h-75zM300 0v75h75v-75h-75zM200 500v75h75v-75h-75zM200 300v75h75v-75h-75zM200 100v75h75v-75h-75z" />
    <glyph glyph-name="backslash" unicode="\" 
d="M400 0v75h75v-75h-75zM100 600v75h75v-75h-75zM300 300v75h75v-75h-75zM300 200v75h75v-75h-75zM200 400v75h75v-75h-75zM100 500v75h75v-75h-75zM400 100v75h75v-75h-75z" />
    <glyph glyph-name="bracketright" unicode="]" 
d="M200 0v75h75v-75h-75zM300 0v75h75v-75h-75zM300 600v75h75v-75h-75zM200 600v75h75v-75h-75zM300 200v75h75v-75h-75zM300 100v75h75v-75h-75zM300 300v75h75v-75h-75zM300 500v75h75v-75h-75zM300 400v75h75v-75h-75z" />
    <glyph glyph-name="asciicircum" unicode="^" 
d="M100 600v75h75v-75h-75zM300 600v75h75v-75h-75zM200 700v75h75v-75h-75z" />
    <glyph glyph-name="underscore" unicode="_" 
d="M0 0v75h75v-75h-75zM300 0v75h75v-75h-75zM400 0v75h75v-75h-75zM200 0v75h75v-75h-75zM100 0v75h75v-75h-75z" />
    <glyph glyph-name="grave" unicode="`" 
d="M200 600v75h75v-75h-75zM0 700v75h75v-75h-75zM100 600v75h75v-75h-75z" />
    <glyph glyph-name="a" unicode="a" 
d="M100 0v75h75v-75h-75zM400 0v75h75v-75h-75zM300 400v75h75v-75h-75zM200 200v75h75v-75h-75zM300 0v75h75v-75h-75zM100 400v75h75v-75h-75zM300 200v75h75v-75h-75zM200 400v75h75v-75h-75zM200 0v75h75v-75h-75zM400 200v75h75v-75h-75zM400 100v75h75v-75h-75zM0 100
v75h75v-75h-75zM100 200v75h75v-75h-75zM400 300v75h75v-75h-75z" />
    <glyph glyph-name="b" unicode="b" 
d="M0 0v75h75v-75h-75zM0 400v75h75v-75h-75zM400 300v75h75v-75h-75zM200 0v75h75v-75h-75zM400 100v75h75v-75h-75zM200 400v75h75v-75h-75zM0 300v75h75v-75h-75zM0 500v75h75v-75h-75zM0 600v75h75v-75h-75zM300 400v75h75v-75h-75zM100 300v75h75v-75h-75zM300 0v75h75
v-75h-75zM400 200v75h75v-75h-75zM0 200v75h75v-75h-75zM100 0v75h75v-75h-75zM0 100v75h75v-75h-75z" />
    <glyph glyph-name="c" unicode="c" 
d="M100 0v75h75v-75h-75zM400 300v75h75v-75h-75zM300 400v75h75v-75h-75zM200 0v75h75v-75h-75zM200 400v75h75v-75h-75zM0 200v75h75v-75h-75zM0 300v75h75v-75h-75zM0 100v75h75v-75h-75zM100 400v75h75v-75h-75zM300 0v75h75v-75h-75zM400 100v75h75v-75h-75z" />
    <glyph glyph-name="d" unicode="d" 
d="M100 0v75h75v-75h-75zM400 600v75h75v-75h-75zM400 500v75h75v-75h-75zM400 0v75h75v-75h-75zM400 100v75h75v-75h-75zM0 300v75h75v-75h-75zM100 400v75h75v-75h-75zM400 400v75h75v-75h-75zM400 300v75h75v-75h-75zM200 400v75h75v-75h-75zM400 200v75h75v-75h-75z
M0 100v75h75v-75h-75zM200 0v75h75v-75h-75zM0 200v75h75v-75h-75zM300 400v75h75v-75h-75zM300 100v75h75v-75h-75z" />
    <glyph glyph-name="e" unicode="e" 
d="M100 0v75h75v-75h-75zM200 400v75h75v-75h-75zM300 400v75h75v-75h-75zM100 200v75h75v-75h-75zM200 0v75h75v-75h-75zM200 200v75h75v-75h-75zM100 400v75h75v-75h-75zM400 300v75h75v-75h-75zM0 100v75h75v-75h-75zM0 200v75h75v-75h-75zM400 0v75h75v-75h-75zM400 200
v75h75v-75h-75zM300 200v75h75v-75h-75zM0 300v75h75v-75h-75zM300 0v75h75v-75h-75z" />
    <glyph glyph-name="f" unicode="f" 
d="M200 0v75h75v-75h-75zM400 400v75h75v-75h-75zM200 100v75h75v-75h-75zM200 400v75h75v-75h-75zM400 600v75h75v-75h-75zM300 0v75h75v-75h-75zM300 400v75h75v-75h-75zM200 200v75h75v-75h-75zM0 0v75h75v-75h-75zM100 0v75h75v-75h-75zM200 300v75h75v-75h-75zM300 600
v75h75v-75h-75zM400 0v75h75v-75h-75zM100 400v75h75v-75h-75zM200 500v75h75v-75h-75z" />
    <glyph glyph-name="g" unicode="g" 
d="M100 0v75h75v-75h-75zM200 0v75h75v-75h-75zM300 -200v75h75v-75h-75zM100 400v75h75v-75h-75zM400 100v75h75v-75h-75zM400 200v75h75v-75h-75zM400 300v75h75v-75h-75zM300 100v75h75v-75h-75zM400 -100v75h75v-75h-75zM0 200v75h75v-75h-75zM200 400v75h75v-75h-75z
M400 400v75h75v-75h-75zM100 -200v75h75v-75h-75zM300 400v75h75v-75h-75zM0 300v75h75v-75h-75zM200 -200v75h75v-75h-75zM0 100v75h75v-75h-75zM400 0v75h75v-75h-75z" />
    <glyph glyph-name="h" unicode="h" 
d="M0 0v75h75v-75h-75zM0 600v75h75v-75h-75zM200 400v75h75v-75h-75zM400 300v75h75v-75h-75zM400 200v75h75v-75h-75zM0 100v75h75v-75h-75zM0 400v75h75v-75h-75zM0 500v75h75v-75h-75zM0 300v75h75v-75h-75zM300 400v75h75v-75h-75zM400 100v75h75v-75h-75zM0 200v75h75
v-75h-75zM100 400v75h75v-75h-75zM400 0v75h75v-75h-75z" />
    <glyph glyph-name="i" unicode="i" 
d="M0 0v75h75v-75h-75zM300 0v75h75v-75h-75zM100 0v75h75v-75h-75zM200 300v75h75v-75h-75zM200 100v75h75v-75h-75zM400 0v75h75v-75h-75zM0 400v75h75v-75h-75zM200 400v75h75v-75h-75zM200 200v75h75v-75h-75zM100 400v75h75v-75h-75zM200 0v75h75v-75h-75zM200 600v75
h75v-75h-75z" />
    <glyph glyph-name="j" unicode="j" 
d="M0 -100v75h75v-75h-75zM400 400v75h75v-75h-75zM300 -200v75h75v-75h-75zM300 400v75h75v-75h-75zM400 300v75h75v-75h-75zM400 -100v75h75v-75h-75zM400 600v75h75v-75h-75zM100 -200v75h75v-75h-75zM200 400v75h75v-75h-75zM100 400v75h75v-75h-75zM400 0v75h75v-75
h-75zM400 100v75h75v-75h-75zM200 -200v75h75v-75h-75zM400 200v75h75v-75h-75z" />
    <glyph glyph-name="k" unicode="k" 
d="M0 0v75h75v-75h-75zM0 600v75h75v-75h-75zM0 500v75h75v-75h-75zM0 200v75h75v-75h-75zM400 0v75h75v-75h-75zM300 400v75h75v-75h-75zM0 100v75h75v-75h-75zM100 200v75h75v-75h-75zM0 300v75h75v-75h-75zM300 300v75h75v-75h-75zM200 200v75h75v-75h-75zM300 100v75h75
v-75h-75zM0 400v75h75v-75h-75z" />
    <glyph glyph-name="l" unicode="l" 
d="M0 0v75h75v-75h-75zM200 100v75h75v-75h-75zM200 500v75h75v-75h-75zM100 600v75h75v-75h-75zM300 0v75h75v-75h-75zM200 0v75h75v-75h-75zM200 200v75h75v-75h-75zM100 0v75h75v-75h-75zM200 300v75h75v-75h-75zM400 0v75h75v-75h-75zM200 600v75h75v-75h-75zM0 600v75
h75v-75h-75zM200 400v75h75v-75h-75z" />
    <glyph glyph-name="m" unicode="m" 
d="M0 0v75h75v-75h-75zM400 400v75h75v-75h-75zM400 100v75h75v-75h-75zM0 300v75h75v-75h-75zM200 0v75h75v-75h-75zM200 200v75h75v-75h-75zM300 300v75h75v-75h-75zM0 400v75h75v-75h-75zM0 100v75h75v-75h-75zM200 300v75h75v-75h-75zM100 300v75h75v-75h-75zM200 400
v75h75v-75h-75zM400 300v75h75v-75h-75zM200 100v75h75v-75h-75zM400 0v75h75v-75h-75zM0 200v75h75v-75h-75zM400 200v75h75v-75h-75z" />
    <glyph glyph-name="n" unicode="n" 
d="M0 0v75h75v-75h-75zM400 300v75h75v-75h-75zM400 0v75h75v-75h-75zM100 300v75h75v-75h-75zM0 400v75h75v-75h-75zM0 200v75h75v-75h-75zM200 400v75h75v-75h-75zM0 100v75h75v-75h-75zM300 400v75h75v-75h-75zM0 300v75h75v-75h-75zM400 100v75h75v-75h-75zM400 200v75
h75v-75h-75z" />
    <glyph glyph-name="o" unicode="o" 
d="M100 0v75h75v-75h-75zM400 300v75h75v-75h-75zM100 400v75h75v-75h-75zM400 200v75h75v-75h-75zM0 200v75h75v-75h-75zM200 400v75h75v-75h-75zM0 300v75h75v-75h-75zM300 400v75h75v-75h-75zM300 0v75h75v-75h-75zM0 100v75h75v-75h-75zM400 100v75h75v-75h-75zM200 0
v75h75v-75h-75z" />
    <glyph glyph-name="p" unicode="p" 
d="M0 0v75h75v-75h-75zM0 -200v75h75v-75h-75zM0 -100v75h75v-75h-75zM400 300v75h75v-75h-75zM300 400v75h75v-75h-75zM200 400v75h75v-75h-75zM0 300v75h75v-75h-75zM0 100v75h75v-75h-75zM100 300v75h75v-75h-75zM0 200v75h75v-75h-75zM400 100v75h75v-75h-75zM0 400v75
h75v-75h-75zM400 200v75h75v-75h-75zM200 0v75h75v-75h-75zM300 0v75h75v-75h-75zM100 0v75h75v-75h-75z" />
    <glyph glyph-name="q" unicode="q" 
d="M100 0v75h75v-75h-75zM400 100v75h75v-75h-75zM400 -100v75h75v-75h-75zM400 0v75h75v-75h-75zM400 200v75h75v-75h-75zM0 300v75h75v-75h-75zM100 400v75h75v-75h-75zM300 100v75h75v-75h-75zM400 -200v75h75v-75h-75zM200 400v75h75v-75h-75zM400 300v75h75v-75h-75z
M0 200v75h75v-75h-75zM0 100v75h75v-75h-75zM200 0v75h75v-75h-75zM300 400v75h75v-75h-75zM400 400v75h75v-75h-75z" />
    <glyph glyph-name="r" unicode="r" 
d="M100 0v75h75v-75h-75zM300 0v75h75v-75h-75zM100 100v75h75v-75h-75zM400 400v75h75v-75h-75zM200 300v75h75v-75h-75zM200 0v75h75v-75h-75zM100 400v75h75v-75h-75zM0 0v75h75v-75h-75zM300 400v75h75v-75h-75zM100 300v75h75v-75h-75zM100 200v75h75v-75h-75zM0 400
v75h75v-75h-75z" />
    <glyph glyph-name="s" unicode="s" 
d="M0 0v75h75v-75h-75zM100 200v75h75v-75h-75zM400 400v75h75v-75h-75zM400 100v75h75v-75h-75zM300 400v75h75v-75h-75zM200 0v75h75v-75h-75zM200 200v75h75v-75h-75zM100 0v75h75v-75h-75zM200 400v75h75v-75h-75zM100 400v75h75v-75h-75zM0 300v75h75v-75h-75zM300 200
v75h75v-75h-75zM300 0v75h75v-75h-75z" />
    <glyph glyph-name="t" unicode="t" 
d="M300 0v75h75v-75h-75zM200 400v75h75v-75h-75zM200 500v75h75v-75h-75zM400 400v75h75v-75h-75zM300 400v75h75v-75h-75zM200 200v75h75v-75h-75zM100 400v75h75v-75h-75zM400 0v75h75v-75h-75zM200 300v75h75v-75h-75zM200 100v75h75v-75h-75zM0 400v75h75v-75h-75z" />
    <glyph glyph-name="u" unicode="u" 
d="M100 0v75h75v-75h-75zM0 100v75h75v-75h-75zM400 400v75h75v-75h-75zM400 200v75h75v-75h-75zM400 100v75h75v-75h-75zM300 100v75h75v-75h-75zM400 300v75h75v-75h-75zM0 300v75h75v-75h-75zM0 200v75h75v-75h-75zM200 0v75h75v-75h-75zM400 0v75h75v-75h-75zM0 400v75
h75v-75h-75z" />
    <glyph glyph-name="v" unicode="v" 
d="M200 0v75h75v-75h-75zM400 400v75h75v-75h-75zM0 400v75h75v-75h-75zM100 200v75h75v-75h-75zM100 100v75h75v-75h-75zM300 100v75h75v-75h-75zM400 300v75h75v-75h-75zM300 200v75h75v-75h-75zM0 300v75h75v-75h-75z" />
    <glyph glyph-name="w" unicode="w" 
d="M100 0v75h75v-75h-75zM400 400v75h75v-75h-75zM300 0v75h75v-75h-75zM0 300v75h75v-75h-75zM400 300v75h75v-75h-75zM0 200v75h75v-75h-75zM200 200v75h75v-75h-75zM100 100v75h75v-75h-75zM400 200v75h75v-75h-75zM0 400v75h75v-75h-75zM200 300v75h75v-75h-75zM300 100
v75h75v-75h-75z" />
    <glyph glyph-name="x" unicode="x" 
d="M0 0v75h75v-75h-75zM400 400v75h75v-75h-75zM400 300v75h75v-75h-75zM0 300v75h75v-75h-75zM400 100v75h75v-75h-75zM200 200v75h75v-75h-75zM0 400v75h75v-75h-75zM400 0v75h75v-75h-75zM100 200v75h75v-75h-75zM0 100v75h75v-75h-75zM300 200v75h75v-75h-75z" />
    <glyph glyph-name="y" unicode="y" 
d="M200 0v75h75v-75h-75zM0 -200v75h75v-75h-75zM400 400v75h75v-75h-75zM400 300v75h75v-75h-75zM100 100v75h75v-75h-75zM200 -100v75h75v-75h-75zM0 400v75h75v-75h-75zM0 300v75h75v-75h-75zM300 100v75h75v-75h-75zM100 200v75h75v-75h-75zM300 200v75h75v-75h-75z
M100 -200v75h75v-75h-75z" />
    <glyph glyph-name="z" unicode="z" 
d="M0 0v75h75v-75h-75zM100 100v75h75v-75h-75zM400 400v75h75v-75h-75zM400 0v75h75v-75h-75zM300 400v75h75v-75h-75zM200 0v75h75v-75h-75zM200 200v75h75v-75h-75zM100 0v75h75v-75h-75zM200 400v75h75v-75h-75zM100 400v75h75v-75h-75zM0 400v75h75v-75h-75zM300 300
v75h75v-75h-75zM300 0v75h75v-75h-75z" />
    <glyph glyph-name="braceleft" unicode="{" 
d="M300 0v75h75v-75h-75zM100 300v75h75v-75h-75zM300 600v75h75v-75h-75zM200 200v75h75v-75h-75zM200 400v75h75v-75h-75zM200 500v75h75v-75h-75zM200 100v75h75v-75h-75z" />
    <glyph glyph-name="bar" unicode="|" 
d="M200 0v75h75v-75h-75zM200 300v75h75v-75h-75zM200 600v75h75v-75h-75zM200 200v75h75v-75h-75zM200 400v75h75v-75h-75zM200 100v75h75v-75h-75zM200 500v75h75v-75h-75z" />
    <glyph glyph-name="braceright" unicode="}" 
d="M200 0v75h75v-75h-75zM400 300v75h75v-75h-75zM200 600v75h75v-75h-75zM300 200v75h75v-75h-75zM300 400v75h75v-75h-75zM300 500v75h75v-75h-75zM300 100v75h75v-75h-75z" />
    <glyph glyph-name="asciitilde" unicode="~" 
d="M300 200v75h75v-75h-75zM400 300v75h75v-75h-75zM100 400v75h75v-75h-75zM200 300v75h75v-75h-75zM0 300v75h75v-75h-75z" />
    <glyph glyph-name="exclamdown" unicode="&#xa1;" 
d="M200 600v75h75v-75h-75zM200 0v75h75v-75h-75zM200 500v75h75v-75h-75zM200 200v75h75v-75h-75zM200 300v75h75v-75h-75zM200 100v75h75v-75h-75z" />
    <glyph glyph-name="cent" unicode="&#xa2;" 
d="M100 0v75h75v-75h-75zM300 0v75h75v-75h-75zM200 500v75h75v-75h-75zM0 200v75h75v-75h-75zM100 400v75h75v-75h-75zM300 400v75h75v-75h-75zM200 0v75h75v-75h-75zM200 300v75h75v-75h-75zM400 100v75h75v-75h-75zM400 300v75h75v-75h-75zM200 -100v75h75v-75h-75z
M0 100v75h75v-75h-75zM0 300v75h75v-75h-75zM200 200v75h75v-75h-75zM200 400v75h75v-75h-75zM200 100v75h75v-75h-75z" />
    <glyph glyph-name="sterling" unicode="&#xa3;" 
d="M200 0v75h75v-75h-75zM100 0v75h75v-75h-75zM400 500v75h75v-75h-75zM100 200v75h75v-75h-75zM0 300v75h75v-75h-75zM200 600v75h75v-75h-75zM400 0v75h75v-75h-75zM0 0v75h75v-75h-75zM100 100v75h75v-75h-75zM300 600v75h75v-75h-75zM100 500v75h75v-75h-75zM100 400
v75h75v-75h-75zM200 300v75h75v-75h-75zM300 300v75h75v-75h-75zM100 300v75h75v-75h-75zM300 0v75h75v-75h-75z" />
    <glyph glyph-name="currency" unicode="&#xa4;" 
d="M0 0v75h75v-75h-75zM200 300v75h75v-75h-75zM400 400v75h75v-75h-75zM300 200v75h75v-75h-75zM400 0v75h75v-75h-75zM300 100v75h75v-75h-75zM100 300v75h75v-75h-75zM100 200v75h75v-75h-75zM100 100v75h75v-75h-75zM0 400v75h75v-75h-75zM300 300v75h75v-75h-75z
M200 100v75h75v-75h-75z" />
    <glyph glyph-name="yen" unicode="&#xa5;" 
d="M200 0v75h75v-75h-75zM300 200v75h75v-75h-75zM400 200v75h75v-75h-75zM400 600v75h75v-75h-75zM400 500v75h75v-75h-75zM100 400v75h75v-75h-75zM200 100v75h75v-75h-75zM0 200v75h75v-75h-75zM200 200v75h75v-75h-75zM100 200v75h75v-75h-75zM300 400v75h75v-75h-75z
M0 500v75h75v-75h-75zM200 300v75h75v-75h-75zM0 600v75h75v-75h-75z" />
    <glyph glyph-name="brokenbar" unicode="&#xa6;" 
d="M200 0v75h75v-75h-75zM200 600v75h75v-75h-75zM200 100v75h75v-75h-75zM200 400v75h75v-75h-75zM200 200v75h75v-75h-75zM200 500v75h75v-75h-75z" />
    <glyph glyph-name="section" unicode="&#xa7;" 
d="M200 0v75h75v-75h-75zM100 0v75h75v-75h-75zM400 600v75h75v-75h-75zM100 500v75h75v-75h-75zM400 300v75h75v-75h-75zM400 100v75h75v-75h-75zM200 600v75h75v-75h-75zM300 200v75h75v-75h-75zM200 200v75h75v-75h-75zM100 300v75h75v-75h-75zM300 0v75h75v-75h-75z
M300 400v75h75v-75h-75zM300 600v75h75v-75h-75zM200 400v75h75v-75h-75z" />
    <glyph glyph-name="dieresis" unicode="&#xa8;" 
d="M0 600v75h75v-75h-75zM400 700v75h75v-75h-75zM0 700v75h75v-75h-75zM400 600v75h75v-75h-75z" />
    <glyph glyph-name="copyright" unicode="&#xa9;" 
d="M100 0v75h75v-75h-75zM0 100v75h75v-75h-75zM300 400v75h75v-75h-75zM0 200v75h75v-75h-75zM400 300v75h75v-75h-75zM100 200v75h75v-75h-75zM200 100v75h75v-75h-75zM300 0v75h75v-75h-75zM100 400v75h75v-75h-75zM0 300v75h75v-75h-75zM200 0v75h75v-75h-75zM200 300
v75h75v-75h-75zM400 200v75h75v-75h-75zM400 100v75h75v-75h-75zM200 400v75h75v-75h-75z" />
    <glyph glyph-name="ordfeminine" unicode="&#xaa;" 
d="M100 300v75h75v-75h-75zM100 600v75h75v-75h-75zM0 400v75h75v-75h-75zM200 500v75h75v-75h-75zM200 400v75h75v-75h-75zM100 400v75h75v-75h-75zM200 300v75h75v-75h-75z" />
    <glyph glyph-name="guillemotleft" unicode="&#xab;" 
d="M400 0v75h75v-75h-75zM200 400v75h75v-75h-75zM300 100v75h75v-75h-75zM300 300v75h75v-75h-75zM100 100v75h75v-75h-75zM200 0v75h75v-75h-75zM400 400v75h75v-75h-75zM0 200v75h75v-75h-75zM200 200v75h75v-75h-75zM100 300v75h75v-75h-75z" />
    <glyph glyph-name="logicalnot" unicode="&#xac;" 
d="M400 100v75h75v-75h-75zM200 200v75h75v-75h-75zM400 0v75h75v-75h-75zM100 200v75h75v-75h-75zM300 200v75h75v-75h-75zM400 200v75h75v-75h-75zM0 200v75h75v-75h-75z" />
    <glyph glyph-name="uni00AD" unicode="&#xad;" 
d="M100 200v75h75v-75h-75zM200 200v75h75v-75h-75zM300 200v75h75v-75h-75z" />
    <glyph glyph-name="registered" unicode="&#xae;" 
d="M100 200v75h75v-75h-75zM0 300v75h75v-75h-75zM200 500v75h75v-75h-75zM400 400v75h75v-75h-75zM200 200v75h75v-75h-75zM300 500v75h75v-75h-75zM300 200v75h75v-75h-75zM300 300v75h75v-75h-75zM0 500v75h75v-75h-75zM400 500v75h75v-75h-75zM100 600v75h75v-75h-75z
M300 600v75h75v-75h-75zM200 400v75h75v-75h-75zM0 400v75h75v-75h-75zM400 300v75h75v-75h-75zM200 600v75h75v-75h-75z" />
    <glyph glyph-name="macron" unicode="&#xaf;" 
d="M100 600v75h75v-75h-75zM300 600v75h75v-75h-75zM200 600v75h75v-75h-75z" />
    <glyph glyph-name="degree" unicode="&#xb0;" 
d="M100 400v75h75v-75h-75zM0 500v75h75v-75h-75zM100 600v75h75v-75h-75zM200 500v75h75v-75h-75z" />
    <glyph glyph-name="plusminus" unicode="&#xb1;" 
d="M0 0v75h75v-75h-75zM200 300v75h75v-75h-75zM200 400v75h75v-75h-75zM0 300v75h75v-75h-75zM100 300v75h75v-75h-75zM400 0v75h75v-75h-75zM100 0v75h75v-75h-75zM200 200v75h75v-75h-75zM200 0v75h75v-75h-75zM400 300v75h75v-75h-75zM300 300v75h75v-75h-75zM300 0v75
h75v-75h-75z" />
    <glyph glyph-name="twosuperior" unicode="&#xb2;" 
d="M0 300v75h75v-75h-75zM100 300v75h75v-75h-75zM0 600v75h75v-75h-75zM0 400v75h75v-75h-75zM100 500v75h75v-75h-75z" />
    <glyph glyph-name="threesuperior" unicode="&#xb3;" 
d="M0 300v75h75v-75h-75zM100 400v75h75v-75h-75zM100 300v75h75v-75h-75zM100 500v75h75v-75h-75zM0 600v75h75v-75h-75z" />
    <glyph glyph-name="acute" unicode="&#xb4;" 
d="M200 600v75h75v-75h-75zM100 600v75h75v-75h-75zM300 700v75h75v-75h-75z" />
    <glyph glyph-name="mu" unicode="&#xb5;" 
d="M0 0v75h75v-75h-75zM0 400v75h75v-75h-75zM0 -100v75h75v-75h-75zM0 200v75h75v-75h-75zM0 300v75h75v-75h-75zM400 300v75h75v-75h-75zM300 100v75h75v-75h-75zM400 400v75h75v-75h-75zM0 100v75h75v-75h-75zM400 0v75h75v-75h-75zM100 0v75h75v-75h-75zM400 100v75h75
v-75h-75zM400 200v75h75v-75h-75zM0 -200v75h75v-75h-75zM200 0v75h75v-75h-75z" />
    <glyph glyph-name="paragraph" unicode="&#xb6;" 
d="M400 0v75h75v-75h-75zM100 500v75h75v-75h-75zM200 0v75h75v-75h-75zM200 300v75h75v-75h-75zM100 300v75h75v-75h-75zM400 600v75h75v-75h-75zM200 400v75h75v-75h-75zM100 600v75h75v-75h-75zM200 600v75h75v-75h-75zM400 400v75h75v-75h-75zM100 400v75h75v-75h-75z
M400 200v75h75v-75h-75zM200 500v75h75v-75h-75zM200 100v75h75v-75h-75zM400 500v75h75v-75h-75zM400 300v75h75v-75h-75zM0 500v75h75v-75h-75zM400 100v75h75v-75h-75zM200 200v75h75v-75h-75zM0 400v75h75v-75h-75z" />
    <glyph glyph-name="periodcentered" unicode="&#xb7;" 
d="M100 200v75h75v-75h-75zM100 300v75h75v-75h-75z" />
    <glyph glyph-name="cedilla" unicode="&#xb8;" 
d="M200 -100v75h75v-75h-75zM100 -200v75h75v-75h-75z" />
    <glyph glyph-name="onesuperior" unicode="&#xb9;" 
d="M0 300v75h75v-75h-75zM100 400v75h75v-75h-75zM0 600v75h75v-75h-75zM100 300v75h75v-75h-75zM100 500v75h75v-75h-75zM200 300v75h75v-75h-75zM100 600v75h75v-75h-75z" />
    <glyph glyph-name="ordmasculine" unicode="&#xba;" 
d="M100 400v75h75v-75h-75zM200 500v75h75v-75h-75zM100 600v75h75v-75h-75zM0 500v75h75v-75h-75z" />
    <glyph glyph-name="guillemotright" unicode="&#xbb;" 
d="M0 0v75h75v-75h-75zM300 300v75h75v-75h-75zM200 400v75h75v-75h-75zM200 200v75h75v-75h-75zM100 300v75h75v-75h-75zM200 0v75h75v-75h-75zM300 100v75h75v-75h-75zM400 200v75h75v-75h-75zM0 400v75h75v-75h-75zM100 100v75h75v-75h-75z" />
    <glyph glyph-name="onequarter" unicode="&#xbc;" 
d="M100 0v75h75v-75h-75zM100 500v75h75v-75h-75zM100 600v75h75v-75h-75zM500 200v75h75v-75h-75zM200 300v75h75v-75h-75zM400 500v75h75v-75h-75zM100 400v75h75v-75h-75zM400 200v75h75v-75h-75zM500 0v75h75v-75h-75zM0 600v75h75v-75h-75zM300 400v75h75v-75h-75z
M500 100v75h75v-75h-75zM100 100v75h75v-75h-75zM500 300v75h75v-75h-75zM400 600v75h75v-75h-75zM200 200v75h75v-75h-75z" />
    <glyph glyph-name="onehalf" unicode="&#xbd;" 
d="M100 0v75h75v-75h-75zM100 600v75h75v-75h-75zM400 600v75h75v-75h-75zM400 100v75h75v-75h-75zM400 0v75h75v-75h-75zM300 400v75h75v-75h-75zM400 300v75h75v-75h-75zM0 600v75h75v-75h-75zM100 400v75h75v-75h-75zM500 200v75h75v-75h-75zM100 100v75h75v-75h-75z
M400 500v75h75v-75h-75zM200 200v75h75v-75h-75zM500 0v75h75v-75h-75zM200 300v75h75v-75h-75zM100 500v75h75v-75h-75z" />
    <glyph glyph-name="threequarters" unicode="&#xbe;" 
d="M100 0v75h75v-75h-75zM500 300v75h75v-75h-75zM500 200v75h75v-75h-75zM0 600v75h75v-75h-75zM100 500v75h75v-75h-75zM500 100v75h75v-75h-75zM100 400v75h75v-75h-75zM400 500v75h75v-75h-75zM400 600v75h75v-75h-75zM200 200v75h75v-75h-75zM0 300v75h75v-75h-75z
M200 300v75h75v-75h-75zM400 200v75h75v-75h-75zM100 100v75h75v-75h-75zM300 400v75h75v-75h-75zM100 300v75h75v-75h-75zM500 0v75h75v-75h-75z" />
    <glyph glyph-name="questiondown" unicode="&#xbf;" 
d="M275 675v-75h-75v75h75zM275 575v-75h-75v75h75zM175 375v-75h-75v75h75zM375 75v-75h-75v75h75zM475 175v-75h-75v75h75zM75 175v-75h-75v75h75zM275 75v-75h-75v75h75zM175 75v-75h-75v75h75zM275 375v-75h-75v75h75zM75 275v-75h-75v75h75z" />
    <glyph glyph-name="Agrave" unicode="&#xc0;" 
d="M0 0v75h75v-75h-75zM300 200v75h75v-75h-75zM0 500v75h75v-75h-75zM400 200v75h75v-75h-75zM400 300v75h75v-75h-75zM200 200v75h75v-75h-75zM400 400v75h75v-75h-75zM100 200v75h75v-75h-75zM100 600v75h75v-75h-75zM0 300v75h75v-75h-75zM400 500v75h75v-75h-75z
M200 600v75h75v-75h-75zM0 400v75h75v-75h-75zM400 0v75h75v-75h-75zM400 100v75h75v-75h-75zM0 200v75h75v-75h-75zM300 600v75h75v-75h-75zM0 100v75h75v-75h-75zM300 825v75h75v-75h-75zM100 925v75h75v-75h-75zM200 825v75h75v-75h-75z" />
    <glyph glyph-name="Aacute" unicode="&#xc1;" 
d="M0 0v75h75v-75h-75zM300 200v75h75v-75h-75zM0 500v75h75v-75h-75zM400 200v75h75v-75h-75zM400 300v75h75v-75h-75zM200 200v75h75v-75h-75zM400 400v75h75v-75h-75zM100 200v75h75v-75h-75zM100 600v75h75v-75h-75zM0 300v75h75v-75h-75zM400 500v75h75v-75h-75z
M200 600v75h75v-75h-75zM0 400v75h75v-75h-75zM400 0v75h75v-75h-75zM400 100v75h75v-75h-75zM0 200v75h75v-75h-75zM300 600v75h75v-75h-75zM0 100v75h75v-75h-75zM200 825v75h75v-75h-75zM100 825v75h75v-75h-75zM300 925v75h75v-75h-75z" />
    <glyph glyph-name="Acircumflex" unicode="&#xc2;" 
d="M0 0v75h75v-75h-75zM300 200v75h75v-75h-75zM0 500v75h75v-75h-75zM400 200v75h75v-75h-75zM400 300v75h75v-75h-75zM200 200v75h75v-75h-75zM400 400v75h75v-75h-75zM100 200v75h75v-75h-75zM100 600v75h75v-75h-75zM0 300v75h75v-75h-75zM400 500v75h75v-75h-75z
M200 600v75h75v-75h-75zM0 400v75h75v-75h-75zM400 0v75h75v-75h-75zM400 100v75h75v-75h-75zM0 200v75h75v-75h-75zM300 600v75h75v-75h-75zM0 100v75h75v-75h-75zM100 825v75h75v-75h-75zM300 825v75h75v-75h-75zM200 925v75h75v-75h-75z" />
    <glyph glyph-name="Atilde" unicode="&#xc3;" 
d="M0 0v75h75v-75h-75zM300 200v75h75v-75h-75zM0 500v75h75v-75h-75zM400 200v75h75v-75h-75zM400 300v75h75v-75h-75zM200 200v75h75v-75h-75zM400 400v75h75v-75h-75zM100 200v75h75v-75h-75zM100 600v75h75v-75h-75zM0 300v75h75v-75h-75zM400 500v75h75v-75h-75z
M200 600v75h75v-75h-75zM0 400v75h75v-75h-75zM400 0v75h75v-75h-75zM400 100v75h75v-75h-75zM0 200v75h75v-75h-75zM300 600v75h75v-75h-75zM0 100v75h75v-75h-75zM100 925v75h75v-75h-75zM300 825v75h75v-75h-75zM400 925v75h75v-75h-75zM200 825v75h75v-75h-75zM0 825v75
h75v-75h-75z" />
    <glyph glyph-name="Adieresis" unicode="&#xc4;" 
d="M0 0v75h75v-75h-75zM300 200v75h75v-75h-75zM0 500v75h75v-75h-75zM400 200v75h75v-75h-75zM400 300v75h75v-75h-75zM200 200v75h75v-75h-75zM400 400v75h75v-75h-75zM100 200v75h75v-75h-75zM100 600v75h75v-75h-75zM0 300v75h75v-75h-75zM400 500v75h75v-75h-75z
M200 600v75h75v-75h-75zM0 400v75h75v-75h-75zM400 0v75h75v-75h-75zM400 100v75h75v-75h-75zM0 200v75h75v-75h-75zM300 600v75h75v-75h-75zM0 100v75h75v-75h-75zM0 825v75h75v-75h-75zM400 925v75h75v-75h-75zM0 925v75h75v-75h-75zM400 825v75h75v-75h-75z" />
    <glyph glyph-name="Aring" unicode="&#xc5;" 
d="M0 0v75h75v-75h-75zM300 200v75h75v-75h-75zM0 500v75h75v-75h-75zM400 200v75h75v-75h-75zM400 300v75h75v-75h-75zM200 200v75h75v-75h-75zM400 400v75h75v-75h-75zM100 200v75h75v-75h-75zM100 600v75h75v-75h-75zM0 300v75h75v-75h-75zM400 500v75h75v-75h-75z
M200 600v75h75v-75h-75zM0 400v75h75v-75h-75zM400 0v75h75v-75h-75zM400 100v75h75v-75h-75zM0 200v75h75v-75h-75zM300 600v75h75v-75h-75zM0 100v75h75v-75h-75zM200 825v75h75v-75h-75zM300 925v75h75v-75h-75zM200 1025v75h75v-75h-75zM100 925v75h75v-75h-75z" />
    <glyph glyph-name="AE" unicode="&#xc6;" 
d="M0 0v75h75v-75h-75zM200 0v75h75v-75h-75zM300 600v75h75v-75h-75zM0 100v75h75v-75h-75zM200 200v75h75v-75h-75zM0 200v75h75v-75h-75zM100 600v75h75v-75h-75zM200 100v75h75v-75h-75zM0 500v75h75v-75h-75zM400 0v75h75v-75h-75zM0 300v75h75v-75h-75zM200 400v75h75
v-75h-75zM400 600v75h75v-75h-75zM200 500v75h75v-75h-75zM0 400v75h75v-75h-75zM200 300v75h75v-75h-75zM300 300v75h75v-75h-75zM100 200v75h75v-75h-75zM200 600v75h75v-75h-75zM300 0v75h75v-75h-75z" />
    <glyph glyph-name="Ccedilla" unicode="&#xc7;" 
d="M100 0v75h75v-75h-75zM300 600v75h75v-75h-75zM0 200v75h75v-75h-75zM400 100v75h75v-75h-75zM200 600v75h75v-75h-75zM300 0v75h75v-75h-75zM0 300v75h75v-75h-75zM200 0v75h75v-75h-75zM100 600v75h75v-75h-75zM400 500v75h75v-75h-75zM0 500v75h75v-75h-75zM0 400v75
h75v-75h-75zM0 100v75h75v-75h-75zM200 -100v75h75v-75h-75zM100 -200v75h75v-75h-75z" />
    <glyph glyph-name="Egrave" unicode="&#xc8;" 
d="M0 0v75h75v-75h-75zM0 300v75h75v-75h-75zM0 500v75h75v-75h-75zM200 0v75h75v-75h-75zM400 600v75h75v-75h-75zM0 200v75h75v-75h-75zM0 100v75h75v-75h-75zM200 600v75h75v-75h-75zM100 600v75h75v-75h-75zM300 600v75h75v-75h-75zM0 400v75h75v-75h-75zM300 300v75h75
v-75h-75zM100 0v75h75v-75h-75zM400 0v75h75v-75h-75zM100 300v75h75v-75h-75zM200 300v75h75v-75h-75zM300 0v75h75v-75h-75zM0 600v75h75v-75h-75zM300 825v75h75v-75h-75zM100 925v75h75v-75h-75zM200 825v75h75v-75h-75z" />
    <glyph glyph-name="Eacute" unicode="&#xc9;" 
d="M0 0v75h75v-75h-75zM0 300v75h75v-75h-75zM0 500v75h75v-75h-75zM200 0v75h75v-75h-75zM400 600v75h75v-75h-75zM0 200v75h75v-75h-75zM0 100v75h75v-75h-75zM200 600v75h75v-75h-75zM100 600v75h75v-75h-75zM300 600v75h75v-75h-75zM0 400v75h75v-75h-75zM300 300v75h75
v-75h-75zM100 0v75h75v-75h-75zM400 0v75h75v-75h-75zM100 300v75h75v-75h-75zM200 300v75h75v-75h-75zM300 0v75h75v-75h-75zM0 600v75h75v-75h-75zM200 825v75h75v-75h-75zM100 825v75h75v-75h-75zM300 925v75h75v-75h-75z" />
    <glyph glyph-name="Ecircumflex" unicode="&#xca;" 
d="M0 0v75h75v-75h-75zM0 300v75h75v-75h-75zM0 500v75h75v-75h-75zM200 0v75h75v-75h-75zM400 600v75h75v-75h-75zM0 200v75h75v-75h-75zM0 100v75h75v-75h-75zM200 600v75h75v-75h-75zM100 600v75h75v-75h-75zM300 600v75h75v-75h-75zM0 400v75h75v-75h-75zM300 300v75h75
v-75h-75zM100 0v75h75v-75h-75zM400 0v75h75v-75h-75zM100 300v75h75v-75h-75zM200 300v75h75v-75h-75zM300 0v75h75v-75h-75zM0 600v75h75v-75h-75zM100 825v75h75v-75h-75zM300 825v75h75v-75h-75zM200 925v75h75v-75h-75z" />
    <glyph glyph-name="Edieresis" unicode="&#xcb;" 
d="M0 0v75h75v-75h-75zM0 300v75h75v-75h-75zM0 500v75h75v-75h-75zM200 0v75h75v-75h-75zM400 600v75h75v-75h-75zM0 200v75h75v-75h-75zM0 100v75h75v-75h-75zM200 600v75h75v-75h-75zM100 600v75h75v-75h-75zM300 600v75h75v-75h-75zM0 400v75h75v-75h-75zM300 300v75h75
v-75h-75zM100 0v75h75v-75h-75zM400 0v75h75v-75h-75zM100 300v75h75v-75h-75zM200 300v75h75v-75h-75zM300 0v75h75v-75h-75zM0 600v75h75v-75h-75zM0 825v75h75v-75h-75zM400 925v75h75v-75h-75zM0 925v75h75v-75h-75zM400 825v75h75v-75h-75z" />
    <glyph glyph-name="Igrave" unicode="&#xcc;" 
d="M100 0v75h75v-75h-75zM200 0v75h75v-75h-75zM400 600v75h75v-75h-75zM200 300v75h75v-75h-75zM200 200v75h75v-75h-75zM200 400v75h75v-75h-75zM0 0v75h75v-75h-75zM0 600v75h75v-75h-75zM300 600v75h75v-75h-75zM400 0v75h75v-75h-75zM200 100v75h75v-75h-75zM300 0v75
h75v-75h-75zM200 500v75h75v-75h-75zM200 600v75h75v-75h-75zM100 600v75h75v-75h-75zM300 825v75h75v-75h-75zM100 925v75h75v-75h-75zM200 825v75h75v-75h-75z" />
    <glyph glyph-name="Iacute" unicode="&#xcd;" 
d="M100 0v75h75v-75h-75zM200 0v75h75v-75h-75zM400 600v75h75v-75h-75zM200 300v75h75v-75h-75zM200 200v75h75v-75h-75zM200 400v75h75v-75h-75zM0 0v75h75v-75h-75zM0 600v75h75v-75h-75zM300 600v75h75v-75h-75zM400 0v75h75v-75h-75zM200 100v75h75v-75h-75zM300 0v75
h75v-75h-75zM200 500v75h75v-75h-75zM200 600v75h75v-75h-75zM100 600v75h75v-75h-75zM200 825v75h75v-75h-75zM100 825v75h75v-75h-75zM300 925v75h75v-75h-75z" />
    <glyph glyph-name="Icircumflex" unicode="&#xce;" 
d="M100 0v75h75v-75h-75zM200 0v75h75v-75h-75zM400 600v75h75v-75h-75zM200 300v75h75v-75h-75zM200 200v75h75v-75h-75zM200 400v75h75v-75h-75zM0 0v75h75v-75h-75zM0 600v75h75v-75h-75zM300 600v75h75v-75h-75zM400 0v75h75v-75h-75zM200 100v75h75v-75h-75zM300 0v75
h75v-75h-75zM200 500v75h75v-75h-75zM200 600v75h75v-75h-75zM100 600v75h75v-75h-75zM100 825v75h75v-75h-75zM300 825v75h75v-75h-75zM200 925v75h75v-75h-75z" />
    <glyph glyph-name="Idieresis" unicode="&#xcf;" 
d="M100 0v75h75v-75h-75zM200 0v75h75v-75h-75zM400 600v75h75v-75h-75zM200 300v75h75v-75h-75zM200 200v75h75v-75h-75zM200 400v75h75v-75h-75zM0 0v75h75v-75h-75zM0 600v75h75v-75h-75zM300 600v75h75v-75h-75zM400 0v75h75v-75h-75zM200 100v75h75v-75h-75zM300 0v75
h75v-75h-75zM200 500v75h75v-75h-75zM200 600v75h75v-75h-75zM100 600v75h75v-75h-75zM0 825v75h75v-75h-75zM400 925v75h75v-75h-75zM0 925v75h75v-75h-75zM400 825v75h75v-75h-75z" />
    <glyph glyph-name="Eth" unicode="&#xd0;" 
d="M100 0v75h75v-75h-75zM0 300v75h75v-75h-75zM100 500v75h75v-75h-75zM400 100v75h75v-75h-75zM100 400v75h75v-75h-75zM300 600v75h75v-75h-75zM100 200v75h75v-75h-75zM400 200v75h75v-75h-75zM400 500v75h75v-75h-75zM300 0v75h75v-75h-75zM100 100v75h75v-75h-75z
M200 600v75h75v-75h-75zM400 400v75h75v-75h-75zM100 300v75h75v-75h-75zM400 300v75h75v-75h-75zM200 0v75h75v-75h-75zM100 600v75h75v-75h-75zM200 300v75h75v-75h-75z" />
    <glyph glyph-name="Ntilde" unicode="&#xd1;" 
d="M0 0v75h75v-75h-75zM400 100v75h75v-75h-75zM0 600v75h75v-75h-75zM300 200v75h75v-75h-75zM0 500v75h75v-75h-75zM400 200v75h75v-75h-75zM400 300v75h75v-75h-75zM400 500v75h75v-75h-75zM0 300v75h75v-75h-75zM0 200v75h75v-75h-75zM200 400v75h75v-75h-75zM0 400v75
h75v-75h-75zM0 100v75h75v-75h-75zM400 0v75h75v-75h-75zM200 300v75h75v-75h-75zM400 600v75h75v-75h-75zM100 500v75h75v-75h-75zM400 400v75h75v-75h-75zM100 925v75h75v-75h-75zM300 825v75h75v-75h-75zM400 925v75h75v-75h-75zM200 825v75h75v-75h-75zM0 825v75h75v-75
h-75z" />
    <glyph glyph-name="Ograve" unicode="&#xd2;" 
d="M300 825v75h75v-75h-75zM100 925v75h75v-75h-75zM200 825v75h75v-75h-75zM100 0v75h75v-75h-75zM200 0v75h75v-75h-75zM300 600v75h75v-75h-75zM400 300v75h75v-75h-75zM400 100v75h75v-75h-75zM400 400v75h75v-75h-75zM300 0v75h75v-75h-75zM100 600v75h75v-75h-75z
M400 500v75h75v-75h-75zM0 500v75h75v-75h-75zM0 400v75h75v-75h-75zM0 100v75h75v-75h-75zM0 200v75h75v-75h-75zM400 200v75h75v-75h-75zM0 300v75h75v-75h-75zM200 600v75h75v-75h-75z" />
    <glyph glyph-name="Oacute" unicode="&#xd3;" 
d="M200 825v75h75v-75h-75zM100 825v75h75v-75h-75zM300 925v75h75v-75h-75zM100 0v75h75v-75h-75zM200 0v75h75v-75h-75zM300 600v75h75v-75h-75zM400 300v75h75v-75h-75zM400 100v75h75v-75h-75zM400 400v75h75v-75h-75zM300 0v75h75v-75h-75zM100 600v75h75v-75h-75z
M400 500v75h75v-75h-75zM0 500v75h75v-75h-75zM0 400v75h75v-75h-75zM0 100v75h75v-75h-75zM0 200v75h75v-75h-75zM400 200v75h75v-75h-75zM0 300v75h75v-75h-75zM200 600v75h75v-75h-75z" />
    <glyph glyph-name="Ocircumflex" unicode="&#xd4;" 
d="M100 825v75h75v-75h-75zM300 825v75h75v-75h-75zM200 925v75h75v-75h-75zM100 0v75h75v-75h-75zM200 0v75h75v-75h-75zM300 600v75h75v-75h-75zM400 300v75h75v-75h-75zM400 100v75h75v-75h-75zM400 400v75h75v-75h-75zM300 0v75h75v-75h-75zM100 600v75h75v-75h-75z
M400 500v75h75v-75h-75zM0 500v75h75v-75h-75zM0 400v75h75v-75h-75zM0 100v75h75v-75h-75zM0 200v75h75v-75h-75zM400 200v75h75v-75h-75zM0 300v75h75v-75h-75zM200 600v75h75v-75h-75z" />
    <glyph glyph-name="Otilde" unicode="&#xd5;" 
d="M100 925v75h75v-75h-75zM300 825v75h75v-75h-75zM400 925v75h75v-75h-75zM200 825v75h75v-75h-75zM0 825v75h75v-75h-75zM100 0v75h75v-75h-75zM200 0v75h75v-75h-75zM300 600v75h75v-75h-75zM400 300v75h75v-75h-75zM400 100v75h75v-75h-75zM400 400v75h75v-75h-75z
M300 0v75h75v-75h-75zM100 600v75h75v-75h-75zM400 500v75h75v-75h-75zM0 500v75h75v-75h-75zM0 400v75h75v-75h-75zM0 100v75h75v-75h-75zM0 200v75h75v-75h-75zM400 200v75h75v-75h-75zM0 300v75h75v-75h-75zM200 600v75h75v-75h-75z" />
    <glyph glyph-name="Odieresis" unicode="&#xd6;" 
d="M0 825v75h75v-75h-75zM400 925v75h75v-75h-75zM0 925v75h75v-75h-75zM400 825v75h75v-75h-75zM100 0v75h75v-75h-75zM200 0v75h75v-75h-75zM300 600v75h75v-75h-75zM400 300v75h75v-75h-75zM400 100v75h75v-75h-75zM400 400v75h75v-75h-75zM300 0v75h75v-75h-75zM100 600
v75h75v-75h-75zM400 500v75h75v-75h-75zM0 500v75h75v-75h-75zM0 400v75h75v-75h-75zM0 100v75h75v-75h-75zM0 200v75h75v-75h-75zM400 200v75h75v-75h-75zM0 300v75h75v-75h-75zM200 600v75h75v-75h-75z" />
    <glyph glyph-name="multiply" unicode="&#xd7;" 
d="M100 100v75h75v-75h-75zM200 200v75h75v-75h-75zM300 300v75h75v-75h-75zM0 0v75h75v-75h-75zM0 400v75h75v-75h-75zM400 0v75h75v-75h-75zM300 100v75h75v-75h-75zM400 400v75h75v-75h-75zM100 300v75h75v-75h-75z" />
    <glyph glyph-name="Oslash" unicode="&#xd8;" 
d="M300 500v75h75v-75h-75zM0 300v75h75v-75h-75zM100 0v75h75v-75h-75zM0 500v75h75v-75h-75zM200 0v75h75v-75h-75zM300 0v75h75v-75h-75zM400 300v75h75v-75h-75zM201 300v75h75v-75h-75zM0 100v75h75v-75h-75zM0 400v75h75v-75h-75zM400 100v75h75v-75h-75zM201 400v75
h75v-75h-75zM0 200v75h75v-75h-75zM100 600v75h75v-75h-75zM200 600v75h75v-75h-75zM400 500v75h75v-75h-75zM400 200v75h75v-75h-75zM201 200v75h75v-75h-75zM400 400v75h75v-75h-75zM300 600v75h75v-75h-75zM102 100v75h75v-75h-75z" />
    <glyph glyph-name="Ugrave" unicode="&#xd9;" 
d="M100 0v75h75v-75h-75zM0 100v75h75v-75h-75zM400 600v75h75v-75h-75zM0 300v75h75v-75h-75zM200 0v75h75v-75h-75zM400 400v75h75v-75h-75zM300 0v75h75v-75h-75zM400 100v75h75v-75h-75zM400 500v75h75v-75h-75zM0 600v75h75v-75h-75zM0 200v75h75v-75h-75zM400 200v75
h75v-75h-75zM400 300v75h75v-75h-75zM0 500v75h75v-75h-75zM0 400v75h75v-75h-75zM300 825v75h75v-75h-75zM100 925v75h75v-75h-75zM200 825v75h75v-75h-75z" />
    <glyph glyph-name="Uacute" unicode="&#xda;" 
d="M100 0v75h75v-75h-75zM0 100v75h75v-75h-75zM400 600v75h75v-75h-75zM0 300v75h75v-75h-75zM200 0v75h75v-75h-75zM400 400v75h75v-75h-75zM300 0v75h75v-75h-75zM400 100v75h75v-75h-75zM400 500v75h75v-75h-75zM0 600v75h75v-75h-75zM0 200v75h75v-75h-75zM400 200v75
h75v-75h-75zM400 300v75h75v-75h-75zM0 500v75h75v-75h-75zM0 400v75h75v-75h-75zM200 825v75h75v-75h-75zM100 825v75h75v-75h-75zM300 925v75h75v-75h-75z" />
    <glyph glyph-name="Ucircumflex" unicode="&#xdb;" 
d="M100 0v75h75v-75h-75zM0 100v75h75v-75h-75zM400 600v75h75v-75h-75zM0 300v75h75v-75h-75zM200 0v75h75v-75h-75zM400 400v75h75v-75h-75zM300 0v75h75v-75h-75zM400 100v75h75v-75h-75zM400 500v75h75v-75h-75zM0 600v75h75v-75h-75zM0 200v75h75v-75h-75zM400 200v75
h75v-75h-75zM400 300v75h75v-75h-75zM0 500v75h75v-75h-75zM0 400v75h75v-75h-75zM100 825v75h75v-75h-75zM300 825v75h75v-75h-75zM200 925v75h75v-75h-75z" />
    <glyph glyph-name="Udieresis" unicode="&#xdc;" 
d="M100 0v75h75v-75h-75zM0 100v75h75v-75h-75zM400 600v75h75v-75h-75zM0 300v75h75v-75h-75zM200 0v75h75v-75h-75zM400 400v75h75v-75h-75zM300 0v75h75v-75h-75zM400 100v75h75v-75h-75zM400 500v75h75v-75h-75zM0 600v75h75v-75h-75zM0 200v75h75v-75h-75zM400 200v75
h75v-75h-75zM400 300v75h75v-75h-75zM0 500v75h75v-75h-75zM0 400v75h75v-75h-75zM0 825v75h75v-75h-75zM400 925v75h75v-75h-75zM0 925v75h75v-75h-75zM400 825v75h75v-75h-75z" />
    <glyph glyph-name="Yacute" unicode="&#xdd;" 
d="M200 0v75h75v-75h-75zM300 300v75h75v-75h-75zM200 100v75h75v-75h-75zM400 500v75h75v-75h-75zM400 400v75h75v-75h-75zM0 500v75h75v-75h-75zM400 600v75h75v-75h-75zM100 300v75h75v-75h-75zM0 400v75h75v-75h-75zM0 600v75h75v-75h-75zM200 200v75h75v-75h-75z
M200 825v75h75v-75h-75zM100 825v75h75v-75h-75zM300 925v75h75v-75h-75z" />
    <glyph glyph-name="Thorn" unicode="&#xde;" 
d="M0 0v75h75v-75h-75zM400 400v75h75v-75h-75zM200 500v75h75v-75h-75zM0 400v75h75v-75h-75zM0 500v75h75v-75h-75zM100 200v75h75v-75h-75zM300 200v75h75v-75h-75zM200 200v75h75v-75h-75zM0 200v75h75v-75h-75zM0 300v75h75v-75h-75zM100 500v75h75v-75h-75zM0 600v75
h75v-75h-75zM400 300v75h75v-75h-75zM0 100v75h75v-75h-75zM300 500v75h75v-75h-75z" />
    <glyph glyph-name="germandbls" unicode="&#xdf;" 
d="M0 0v75h75v-75h-75zM300 0v75h75v-75h-75zM0 300v75h75v-75h-75zM400 100v75h75v-75h-75zM300 500v75h75v-75h-75zM0 400v75h75v-75h-75zM300 400v75h75v-75h-75zM0 200v75h75v-75h-75zM300 200v75h75v-75h-75zM100 500v75h75v-75h-75zM200 0v75h75v-75h-75zM200 300v75
h75v-75h-75zM0 100v75h75v-75h-75zM200 600v75h75v-75h-75z" />
    <glyph glyph-name="agrave" unicode="&#xe0;" 
d="M100 0v75h75v-75h-75zM400 0v75h75v-75h-75zM300 400v75h75v-75h-75zM200 200v75h75v-75h-75zM300 0v75h75v-75h-75zM100 400v75h75v-75h-75zM300 200v75h75v-75h-75zM200 400v75h75v-75h-75zM200 0v75h75v-75h-75zM400 200v75h75v-75h-75zM400 100v75h75v-75h-75zM0 100
v75h75v-75h-75zM100 200v75h75v-75h-75zM400 300v75h75v-75h-75zM300 600v75h75v-75h-75zM100 700v75h75v-75h-75zM200 600v75h75v-75h-75z" />
    <glyph glyph-name="aacute" unicode="&#xe1;" 
d="M100 0v75h75v-75h-75zM400 0v75h75v-75h-75zM300 400v75h75v-75h-75zM200 200v75h75v-75h-75zM300 0v75h75v-75h-75zM100 400v75h75v-75h-75zM300 200v75h75v-75h-75zM200 400v75h75v-75h-75zM200 0v75h75v-75h-75zM400 200v75h75v-75h-75zM400 100v75h75v-75h-75zM0 100
v75h75v-75h-75zM100 200v75h75v-75h-75zM400 300v75h75v-75h-75zM200 600v75h75v-75h-75zM100 600v75h75v-75h-75zM300 700v75h75v-75h-75z" />
    <glyph glyph-name="acircumflex" unicode="&#xe2;" 
d="M100 0v75h75v-75h-75zM400 0v75h75v-75h-75zM300 400v75h75v-75h-75zM200 200v75h75v-75h-75zM300 0v75h75v-75h-75zM100 400v75h75v-75h-75zM300 200v75h75v-75h-75zM200 400v75h75v-75h-75zM200 0v75h75v-75h-75zM400 200v75h75v-75h-75zM400 100v75h75v-75h-75zM0 100
v75h75v-75h-75zM100 200v75h75v-75h-75zM400 300v75h75v-75h-75z" />
    <glyph glyph-name="atilde" unicode="&#xe3;" 
d="M100 0v75h75v-75h-75zM400 0v75h75v-75h-75zM300 400v75h75v-75h-75zM200 200v75h75v-75h-75zM300 0v75h75v-75h-75zM100 400v75h75v-75h-75zM300 200v75h75v-75h-75zM200 400v75h75v-75h-75zM200 0v75h75v-75h-75zM400 200v75h75v-75h-75zM400 100v75h75v-75h-75zM0 100
v75h75v-75h-75zM100 200v75h75v-75h-75zM400 300v75h75v-75h-75zM100 700v75h75v-75h-75zM300 600v75h75v-75h-75zM400 700v75h75v-75h-75zM200 600v75h75v-75h-75zM0 600v75h75v-75h-75z" />
    <glyph glyph-name="adieresis" unicode="&#xe4;" 
d="M100 0v75h75v-75h-75zM400 0v75h75v-75h-75zM300 400v75h75v-75h-75zM200 200v75h75v-75h-75zM300 0v75h75v-75h-75zM100 400v75h75v-75h-75zM300 200v75h75v-75h-75zM200 400v75h75v-75h-75zM200 0v75h75v-75h-75zM400 200v75h75v-75h-75zM400 100v75h75v-75h-75zM0 100
v75h75v-75h-75zM100 200v75h75v-75h-75zM400 300v75h75v-75h-75zM0 600v75h75v-75h-75zM400 700v75h75v-75h-75zM0 700v75h75v-75h-75zM400 600v75h75v-75h-75z" />
    <glyph glyph-name="aring" unicode="&#xe5;" 
d="M100 0v75h75v-75h-75zM400 0v75h75v-75h-75zM300 400v75h75v-75h-75zM200 200v75h75v-75h-75zM300 0v75h75v-75h-75zM100 400v75h75v-75h-75zM300 200v75h75v-75h-75zM200 400v75h75v-75h-75zM200 0v75h75v-75h-75zM400 200v75h75v-75h-75zM400 100v75h75v-75h-75zM0 100
v75h75v-75h-75zM100 200v75h75v-75h-75zM400 300v75h75v-75h-75zM200 600v75h75v-75h-75zM300 700v75h75v-75h-75zM200 800v75h75v-75h-75zM100 700v75h75v-75h-75z" />
    <glyph glyph-name="ae" unicode="&#xe6;" 
d="M100 0v75h75v-75h-75zM200 100v75h75v-75h-75zM400 0v75h75v-75h-75zM300 0v75h75v-75h-75zM100 200v75h75v-75h-75zM100 400v75h75v-75h-75zM400 300v75h75v-75h-75zM200 300v75h75v-75h-75zM0 100v75h75v-75h-75zM200 0v75h75v-75h-75zM300 200v75h75v-75h-75zM300 400
v75h75v-75h-75zM200 200v75h75v-75h-75z" />
    <glyph glyph-name="ccedilla" unicode="&#xe7;" 
d="M100 0v75h75v-75h-75zM400 300v75h75v-75h-75zM300 400v75h75v-75h-75zM200 0v75h75v-75h-75zM200 400v75h75v-75h-75zM0 200v75h75v-75h-75zM0 300v75h75v-75h-75zM0 100v75h75v-75h-75zM100 400v75h75v-75h-75zM300 0v75h75v-75h-75zM400 100v75h75v-75h-75zM200 -100
v75h75v-75h-75zM100 -200v75h75v-75h-75z" />
    <glyph glyph-name="egrave" unicode="&#xe8;" 
d="M100 0v75h75v-75h-75zM200 400v75h75v-75h-75zM300 400v75h75v-75h-75zM100 200v75h75v-75h-75zM200 0v75h75v-75h-75zM200 200v75h75v-75h-75zM100 400v75h75v-75h-75zM400 300v75h75v-75h-75zM0 100v75h75v-75h-75zM0 200v75h75v-75h-75zM400 0v75h75v-75h-75zM400 200
v75h75v-75h-75zM300 200v75h75v-75h-75zM0 300v75h75v-75h-75zM300 0v75h75v-75h-75zM300 600v75h75v-75h-75zM100 700v75h75v-75h-75zM200 600v75h75v-75h-75z" />
    <glyph glyph-name="eacute" unicode="&#xe9;" 
d="M100 0v75h75v-75h-75zM200 400v75h75v-75h-75zM300 400v75h75v-75h-75zM100 200v75h75v-75h-75zM200 0v75h75v-75h-75zM200 200v75h75v-75h-75zM100 400v75h75v-75h-75zM400 300v75h75v-75h-75zM0 100v75h75v-75h-75zM0 200v75h75v-75h-75zM400 0v75h75v-75h-75zM400 200
v75h75v-75h-75zM300 200v75h75v-75h-75zM0 300v75h75v-75h-75zM300 0v75h75v-75h-75zM200 600v75h75v-75h-75zM100 600v75h75v-75h-75zM300 700v75h75v-75h-75z" />
    <glyph glyph-name="ecircumflex" unicode="&#xea;" 
d="M100 0v75h75v-75h-75zM200 400v75h75v-75h-75zM300 400v75h75v-75h-75zM100 200v75h75v-75h-75zM200 0v75h75v-75h-75zM200 200v75h75v-75h-75zM100 400v75h75v-75h-75zM400 300v75h75v-75h-75zM0 100v75h75v-75h-75zM0 200v75h75v-75h-75zM400 0v75h75v-75h-75zM400 200
v75h75v-75h-75zM300 200v75h75v-75h-75zM0 300v75h75v-75h-75zM300 0v75h75v-75h-75zM100 600v75h75v-75h-75zM300 600v75h75v-75h-75zM200 700v75h75v-75h-75z" />
    <glyph glyph-name="edieresis" unicode="&#xeb;" 
d="M100 0v75h75v-75h-75zM200 400v75h75v-75h-75zM300 400v75h75v-75h-75zM100 200v75h75v-75h-75zM200 0v75h75v-75h-75zM200 200v75h75v-75h-75zM100 400v75h75v-75h-75zM400 300v75h75v-75h-75zM0 100v75h75v-75h-75zM0 200v75h75v-75h-75zM400 0v75h75v-75h-75zM400 200
v75h75v-75h-75zM300 200v75h75v-75h-75zM0 300v75h75v-75h-75zM300 0v75h75v-75h-75zM0 600v75h75v-75h-75zM400 700v75h75v-75h-75zM0 700v75h75v-75h-75zM400 600v75h75v-75h-75z" />
    <glyph glyph-name="igrave" unicode="&#xec;" 
d="M0 0v75h75v-75h-75zM200 100v75h75v-75h-75zM300 600v75h75v-75h-75zM100 700v75h75v-75h-75zM100 0v75h75v-75h-75zM100 400v75h75v-75h-75zM200 0v75h75v-75h-75zM300 0v75h75v-75h-75zM0 400v75h75v-75h-75zM200 300v75h75v-75h-75zM200 400v75h75v-75h-75zM200 200
v75h75v-75h-75zM200 600v75h75v-75h-75zM400 0v75h75v-75h-75z" />
    <glyph glyph-name="iacute" unicode="&#xed;" 
d="M0 0v75h75v-75h-75zM200 600v75h75v-75h-75zM100 0v75h75v-75h-75zM400 0v75h75v-75h-75zM300 700v75h75v-75h-75zM0 400v75h75v-75h-75zM200 400v75h75v-75h-75zM200 0v75h75v-75h-75zM200 100v75h75v-75h-75zM200 200v75h75v-75h-75zM300 0v75h75v-75h-75zM200 300v75
h75v-75h-75zM100 600v75h75v-75h-75zM100 400v75h75v-75h-75z" />
    <glyph glyph-name="icircumflex" unicode="&#xee;" 
d="M0 0v75h75v-75h-75zM400 0v75h75v-75h-75zM200 700v75h75v-75h-75zM200 200v75h75v-75h-75zM200 400v75h75v-75h-75zM200 300v75h75v-75h-75zM0 400v75h75v-75h-75zM300 0v75h75v-75h-75zM200 0v75h75v-75h-75zM100 400v75h75v-75h-75zM100 0v75h75v-75h-75zM300 600v75
h75v-75h-75zM100 600v75h75v-75h-75zM200 100v75h75v-75h-75z" />
    <glyph glyph-name="idieresis" unicode="&#xef;" 
d="M0 0v75h75v-75h-75zM400 700v75h75v-75h-75zM0 400v75h75v-75h-75zM200 400v75h75v-75h-75zM200 200v75h75v-75h-75zM200 100v75h75v-75h-75zM400 600v75h75v-75h-75zM300 0v75h75v-75h-75zM100 400v75h75v-75h-75zM100 0v75h75v-75h-75zM0 600v75h75v-75h-75zM200 0v75
h75v-75h-75zM0 700v75h75v-75h-75zM400 0v75h75v-75h-75zM200 300v75h75v-75h-75z" />
    <glyph glyph-name="eth" unicode="&#xf0;" 
d="M299 0l1 75h75v-75h-76zM100 600v75h75v-75h-75zM200 600v75h75v-75h-75zM400 600v75h75v-75h-75zM400 400v75h75v-75h-75zM400 300v75h75v-75h-75zM300 500v75h75v-75h-75zM400 100v75h75v-75h-75zM200 0v75h75v-75h-75zM400 200v75h75v-75h-75zM300 300v75h75v-75h-75z
M200 300v75h75v-75h-75zM0 100v75h75v-75h-75zM200 400v75h75v-75h-75zM100 300v75h75v-75h-75zM0 200v75h75v-75h-75zM101 0v75h75v-75h-75z" />
    <glyph glyph-name="ntilde" unicode="&#xf1;" 
d="M0 0v75h75v-75h-75zM400 300v75h75v-75h-75zM400 0v75h75v-75h-75zM100 300v75h75v-75h-75zM0 400v75h75v-75h-75zM0 200v75h75v-75h-75zM200 400v75h75v-75h-75zM0 100v75h75v-75h-75zM300 400v75h75v-75h-75zM0 300v75h75v-75h-75zM400 100v75h75v-75h-75zM400 200v75
h75v-75h-75zM100 700v75h75v-75h-75zM300 600v75h75v-75h-75zM400 700v75h75v-75h-75zM200 600v75h75v-75h-75zM0 600v75h75v-75h-75z" />
    <glyph glyph-name="ograve" unicode="&#xf2;" 
d="M100 0v75h75v-75h-75zM400 300v75h75v-75h-75zM100 400v75h75v-75h-75zM400 200v75h75v-75h-75zM0 200v75h75v-75h-75zM200 400v75h75v-75h-75zM0 300v75h75v-75h-75zM300 400v75h75v-75h-75zM300 0v75h75v-75h-75zM0 100v75h75v-75h-75zM400 100v75h75v-75h-75zM200 0
v75h75v-75h-75zM300 600v75h75v-75h-75zM100 700v75h75v-75h-75zM200 600v75h75v-75h-75z" />
    <glyph glyph-name="oacute" unicode="&#xf3;" 
d="M100 0v75h75v-75h-75zM400 300v75h75v-75h-75zM100 400v75h75v-75h-75zM400 200v75h75v-75h-75zM0 200v75h75v-75h-75zM200 400v75h75v-75h-75zM0 300v75h75v-75h-75zM300 400v75h75v-75h-75zM300 0v75h75v-75h-75zM0 100v75h75v-75h-75zM400 100v75h75v-75h-75zM200 0
v75h75v-75h-75zM200 600v75h75v-75h-75zM100 600v75h75v-75h-75zM300 700v75h75v-75h-75z" />
    <glyph glyph-name="ocircumflex" unicode="&#xf4;" 
d="M100 0v75h75v-75h-75zM400 300v75h75v-75h-75zM100 400v75h75v-75h-75zM400 200v75h75v-75h-75zM0 200v75h75v-75h-75zM200 400v75h75v-75h-75zM0 300v75h75v-75h-75zM300 400v75h75v-75h-75zM300 0v75h75v-75h-75zM0 100v75h75v-75h-75zM400 100v75h75v-75h-75zM200 0
v75h75v-75h-75zM100 600v75h75v-75h-75zM300 600v75h75v-75h-75zM200 700v75h75v-75h-75z" />
    <glyph glyph-name="otilde" unicode="&#xf5;" 
d="M100 0v75h75v-75h-75zM400 300v75h75v-75h-75zM100 400v75h75v-75h-75zM400 200v75h75v-75h-75zM0 200v75h75v-75h-75zM200 400v75h75v-75h-75zM0 300v75h75v-75h-75zM300 400v75h75v-75h-75zM300 0v75h75v-75h-75zM0 100v75h75v-75h-75zM400 100v75h75v-75h-75zM200 0
v75h75v-75h-75zM100 700v75h75v-75h-75zM300 600v75h75v-75h-75zM400 700v75h75v-75h-75zM200 600v75h75v-75h-75zM0 600v75h75v-75h-75z" />
    <glyph glyph-name="odieresis" unicode="&#xf6;" 
d="M100 0v75h75v-75h-75zM400 300v75h75v-75h-75zM100 400v75h75v-75h-75zM400 200v75h75v-75h-75zM0 200v75h75v-75h-75zM200 400v75h75v-75h-75zM0 300v75h75v-75h-75zM300 400v75h75v-75h-75zM300 0v75h75v-75h-75zM0 100v75h75v-75h-75zM400 100v75h75v-75h-75zM200 0
v75h75v-75h-75zM0 600v75h75v-75h-75zM400 700v75h75v-75h-75zM0 700v75h75v-75h-75zM400 600v75h75v-75h-75z" />
    <glyph glyph-name="divide" unicode="&#xf7;" 
d="M200 0v75h75v-75h-75zM200 400v75h75v-75h-75zM400 200v75h75v-75h-75zM200 200v75h75v-75h-75zM100 200v75h75v-75h-75zM300 200v75h75v-75h-75zM0 200v75h75v-75h-75z" />
    <glyph glyph-name="oslash" unicode="&#xf8;" 
d="M1 -100v75h75v-75h-75zM0 100v75h75v-75h-75zM0 300v75h75v-75h-75zM100 400v75h75v-75h-75zM100 100v75h75v-75h-75zM400 100v75h75v-75h-75zM200 200v75h75v-75h-75zM300 400v75h75v-75h-75zM0 200v75h75v-75h-75zM100 0v75h75v-75h-75zM400 500v75h75v-75h-75zM200 0
v75h75v-75h-75zM400 200v75h75v-75h-75zM300 0v75h75v-75h-75zM200 400v75h75v-75h-75zM400 300v75h75v-75h-75zM300 300v75h75v-75h-75z" />
    <glyph glyph-name="ugrave" unicode="&#xf9;" 
d="M100 0v75h75v-75h-75zM0 100v75h75v-75h-75zM400 400v75h75v-75h-75zM400 200v75h75v-75h-75zM400 100v75h75v-75h-75zM300 100v75h75v-75h-75zM400 300v75h75v-75h-75zM0 300v75h75v-75h-75zM0 200v75h75v-75h-75zM200 0v75h75v-75h-75zM400 0v75h75v-75h-75zM0 400v75
h75v-75h-75zM300 600v75h75v-75h-75zM100 700v75h75v-75h-75zM200 600v75h75v-75h-75z" />
    <glyph glyph-name="uacute" unicode="&#xfa;" 
d="M100 0v75h75v-75h-75zM0 100v75h75v-75h-75zM400 400v75h75v-75h-75zM400 200v75h75v-75h-75zM400 100v75h75v-75h-75zM300 100v75h75v-75h-75zM400 300v75h75v-75h-75zM0 300v75h75v-75h-75zM0 200v75h75v-75h-75zM200 0v75h75v-75h-75zM400 0v75h75v-75h-75zM0 400v75
h75v-75h-75zM200 600v75h75v-75h-75zM100 600v75h75v-75h-75zM300 700v75h75v-75h-75z" />
    <glyph glyph-name="ucircumflex" unicode="&#xfb;" 
d="M100 0v75h75v-75h-75zM0 100v75h75v-75h-75zM400 400v75h75v-75h-75zM400 200v75h75v-75h-75zM400 100v75h75v-75h-75zM300 100v75h75v-75h-75zM400 300v75h75v-75h-75zM0 300v75h75v-75h-75zM0 200v75h75v-75h-75zM200 0v75h75v-75h-75zM400 0v75h75v-75h-75zM0 400v75
h75v-75h-75zM100 600v75h75v-75h-75zM300 600v75h75v-75h-75zM200 700v75h75v-75h-75z" />
    <glyph glyph-name="udieresis" unicode="&#xfc;" 
d="M100 0v75h75v-75h-75zM0 100v75h75v-75h-75zM400 400v75h75v-75h-75zM400 200v75h75v-75h-75zM400 100v75h75v-75h-75zM300 100v75h75v-75h-75zM400 300v75h75v-75h-75zM0 300v75h75v-75h-75zM0 200v75h75v-75h-75zM200 0v75h75v-75h-75zM400 0v75h75v-75h-75zM0 400v75
h75v-75h-75zM0 600v75h75v-75h-75zM400 700v75h75v-75h-75zM0 700v75h75v-75h-75zM400 600v75h75v-75h-75z" />
    <glyph glyph-name="yacute" unicode="&#xfd;" 
d="M200 0v75h75v-75h-75zM0 -200v75h75v-75h-75zM400 400v75h75v-75h-75zM400 300v75h75v-75h-75zM100 100v75h75v-75h-75zM200 -100v75h75v-75h-75zM0 400v75h75v-75h-75zM0 300v75h75v-75h-75zM300 100v75h75v-75h-75zM100 200v75h75v-75h-75zM300 200v75h75v-75h-75z
M100 -200v75h75v-75h-75zM200 600v75h75v-75h-75zM100 600v75h75v-75h-75zM300 700v75h75v-75h-75z" />
    <glyph glyph-name="thorn" unicode="&#xfe;" 
d="M0 0v75h75v-75h-75zM400 200v75h75v-75h-75zM300 0v75h75v-75h-75zM100 400v75h75v-75h-75zM0 -200v75h75v-75h-75zM0 100v75h75v-75h-75zM0 300v75h75v-75h-75zM200 400v75h75v-75h-75zM300 400v75h75v-75h-75zM200 0v75h75v-75h-75zM0 600v75h75v-75h-75zM400 300v75
h75v-75h-75zM100 0v75h75v-75h-75zM0 400v75h75v-75h-75zM0 200v75h75v-75h-75zM0 -100v75h75v-75h-75zM400 100v75h75v-75h-75zM0 500v75h75v-75h-75z" />
    <glyph glyph-name="ydieresis" unicode="&#xff;" 
d="M200 0v75h75v-75h-75zM0 -200v75h75v-75h-75zM400 400v75h75v-75h-75zM400 300v75h75v-75h-75zM100 100v75h75v-75h-75zM200 -100v75h75v-75h-75zM0 400v75h75v-75h-75zM0 300v75h75v-75h-75zM300 100v75h75v-75h-75zM100 200v75h75v-75h-75zM300 200v75h75v-75h-75z
M100 -200v75h75v-75h-75zM0 600v75h75v-75h-75zM400 700v75h75v-75h-75zM0 700v75h75v-75h-75zM400 600v75h75v-75h-75z" />
    <glyph glyph-name="Amacron" unicode="&#x100;" 
d="M0 0v75h75v-75h-75zM300 200v75h75v-75h-75zM0 500v75h75v-75h-75zM400 200v75h75v-75h-75zM400 300v75h75v-75h-75zM200 200v75h75v-75h-75zM400 400v75h75v-75h-75zM100 200v75h75v-75h-75zM100 600v75h75v-75h-75zM0 300v75h75v-75h-75zM400 500v75h75v-75h-75z
M200 600v75h75v-75h-75zM0 400v75h75v-75h-75zM400 0v75h75v-75h-75zM400 100v75h75v-75h-75zM0 200v75h75v-75h-75zM300 600v75h75v-75h-75zM0 100v75h75v-75h-75zM100 825v75h75v-75h-75zM300 825v75h75v-75h-75zM200 825v75h75v-75h-75z" />
    <glyph glyph-name="amacron" unicode="&#x101;" 
d="M100 0v75h75v-75h-75zM400 0v75h75v-75h-75zM300 400v75h75v-75h-75zM200 200v75h75v-75h-75zM300 0v75h75v-75h-75zM100 400v75h75v-75h-75zM300 200v75h75v-75h-75zM200 400v75h75v-75h-75zM200 0v75h75v-75h-75zM400 200v75h75v-75h-75zM400 100v75h75v-75h-75zM0 100
v75h75v-75h-75zM100 200v75h75v-75h-75zM400 300v75h75v-75h-75zM100 600v75h75v-75h-75zM300 600v75h75v-75h-75zM200 600v75h75v-75h-75z" />
    <glyph glyph-name="Abreve" unicode="&#x102;" 
d="M0 0v75h75v-75h-75zM300 200v75h75v-75h-75zM0 500v75h75v-75h-75zM400 200v75h75v-75h-75zM400 300v75h75v-75h-75zM200 200v75h75v-75h-75zM400 400v75h75v-75h-75zM100 200v75h75v-75h-75zM100 600v75h75v-75h-75zM0 300v75h75v-75h-75zM400 500v75h75v-75h-75z
M200 600v75h75v-75h-75zM0 400v75h75v-75h-75zM400 0v75h75v-75h-75zM400 100v75h75v-75h-75zM0 200v75h75v-75h-75zM300 600v75h75v-75h-75zM0 100v75h75v-75h-75zM300 925v75h75v-75h-75zM200 825v75h75v-75h-75zM100 925v75h75v-75h-75z" />
    <glyph glyph-name="abreve" unicode="&#x103;" 
d="M100 0v75h75v-75h-75zM400 0v75h75v-75h-75zM300 400v75h75v-75h-75zM200 200v75h75v-75h-75zM300 0v75h75v-75h-75zM100 400v75h75v-75h-75zM300 200v75h75v-75h-75zM200 400v75h75v-75h-75zM200 0v75h75v-75h-75zM400 200v75h75v-75h-75zM400 100v75h75v-75h-75zM0 100
v75h75v-75h-75zM100 200v75h75v-75h-75zM400 300v75h75v-75h-75zM300 700v75h75v-75h-75zM200 600v75h75v-75h-75zM100 700v75h75v-75h-75z" />
    <glyph glyph-name="Aogonek" unicode="&#x104;" 
d="M0 0v75h75v-75h-75zM300 200v75h75v-75h-75zM0 500v75h75v-75h-75zM400 200v75h75v-75h-75zM400 300v75h75v-75h-75zM200 200v75h75v-75h-75zM400 400v75h75v-75h-75zM100 200v75h75v-75h-75zM100 600v75h75v-75h-75zM0 300v75h75v-75h-75zM400 500v75h75v-75h-75z
M200 600v75h75v-75h-75zM0 400v75h75v-75h-75zM400 0v75h75v-75h-75zM400 100v75h75v-75h-75zM0 200v75h75v-75h-75zM300 600v75h75v-75h-75zM0 100v75h75v-75h-75zM300 -100v75h75v-75h-75zM400 -200v75h75v-75h-75z" />
    <glyph glyph-name="aogonek" unicode="&#x105;" 
d="M100 0v75h75v-75h-75zM400 0v75h75v-75h-75zM300 400v75h75v-75h-75zM200 200v75h75v-75h-75zM300 0v75h75v-75h-75zM100 400v75h75v-75h-75zM300 200v75h75v-75h-75zM200 400v75h75v-75h-75zM200 0v75h75v-75h-75zM400 200v75h75v-75h-75zM400 100v75h75v-75h-75zM0 100
v75h75v-75h-75zM100 200v75h75v-75h-75zM400 300v75h75v-75h-75zM300 -100v75h75v-75h-75zM400 -200v75h75v-75h-75z" />
    <glyph glyph-name="Cacute" unicode="&#x106;" 
d="M100 0v75h75v-75h-75zM300 600v75h75v-75h-75zM0 200v75h75v-75h-75zM400 100v75h75v-75h-75zM200 600v75h75v-75h-75zM300 0v75h75v-75h-75zM0 300v75h75v-75h-75zM200 0v75h75v-75h-75zM100 600v75h75v-75h-75zM400 500v75h75v-75h-75zM0 500v75h75v-75h-75zM0 400v75
h75v-75h-75zM0 100v75h75v-75h-75zM200 825v75h75v-75h-75zM100 825v75h75v-75h-75zM300 925v75h75v-75h-75z" />
    <glyph glyph-name="cacute" unicode="&#x107;" 
d="M100 0v75h75v-75h-75zM400 300v75h75v-75h-75zM300 400v75h75v-75h-75zM200 0v75h75v-75h-75zM200 400v75h75v-75h-75zM0 200v75h75v-75h-75zM0 300v75h75v-75h-75zM0 100v75h75v-75h-75zM100 400v75h75v-75h-75zM300 0v75h75v-75h-75zM400 100v75h75v-75h-75zM200 600
v75h75v-75h-75zM100 600v75h75v-75h-75zM300 700v75h75v-75h-75z" />
    <glyph glyph-name="Ccaron" unicode="&#x10c;" 
d="M100 0v75h75v-75h-75zM300 600v75h75v-75h-75zM0 200v75h75v-75h-75zM400 100v75h75v-75h-75zM200 600v75h75v-75h-75zM300 0v75h75v-75h-75zM0 300v75h75v-75h-75zM200 0v75h75v-75h-75zM100 600v75h75v-75h-75zM400 500v75h75v-75h-75zM0 500v75h75v-75h-75zM0 400v75
h75v-75h-75zM0 100v75h75v-75h-75zM100 925v75h75v-75h-75zM200 825v75h75v-75h-75zM300 925v75h75v-75h-75z" />
    <glyph glyph-name="ccaron" unicode="&#x10d;" 
d="M100 0v75h75v-75h-75zM400 300v75h75v-75h-75zM300 400v75h75v-75h-75zM200 0v75h75v-75h-75zM200 400v75h75v-75h-75zM0 200v75h75v-75h-75zM0 300v75h75v-75h-75zM0 100v75h75v-75h-75zM100 400v75h75v-75h-75zM300 0v75h75v-75h-75zM400 100v75h75v-75h-75zM100 700
v75h75v-75h-75zM200 600v75h75v-75h-75zM300 700v75h75v-75h-75z" />
    <glyph glyph-name="Dcaron" unicode="&#x10e;" 
d="M0 0v75h75v-75h-75zM300 600v75h75v-75h-75zM300 0v75h75v-75h-75zM200 0v75h75v-75h-75zM400 500v75h75v-75h-75zM200 600v75h75v-75h-75zM400 300v75h75v-75h-75zM0 100v75h75v-75h-75zM100 600v75h75v-75h-75zM0 200v75h75v-75h-75zM400 400v75h75v-75h-75zM400 100
v75h75v-75h-75zM100 0v75h75v-75h-75zM0 400v75h75v-75h-75zM0 300v75h75v-75h-75zM400 200v75h75v-75h-75zM0 500v75h75v-75h-75zM0 600v75h75v-75h-75zM100 925v75h75v-75h-75zM200 825v75h75v-75h-75zM300 925v75h75v-75h-75z" />
    <glyph glyph-name="dcaron" unicode="&#x10f;" 
d="M200 0v75h75v-75h-75zM100 400v75h75v-75h-75zM200 500v75h75v-75h-75zM200 100v75h75v-75h-75zM200 400v75h75v-75h-75zM200 600v75h75v-75h-75zM0 200v75h75v-75h-75zM300 400v75h75v-75h-75zM200 300v75h75v-75h-75zM200 200v75h75v-75h-75zM0 100v75h75v-75h-75z
M100 0v75h75v-75h-75zM0 300v75h75v-75h-75zM400 500v75h75v-75h-75zM400 600v75h75v-75h-75z" />
    <glyph glyph-name="Dcroat" unicode="&#x110;" 
d="M100 0v75h75v-75h-75zM102 302v75h75v-75h-75zM100 400v75h75v-75h-75zM100 600v75h75v-75h-75zM200 0v75h75v-75h-75zM200 600v75h75v-75h-75zM400 500v75h75v-75h-75zM100 200v75h75v-75h-75zM100 100v75h75v-75h-75zM400 400v75h75v-75h-75zM400 100v75h75v-75h-75z
M300 0v75h75v-75h-75zM400 300v75h75v-75h-75zM202 302v75h75v-75h-75zM100 500v75h75v-75h-75zM400 200v75h75v-75h-75zM2 302v75h75v-75h-75zM300 600v75h75v-75h-75z" />
    <glyph glyph-name="dcroat" unicode="&#x111;" 
d="M100 0v75h75v-75h-75zM300 600v75h75v-75h-75zM0 200v75h75v-75h-75zM0 100v75h75v-75h-75zM302 200v75h75v-75h-75zM300 300v75h75v-75h-75zM202 200v75h75v-75h-75zM200 400v75h75v-75h-75zM300 400v75h75v-75h-75zM100 400v75h75v-75h-75zM200 0v75h75v-75h-75zM0 300
v75h75v-75h-75zM300 500v75h75v-75h-75zM300 100v75h75v-75h-75zM300 0v75h75v-75h-75zM402 200v75h75v-75h-75z" />
    <glyph glyph-name="Emacron" unicode="&#x112;" 
d="M0 0v75h75v-75h-75zM0 300v75h75v-75h-75zM0 500v75h75v-75h-75zM200 0v75h75v-75h-75zM400 600v75h75v-75h-75zM0 200v75h75v-75h-75zM0 100v75h75v-75h-75zM200 600v75h75v-75h-75zM100 600v75h75v-75h-75zM300 600v75h75v-75h-75zM0 400v75h75v-75h-75zM300 300v75h75
v-75h-75zM100 0v75h75v-75h-75zM400 0v75h75v-75h-75zM100 300v75h75v-75h-75zM200 300v75h75v-75h-75zM300 0v75h75v-75h-75zM0 600v75h75v-75h-75zM100 825v75h75v-75h-75zM300 825v75h75v-75h-75zM200 825v75h75v-75h-75z" />
    <glyph glyph-name="emacron" unicode="&#x113;" 
d="M100 0v75h75v-75h-75zM200 400v75h75v-75h-75zM300 400v75h75v-75h-75zM100 200v75h75v-75h-75zM200 0v75h75v-75h-75zM200 200v75h75v-75h-75zM100 400v75h75v-75h-75zM400 300v75h75v-75h-75zM0 100v75h75v-75h-75zM0 200v75h75v-75h-75zM400 0v75h75v-75h-75zM400 200
v75h75v-75h-75zM300 200v75h75v-75h-75zM0 300v75h75v-75h-75zM300 0v75h75v-75h-75zM100 600v75h75v-75h-75zM300 600v75h75v-75h-75zM200 600v75h75v-75h-75z" />
    <glyph glyph-name="Edotaccent" unicode="&#x116;" 
d="M0 0v75h75v-75h-75zM0 300v75h75v-75h-75zM0 500v75h75v-75h-75zM200 0v75h75v-75h-75zM400 600v75h75v-75h-75zM0 200v75h75v-75h-75zM0 100v75h75v-75h-75zM200 600v75h75v-75h-75zM100 600v75h75v-75h-75zM300 600v75h75v-75h-75zM0 400v75h75v-75h-75zM300 300v75h75
v-75h-75zM100 0v75h75v-75h-75zM400 0v75h75v-75h-75zM100 300v75h75v-75h-75zM200 300v75h75v-75h-75zM300 0v75h75v-75h-75zM0 600v75h75v-75h-75zM200 825v75h75v-75h-75z" />
    <glyph glyph-name="edotaccent" unicode="&#x117;" 
d="M100 0v75h75v-75h-75zM200 400v75h75v-75h-75zM300 400v75h75v-75h-75zM100 200v75h75v-75h-75zM200 0v75h75v-75h-75zM200 200v75h75v-75h-75zM100 400v75h75v-75h-75zM400 300v75h75v-75h-75zM0 100v75h75v-75h-75zM0 200v75h75v-75h-75zM400 0v75h75v-75h-75zM400 200
v75h75v-75h-75zM300 200v75h75v-75h-75zM0 300v75h75v-75h-75zM300 0v75h75v-75h-75zM200 600v75h75v-75h-75z" />
    <glyph glyph-name="Eogonek" unicode="&#x118;" 
d="M0 0v75h75v-75h-75zM0 300v75h75v-75h-75zM0 500v75h75v-75h-75zM200 0v75h75v-75h-75zM400 600v75h75v-75h-75zM0 200v75h75v-75h-75zM0 100v75h75v-75h-75zM200 600v75h75v-75h-75zM100 600v75h75v-75h-75zM300 600v75h75v-75h-75zM0 400v75h75v-75h-75zM300 300v75h75
v-75h-75zM100 0v75h75v-75h-75zM400 0v75h75v-75h-75zM100 300v75h75v-75h-75zM200 300v75h75v-75h-75zM300 0v75h75v-75h-75zM0 600v75h75v-75h-75zM300 -100v75h75v-75h-75zM400 -200v75h75v-75h-75z" />
    <glyph glyph-name="eogonek" unicode="&#x119;" 
d="M100 0v75h75v-75h-75zM200 400v75h75v-75h-75zM300 400v75h75v-75h-75zM100 200v75h75v-75h-75zM200 0v75h75v-75h-75zM200 200v75h75v-75h-75zM100 400v75h75v-75h-75zM400 300v75h75v-75h-75zM0 100v75h75v-75h-75zM0 200v75h75v-75h-75zM400 0v75h75v-75h-75zM400 200
v75h75v-75h-75zM300 200v75h75v-75h-75zM0 300v75h75v-75h-75zM300 0v75h75v-75h-75zM300 -100v75h75v-75h-75zM400 -200v75h75v-75h-75z" />
    <glyph glyph-name="Ecaron" unicode="&#x11a;" 
d="M0 0v75h75v-75h-75zM0 300v75h75v-75h-75zM0 500v75h75v-75h-75zM200 0v75h75v-75h-75zM400 600v75h75v-75h-75zM0 200v75h75v-75h-75zM0 100v75h75v-75h-75zM200 600v75h75v-75h-75zM100 600v75h75v-75h-75zM300 600v75h75v-75h-75zM0 400v75h75v-75h-75zM300 300v75h75
v-75h-75zM100 0v75h75v-75h-75zM400 0v75h75v-75h-75zM100 300v75h75v-75h-75zM200 300v75h75v-75h-75zM300 0v75h75v-75h-75zM0 600v75h75v-75h-75zM100 925v75h75v-75h-75zM200 825v75h75v-75h-75zM300 925v75h75v-75h-75z" />
    <glyph glyph-name="ecaron" unicode="&#x11b;" 
d="M100 0v75h75v-75h-75zM200 400v75h75v-75h-75zM300 400v75h75v-75h-75zM100 200v75h75v-75h-75zM200 0v75h75v-75h-75zM200 200v75h75v-75h-75zM100 400v75h75v-75h-75zM400 300v75h75v-75h-75zM0 100v75h75v-75h-75zM0 200v75h75v-75h-75zM400 0v75h75v-75h-75zM400 200
v75h75v-75h-75zM300 200v75h75v-75h-75zM0 300v75h75v-75h-75zM300 0v75h75v-75h-75zM100 700v75h75v-75h-75zM200 600v75h75v-75h-75zM300 700v75h75v-75h-75z" />
    <glyph glyph-name="Gbreve" unicode="&#x11e;" 
d="M100 0v75h75v-75h-75zM300 600v75h75v-75h-75zM0 500v75h75v-75h-75zM200 600v75h75v-75h-75zM400 200v75h75v-75h-75zM0 200v75h75v-75h-75zM0 300v75h75v-75h-75zM0 100v75h75v-75h-75zM200 0v75h75v-75h-75zM100 600v75h75v-75h-75zM300 200v75h75v-75h-75zM300 0v75
h75v-75h-75zM400 0v75h75v-75h-75zM0 400v75h75v-75h-75zM400 100v75h75v-75h-75zM400 500v75h75v-75h-75zM300 925v75h75v-75h-75zM200 825v75h75v-75h-75zM100 925v75h75v-75h-75z" />
    <glyph glyph-name="gbreve" unicode="&#x11f;" 
d="M100 0v75h75v-75h-75zM200 0v75h75v-75h-75zM300 -200v75h75v-75h-75zM100 400v75h75v-75h-75zM400 100v75h75v-75h-75zM400 200v75h75v-75h-75zM400 300v75h75v-75h-75zM300 100v75h75v-75h-75zM400 -100v75h75v-75h-75zM0 200v75h75v-75h-75zM200 400v75h75v-75h-75z
M400 400v75h75v-75h-75zM100 -200v75h75v-75h-75zM300 400v75h75v-75h-75zM0 300v75h75v-75h-75zM200 -200v75h75v-75h-75zM0 100v75h75v-75h-75zM400 0v75h75v-75h-75zM300 700v75h75v-75h-75zM200 600v75h75v-75h-75zM100 700v75h75v-75h-75z" />
    <glyph glyph-name="Gcommaaccent" unicode="&#x122;" 
d="M100 0v75h75v-75h-75zM300 600v75h75v-75h-75zM0 500v75h75v-75h-75zM200 600v75h75v-75h-75zM400 200v75h75v-75h-75zM0 200v75h75v-75h-75zM0 300v75h75v-75h-75zM0 100v75h75v-75h-75zM200 0v75h75v-75h-75zM100 600v75h75v-75h-75zM300 200v75h75v-75h-75zM300 0v75
h75v-75h-75zM400 0v75h75v-75h-75zM0 400v75h75v-75h-75zM400 100v75h75v-75h-75zM400 500v75h75v-75h-75zM200 -100v75h75v-75h-75zM100 -200v75h75v-75h-75z" />
    <glyph glyph-name="gcommaaccent" unicode="&#x123;" 
d="M100 0v75h75v-75h-75zM200 0v75h75v-75h-75zM300 -200v75h75v-75h-75zM100 400v75h75v-75h-75zM400 100v75h75v-75h-75zM400 200v75h75v-75h-75zM400 300v75h75v-75h-75zM300 100v75h75v-75h-75zM400 -100v75h75v-75h-75zM0 200v75h75v-75h-75zM200 400v75h75v-75h-75z
M400 400v75h75v-75h-75zM100 -200v75h75v-75h-75zM300 400v75h75v-75h-75zM0 300v75h75v-75h-75zM200 -200v75h75v-75h-75zM0 100v75h75v-75h-75zM400 0v75h75v-75h-75zM200 625v75h75v-75h-75zM300 825v75h75v-75h-75zM200 725v75h75v-75h-75z" />
    <glyph glyph-name="imacron" unicode="&#x12b;" 
d="M0 0v75h75v-75h-75zM400 0v75h75v-75h-75zM300 0v75h75v-75h-75zM100 600v75h75v-75h-75zM200 600v75h75v-75h-75zM0 400v75h75v-75h-75zM200 400v75h75v-75h-75zM200 0v75h75v-75h-75zM200 200v75h75v-75h-75zM200 100v75h75v-75h-75zM200 300v75h75v-75h-75zM100 0v75
h75v-75h-75zM300 600v75h75v-75h-75zM100 400v75h75v-75h-75z" />
    <glyph glyph-name="Iogonek" unicode="&#x12e;" 
d="M100 0v75h75v-75h-75zM200 0v75h75v-75h-75zM400 600v75h75v-75h-75zM200 300v75h75v-75h-75zM200 200v75h75v-75h-75zM200 400v75h75v-75h-75zM0 0v75h75v-75h-75zM0 600v75h75v-75h-75zM300 600v75h75v-75h-75zM400 0v75h75v-75h-75zM200 100v75h75v-75h-75zM300 0v75
h75v-75h-75zM200 500v75h75v-75h-75zM200 600v75h75v-75h-75zM100 600v75h75v-75h-75zM200 -100v75h75v-75h-75zM300 -200v75h75v-75h-75z" />
    <glyph glyph-name="iogonek" unicode="&#x12f;" 
d="M0 0v75h75v-75h-75zM300 0v75h75v-75h-75zM100 0v75h75v-75h-75zM200 300v75h75v-75h-75zM200 100v75h75v-75h-75zM400 0v75h75v-75h-75zM0 400v75h75v-75h-75zM200 400v75h75v-75h-75zM200 200v75h75v-75h-75zM100 400v75h75v-75h-75zM200 0v75h75v-75h-75zM200 600v75
h75v-75h-75zM200 -100v75h75v-75h-75zM300 -200v75h75v-75h-75z" />
    <glyph glyph-name="Idotaccent" unicode="&#x130;" 
d="M100 0v75h75v-75h-75zM200 0v75h75v-75h-75zM400 600v75h75v-75h-75zM200 300v75h75v-75h-75zM200 200v75h75v-75h-75zM200 400v75h75v-75h-75zM0 0v75h75v-75h-75zM0 600v75h75v-75h-75zM300 600v75h75v-75h-75zM400 0v75h75v-75h-75zM200 100v75h75v-75h-75zM300 0v75
h75v-75h-75zM200 500v75h75v-75h-75zM200 600v75h75v-75h-75zM100 600v75h75v-75h-75zM200 825v75h75v-75h-75z" />
    <glyph glyph-name="dotlessi" unicode="&#x131;" 
d="M0 0v75h75v-75h-75zM100 0v75h75v-75h-75zM200 400v75h75v-75h-75zM400 0v75h75v-75h-75zM200 0v75h75v-75h-75zM0 400v75h75v-75h-75zM200 200v75h75v-75h-75zM200 100v75h75v-75h-75zM200 300v75h75v-75h-75zM100 400v75h75v-75h-75zM300 0v75h75v-75h-75z" />
    <glyph glyph-name="Kcommaaccent" unicode="&#x136;" 
d="M0 0v75h75v-75h-75zM100 300v75h75v-75h-75zM0 100v75h75v-75h-75zM0 200v75h75v-75h-75zM400 500v75h75v-75h-75zM300 400v75h75v-75h-75zM0 600v75h75v-75h-75zM300 200v75h75v-75h-75zM0 300v75h75v-75h-75zM400 600v75h75v-75h-75zM200 300v75h75v-75h-75zM400 100
v75h75v-75h-75zM0 500v75h75v-75h-75zM0 400v75h75v-75h-75zM400 0v75h75v-75h-75zM200 -100v75h75v-75h-75zM100 -200v75h75v-75h-75z" />
    <glyph glyph-name="kcommaaccent" unicode="&#x137;" 
d="M0 0v75h75v-75h-75zM0 600v75h75v-75h-75zM0 500v75h75v-75h-75zM0 200v75h75v-75h-75zM400 0v75h75v-75h-75zM300 400v75h75v-75h-75zM0 100v75h75v-75h-75zM100 200v75h75v-75h-75zM0 300v75h75v-75h-75zM300 300v75h75v-75h-75zM200 200v75h75v-75h-75zM300 100v75h75
v-75h-75zM0 400v75h75v-75h-75zM200 -100v75h75v-75h-75zM100 -200v75h75v-75h-75z" />
    <glyph glyph-name="Lacute" unicode="&#x139;" 
d="M0 0v75h75v-75h-75zM0 600v75h75v-75h-75zM0 300v75h75v-75h-75zM100 0v75h75v-75h-75zM300 0v75h75v-75h-75zM0 100v75h75v-75h-75zM0 200v75h75v-75h-75zM0 500v75h75v-75h-75zM400 0v75h75v-75h-75zM200 0v75h75v-75h-75zM0 400v75h75v-75h-75zM200 825v75h75v-75h-75
zM100 825v75h75v-75h-75zM300 925v75h75v-75h-75z" />
    <glyph glyph-name="lacute" unicode="&#x13a;" 
d="M0 0v75h75v-75h-75zM200 100v75h75v-75h-75zM200 500v75h75v-75h-75zM100 600v75h75v-75h-75zM300 0v75h75v-75h-75zM200 0v75h75v-75h-75zM200 200v75h75v-75h-75zM100 0v75h75v-75h-75zM200 300v75h75v-75h-75zM400 0v75h75v-75h-75zM200 600v75h75v-75h-75zM0 600v75
h75v-75h-75zM200 400v75h75v-75h-75zM200 825v75h75v-75h-75zM100 825v75h75v-75h-75zM300 925v75h75v-75h-75z" />
    <glyph glyph-name="Lcommaaccent" unicode="&#x13b;" 
d="M0 0v75h75v-75h-75zM0 600v75h75v-75h-75zM0 300v75h75v-75h-75zM100 0v75h75v-75h-75zM300 0v75h75v-75h-75zM0 100v75h75v-75h-75zM0 200v75h75v-75h-75zM0 500v75h75v-75h-75zM400 0v75h75v-75h-75zM200 0v75h75v-75h-75zM0 400v75h75v-75h-75zM200 -100v75h75v-75
h-75zM100 -200v75h75v-75h-75z" />
    <glyph glyph-name="lcommaaccent" unicode="&#x13c;" 
d="M0 0v75h75v-75h-75zM200 100v75h75v-75h-75zM200 500v75h75v-75h-75zM100 600v75h75v-75h-75zM300 0v75h75v-75h-75zM200 0v75h75v-75h-75zM200 200v75h75v-75h-75zM100 0v75h75v-75h-75zM200 300v75h75v-75h-75zM400 0v75h75v-75h-75zM200 600v75h75v-75h-75zM0 600v75
h75v-75h-75zM200 400v75h75v-75h-75zM200 -100v75h75v-75h-75zM100 -200v75h75v-75h-75z" />
    <glyph glyph-name="Lcaron" unicode="&#x13d;" 
d="M0 0v75h75v-75h-75zM0 600v75h75v-75h-75zM0 300v75h75v-75h-75zM100 0v75h75v-75h-75zM300 0v75h75v-75h-75zM0 100v75h75v-75h-75zM0 200v75h75v-75h-75zM0 500v75h75v-75h-75zM400 0v75h75v-75h-75zM200 0v75h75v-75h-75zM0 400v75h75v-75h-75zM300 600v75h75v-75h-75
zM400 700v75h75v-75h-75zM400 800v75h75v-75h-75z" />
    <glyph glyph-name="lcaron" unicode="&#x13e;" 
d="M0 0v75h75v-75h-75zM0 600v75h75v-75h-75zM100 500v75h75v-75h-75zM100 300v75h75v-75h-75zM100 400v75h75v-75h-75zM400 500v75h75v-75h-75zM400 600v75h75v-75h-75zM200 0v75h75v-75h-75zM100 200v75h75v-75h-75zM100 0v75h75v-75h-75zM100 600v75h75v-75h-75zM300 400
v75h75v-75h-75zM100 100v75h75v-75h-75z" />
    <glyph glyph-name="Lslash" unicode="&#x141;" 
d="M100 0v75h75v-75h-75zM200 0v75h75v-75h-75zM400 0v75h75v-75h-75zM100 500v75h75v-75h-75zM100 300v75h75v-75h-75zM100 200v75h75v-75h-75zM100 400v75h75v-75h-75zM200 300v75h75v-75h-75zM300 0v75h75v-75h-75zM100 600v75h75v-75h-75zM100 100v75h75v-75h-75zM0 300
v75h75v-75h-75z" />
    <glyph glyph-name="lslash" unicode="&#x142;" 
d="M300 300v75h75v-75h-75zM200 500v75h75v-75h-75zM200 100v75h75v-75h-75zM200 300v75h75v-75h-75zM100 600v75h75v-75h-75zM200 0v75h75v-75h-75zM0 0v75h75v-75h-75zM200 200v75h75v-75h-75zM0 600v75h75v-75h-75zM300 0v75h75v-75h-75zM400 0v75h75v-75h-75zM200 600
v75h75v-75h-75zM100 0v75h75v-75h-75zM101 300v75h75v-75h-75zM200 400v75h75v-75h-75z" />
    <glyph glyph-name="Nacute" unicode="&#x143;" 
d="M0 0v75h75v-75h-75zM400 100v75h75v-75h-75zM0 600v75h75v-75h-75zM300 200v75h75v-75h-75zM0 500v75h75v-75h-75zM400 200v75h75v-75h-75zM400 300v75h75v-75h-75zM400 500v75h75v-75h-75zM0 300v75h75v-75h-75zM0 200v75h75v-75h-75zM200 400v75h75v-75h-75zM0 400v75
h75v-75h-75zM0 100v75h75v-75h-75zM400 0v75h75v-75h-75zM200 300v75h75v-75h-75zM400 600v75h75v-75h-75zM100 500v75h75v-75h-75zM400 400v75h75v-75h-75zM200 825v75h75v-75h-75zM100 825v75h75v-75h-75zM300 925v75h75v-75h-75z" />
    <glyph glyph-name="nacute" unicode="&#x144;" 
d="M0 0v75h75v-75h-75zM400 300v75h75v-75h-75zM400 0v75h75v-75h-75zM100 300v75h75v-75h-75zM0 400v75h75v-75h-75zM0 200v75h75v-75h-75zM200 400v75h75v-75h-75zM0 100v75h75v-75h-75zM300 400v75h75v-75h-75zM0 300v75h75v-75h-75zM400 100v75h75v-75h-75zM400 200v75
h75v-75h-75zM200 600v75h75v-75h-75zM100 600v75h75v-75h-75zM300 700v75h75v-75h-75z" />
    <glyph glyph-name="Ncommaaccent" unicode="&#x145;" 
d="M0 0v75h75v-75h-75zM400 100v75h75v-75h-75zM0 600v75h75v-75h-75zM300 200v75h75v-75h-75zM0 500v75h75v-75h-75zM400 200v75h75v-75h-75zM400 300v75h75v-75h-75zM400 500v75h75v-75h-75zM0 300v75h75v-75h-75zM0 200v75h75v-75h-75zM200 400v75h75v-75h-75zM0 400v75
h75v-75h-75zM0 100v75h75v-75h-75zM400 0v75h75v-75h-75zM200 300v75h75v-75h-75zM400 600v75h75v-75h-75zM100 500v75h75v-75h-75zM400 400v75h75v-75h-75zM200 -100v75h75v-75h-75zM100 -200v75h75v-75h-75z" />
    <glyph glyph-name="ncommaaccent" unicode="&#x146;" 
d="M0 0v75h75v-75h-75zM400 300v75h75v-75h-75zM400 0v75h75v-75h-75zM100 300v75h75v-75h-75zM0 400v75h75v-75h-75zM0 200v75h75v-75h-75zM200 400v75h75v-75h-75zM0 100v75h75v-75h-75zM300 400v75h75v-75h-75zM0 300v75h75v-75h-75zM400 100v75h75v-75h-75zM400 200v75
h75v-75h-75zM200 -100v75h75v-75h-75zM100 -200v75h75v-75h-75z" />
    <glyph glyph-name="Ncaron" unicode="&#x147;" 
d="M0 0v75h75v-75h-75zM400 100v75h75v-75h-75zM0 600v75h75v-75h-75zM300 200v75h75v-75h-75zM0 500v75h75v-75h-75zM400 200v75h75v-75h-75zM400 300v75h75v-75h-75zM400 500v75h75v-75h-75zM0 300v75h75v-75h-75zM0 200v75h75v-75h-75zM200 400v75h75v-75h-75zM0 400v75
h75v-75h-75zM0 100v75h75v-75h-75zM400 0v75h75v-75h-75zM200 300v75h75v-75h-75zM400 600v75h75v-75h-75zM100 500v75h75v-75h-75zM400 400v75h75v-75h-75zM100 925v75h75v-75h-75zM200 825v75h75v-75h-75zM300 925v75h75v-75h-75z" />
    <glyph glyph-name="ncaron" unicode="&#x148;" 
d="M0 0v75h75v-75h-75zM400 300v75h75v-75h-75zM400 0v75h75v-75h-75zM100 300v75h75v-75h-75zM0 400v75h75v-75h-75zM0 200v75h75v-75h-75zM200 400v75h75v-75h-75zM0 100v75h75v-75h-75zM300 400v75h75v-75h-75zM0 300v75h75v-75h-75zM400 100v75h75v-75h-75zM400 200v75
h75v-75h-75zM100 700v75h75v-75h-75zM200 600v75h75v-75h-75zM300 700v75h75v-75h-75z" />
    <glyph glyph-name="Omacron" unicode="&#x14c;" 
d="M100 825v75h75v-75h-75zM300 825v75h75v-75h-75zM200 825v75h75v-75h-75zM100 0v75h75v-75h-75zM200 0v75h75v-75h-75zM300 600v75h75v-75h-75zM400 300v75h75v-75h-75zM400 100v75h75v-75h-75zM400 400v75h75v-75h-75zM300 0v75h75v-75h-75zM100 600v75h75v-75h-75z
M400 500v75h75v-75h-75zM0 500v75h75v-75h-75zM0 400v75h75v-75h-75zM0 100v75h75v-75h-75zM0 200v75h75v-75h-75zM400 200v75h75v-75h-75zM0 300v75h75v-75h-75zM200 600v75h75v-75h-75z" />
    <glyph glyph-name="omacron" unicode="&#x14d;" 
d="M100 0v75h75v-75h-75zM400 300v75h75v-75h-75zM100 400v75h75v-75h-75zM400 200v75h75v-75h-75zM0 200v75h75v-75h-75zM200 400v75h75v-75h-75zM0 300v75h75v-75h-75zM300 400v75h75v-75h-75zM300 0v75h75v-75h-75zM0 100v75h75v-75h-75zM400 100v75h75v-75h-75zM200 0
v75h75v-75h-75zM100 600v75h75v-75h-75zM300 600v75h75v-75h-75zM200 600v75h75v-75h-75z" />
    <glyph glyph-name="Ohungarumlaut" unicode="&#x150;" 
d="M100 825v75h75v-75h-75zM300 825v75h75v-75h-75zM400 925v75h75v-75h-75zM200 925v75h75v-75h-75zM100 0v75h75v-75h-75zM200 0v75h75v-75h-75zM300 600v75h75v-75h-75zM400 300v75h75v-75h-75zM400 100v75h75v-75h-75zM400 400v75h75v-75h-75zM300 0v75h75v-75h-75z
M100 600v75h75v-75h-75zM400 500v75h75v-75h-75zM0 500v75h75v-75h-75zM0 400v75h75v-75h-75zM0 100v75h75v-75h-75zM0 200v75h75v-75h-75zM400 200v75h75v-75h-75zM0 300v75h75v-75h-75zM200 600v75h75v-75h-75z" />
    <glyph glyph-name="ohungarumlaut" unicode="&#x151;" 
d="M100 0v75h75v-75h-75zM400 300v75h75v-75h-75zM100 400v75h75v-75h-75zM400 200v75h75v-75h-75zM0 200v75h75v-75h-75zM200 400v75h75v-75h-75zM0 300v75h75v-75h-75zM300 400v75h75v-75h-75zM300 0v75h75v-75h-75zM0 100v75h75v-75h-75zM400 100v75h75v-75h-75zM200 0
v75h75v-75h-75zM100 600v75h75v-75h-75zM300 600v75h75v-75h-75zM400 700v75h75v-75h-75zM200 700v75h75v-75h-75z" />
    <glyph glyph-name="OE" unicode="&#x152;" 
d="M100 0v75h75v-75h-75zM0 300v75h75v-75h-75zM0 400v75h75v-75h-75zM400 0v75h75v-75h-75zM100 600v75h75v-75h-75zM0 200v75h75v-75h-75zM0 100v75h75v-75h-75zM200 200v75h75v-75h-75zM200 300v75h75v-75h-75zM300 0v75h75v-75h-75zM0 500v75h75v-75h-75zM200 100v75h75
v-75h-75zM300 300v75h75v-75h-75zM200 400v75h75v-75h-75zM300 600v75h75v-75h-75zM200 500v75h75v-75h-75zM200 600v75h75v-75h-75zM400 600v75h75v-75h-75zM200 0v75h75v-75h-75z" />
    <glyph glyph-name="oe" unicode="&#x153;" 
d="M100 0v75h75v-75h-75zM300 400v75h75v-75h-75zM0 200v75h75v-75h-75zM200 300v75h75v-75h-75zM400 300v75h75v-75h-75zM400 200v75h75v-75h-75zM300 0v75h75v-75h-75zM0 300v75h75v-75h-75zM300 200v75h75v-75h-75zM400 0v75h75v-75h-75zM0 100v75h75v-75h-75zM200 200
v75h75v-75h-75zM100 400v75h75v-75h-75zM200 100v75h75v-75h-75z" />
    <glyph glyph-name="Racute" unicode="&#x154;" 
d="M0 0v75h75v-75h-75zM300 600v75h75v-75h-75zM400 0v75h75v-75h-75zM0 100v75h75v-75h-75zM400 500v75h75v-75h-75zM200 600v75h75v-75h-75zM100 300v75h75v-75h-75zM100 600v75h75v-75h-75zM0 200v75h75v-75h-75zM0 300v75h75v-75h-75zM400 400v75h75v-75h-75zM300 200
v75h75v-75h-75zM400 100v75h75v-75h-75zM0 400v75h75v-75h-75zM200 300v75h75v-75h-75zM300 300v75h75v-75h-75zM0 500v75h75v-75h-75zM0 600v75h75v-75h-75zM200 825v75h75v-75h-75zM100 825v75h75v-75h-75zM300 925v75h75v-75h-75z" />
    <glyph glyph-name="racute" unicode="&#x155;" 
d="M100 0v75h75v-75h-75zM300 0v75h75v-75h-75zM100 100v75h75v-75h-75zM400 400v75h75v-75h-75zM200 300v75h75v-75h-75zM200 0v75h75v-75h-75zM100 400v75h75v-75h-75zM0 0v75h75v-75h-75zM300 400v75h75v-75h-75zM100 300v75h75v-75h-75zM100 200v75h75v-75h-75zM0 400
v75h75v-75h-75zM200 600v75h75v-75h-75zM100 600v75h75v-75h-75zM300 700v75h75v-75h-75z" />
    <glyph glyph-name="Rcommaaccent" unicode="&#x156;" 
d="M0 0v75h75v-75h-75zM300 600v75h75v-75h-75zM400 0v75h75v-75h-75zM0 100v75h75v-75h-75zM400 500v75h75v-75h-75zM200 600v75h75v-75h-75zM100 300v75h75v-75h-75zM100 600v75h75v-75h-75zM0 200v75h75v-75h-75zM0 300v75h75v-75h-75zM400 400v75h75v-75h-75zM300 200
v75h75v-75h-75zM400 100v75h75v-75h-75zM0 400v75h75v-75h-75zM200 300v75h75v-75h-75zM300 300v75h75v-75h-75zM0 500v75h75v-75h-75zM0 600v75h75v-75h-75zM200 -100v75h75v-75h-75zM100 -200v75h75v-75h-75z" />
    <glyph glyph-name="rcommaaccent" unicode="&#x157;" 
d="M100 0v75h75v-75h-75zM300 0v75h75v-75h-75zM100 100v75h75v-75h-75zM400 400v75h75v-75h-75zM200 300v75h75v-75h-75zM200 0v75h75v-75h-75zM100 400v75h75v-75h-75zM0 0v75h75v-75h-75zM300 400v75h75v-75h-75zM100 300v75h75v-75h-75zM100 200v75h75v-75h-75zM0 400
v75h75v-75h-75zM100 -100v75h75v-75h-75zM0 -200v75h75v-75h-75z" />
    <glyph glyph-name="Rcaron" unicode="&#x158;" 
d="M0 0v75h75v-75h-75zM300 600v75h75v-75h-75zM400 0v75h75v-75h-75zM0 100v75h75v-75h-75zM400 500v75h75v-75h-75zM200 600v75h75v-75h-75zM100 300v75h75v-75h-75zM100 600v75h75v-75h-75zM0 200v75h75v-75h-75zM0 300v75h75v-75h-75zM400 400v75h75v-75h-75zM300 200
v75h75v-75h-75zM400 100v75h75v-75h-75zM0 400v75h75v-75h-75zM200 300v75h75v-75h-75zM300 300v75h75v-75h-75zM0 500v75h75v-75h-75zM0 600v75h75v-75h-75zM100 925v75h75v-75h-75zM200 825v75h75v-75h-75zM300 925v75h75v-75h-75z" />
    <glyph glyph-name="rcaron" unicode="&#x159;" 
d="M100 0v75h75v-75h-75zM300 0v75h75v-75h-75zM100 100v75h75v-75h-75zM400 400v75h75v-75h-75zM200 300v75h75v-75h-75zM200 0v75h75v-75h-75zM100 400v75h75v-75h-75zM0 0v75h75v-75h-75zM300 400v75h75v-75h-75zM100 300v75h75v-75h-75zM100 200v75h75v-75h-75zM0 400
v75h75v-75h-75zM100 700v75h75v-75h-75zM200 600v75h75v-75h-75zM300 700v75h75v-75h-75z" />
    <glyph glyph-name="Sacute" unicode="&#x15a;" 
d="M0 0v75h75v-75h-75zM100 0v75h75v-75h-75zM400 600v75h75v-75h-75zM100 300v75h75v-75h-75zM400 200v75h75v-75h-75zM200 300v75h75v-75h-75zM400 100v75h75v-75h-75zM200 0v75h75v-75h-75zM200 600v75h75v-75h-75zM0 400v75h75v-75h-75zM300 600v75h75v-75h-75zM0 500
v75h75v-75h-75zM300 300v75h75v-75h-75zM300 0v75h75v-75h-75zM100 600v75h75v-75h-75zM300 825v75h75v-75h-75zM200 825v75h75v-75h-75zM400 925v75h75v-75h-75z" />
    <glyph glyph-name="sacute" unicode="&#x15b;" 
d="M0 0v75h75v-75h-75zM100 200v75h75v-75h-75zM400 400v75h75v-75h-75zM400 100v75h75v-75h-75zM300 400v75h75v-75h-75zM200 0v75h75v-75h-75zM200 200v75h75v-75h-75zM100 0v75h75v-75h-75zM200 400v75h75v-75h-75zM100 400v75h75v-75h-75zM0 300v75h75v-75h-75zM300 200
v75h75v-75h-75zM300 0v75h75v-75h-75zM300 600v75h75v-75h-75zM200 600v75h75v-75h-75zM400 700v75h75v-75h-75z" />
    <glyph glyph-name="Scedilla" unicode="&#x15e;" 
d="M0 0v75h75v-75h-75zM100 0v75h75v-75h-75zM400 600v75h75v-75h-75zM100 300v75h75v-75h-75zM400 200v75h75v-75h-75zM200 300v75h75v-75h-75zM400 100v75h75v-75h-75zM200 0v75h75v-75h-75zM200 600v75h75v-75h-75zM0 400v75h75v-75h-75zM300 600v75h75v-75h-75zM0 500
v75h75v-75h-75zM300 300v75h75v-75h-75zM300 0v75h75v-75h-75zM100 600v75h75v-75h-75zM200 -100v75h75v-75h-75zM100 -200v75h75v-75h-75z" />
    <glyph glyph-name="scedilla" unicode="&#x15f;" 
d="M0 0v75h75v-75h-75zM100 200v75h75v-75h-75zM400 400v75h75v-75h-75zM400 100v75h75v-75h-75zM300 400v75h75v-75h-75zM200 0v75h75v-75h-75zM200 200v75h75v-75h-75zM100 0v75h75v-75h-75zM200 400v75h75v-75h-75zM100 400v75h75v-75h-75zM0 300v75h75v-75h-75zM300 200
v75h75v-75h-75zM300 0v75h75v-75h-75zM200 -100v75h75v-75h-75zM100 -200v75h75v-75h-75z" />
    <glyph glyph-name="Scaron" unicode="&#x160;" 
d="M0 0v75h75v-75h-75zM100 0v75h75v-75h-75zM400 600v75h75v-75h-75zM100 300v75h75v-75h-75zM400 200v75h75v-75h-75zM200 300v75h75v-75h-75zM400 100v75h75v-75h-75zM200 0v75h75v-75h-75zM200 600v75h75v-75h-75zM0 400v75h75v-75h-75zM300 600v75h75v-75h-75zM0 500
v75h75v-75h-75zM300 300v75h75v-75h-75zM300 0v75h75v-75h-75zM100 600v75h75v-75h-75zM100 925v75h75v-75h-75zM200 825v75h75v-75h-75zM300 925v75h75v-75h-75z" />
    <glyph glyph-name="scaron" unicode="&#x161;" 
d="M0 0v75h75v-75h-75zM100 200v75h75v-75h-75zM400 400v75h75v-75h-75zM400 100v75h75v-75h-75zM300 400v75h75v-75h-75zM200 0v75h75v-75h-75zM200 200v75h75v-75h-75zM100 0v75h75v-75h-75zM200 400v75h75v-75h-75zM100 400v75h75v-75h-75zM0 300v75h75v-75h-75zM300 200
v75h75v-75h-75zM300 0v75h75v-75h-75zM100 700v75h75v-75h-75zM200 600v75h75v-75h-75zM300 700v75h75v-75h-75z" />
    <glyph glyph-name="Tcommaaccent" unicode="&#x162;" 
d="M200 0v75h75v-75h-75zM200 300v75h75v-75h-75zM400 600v75h75v-75h-75zM100 600v75h75v-75h-75zM0 600v75h75v-75h-75zM200 500v75h75v-75h-75zM300 600v75h75v-75h-75zM200 200v75h75v-75h-75zM200 400v75h75v-75h-75zM200 600v75h75v-75h-75zM200 100v75h75v-75h-75z
M200 -100v75h75v-75h-75zM100 -200v75h75v-75h-75z" />
    <glyph glyph-name="tcommaaccent" unicode="&#x163;" 
d="M300 0v75h75v-75h-75zM200 400v75h75v-75h-75zM200 500v75h75v-75h-75zM400 400v75h75v-75h-75zM300 400v75h75v-75h-75zM200 200v75h75v-75h-75zM100 400v75h75v-75h-75zM400 0v75h75v-75h-75zM200 300v75h75v-75h-75zM200 100v75h75v-75h-75zM0 400v75h75v-75h-75z
M200 -100v75h75v-75h-75zM100 -200v75h75v-75h-75z" />
    <glyph glyph-name="Tcaron" unicode="&#x164;" 
d="M200 0v75h75v-75h-75zM200 300v75h75v-75h-75zM400 600v75h75v-75h-75zM100 600v75h75v-75h-75zM0 600v75h75v-75h-75zM200 500v75h75v-75h-75zM300 600v75h75v-75h-75zM200 200v75h75v-75h-75zM200 400v75h75v-75h-75zM200 600v75h75v-75h-75zM200 100v75h75v-75h-75z
M100 925v75h75v-75h-75zM200 825v75h75v-75h-75zM300 925v75h75v-75h-75z" />
    <glyph glyph-name="tcaron" unicode="&#x165;" 
d="M200 0v75h75v-75h-75zM100 500v75h75v-75h-75zM300 400v75h75v-75h-75zM100 100v75h75v-75h-75zM400 500v75h75v-75h-75zM100 300v75h75v-75h-75zM100 200v75h75v-75h-75zM0 400v75h75v-75h-75zM400 600v75h75v-75h-75zM100 400v75h75v-75h-75z" />
    <glyph glyph-name="Umacron" unicode="&#x16a;" 
d="M100 0v75h75v-75h-75zM0 100v75h75v-75h-75zM400 600v75h75v-75h-75zM0 300v75h75v-75h-75zM200 0v75h75v-75h-75zM400 400v75h75v-75h-75zM300 0v75h75v-75h-75zM400 100v75h75v-75h-75zM400 500v75h75v-75h-75zM0 600v75h75v-75h-75zM0 200v75h75v-75h-75zM400 200v75
h75v-75h-75zM400 300v75h75v-75h-75zM0 500v75h75v-75h-75zM0 400v75h75v-75h-75zM100 825v75h75v-75h-75zM300 825v75h75v-75h-75zM200 825v75h75v-75h-75z" />
    <glyph glyph-name="umacron" unicode="&#x16b;" 
d="M100 0v75h75v-75h-75zM0 100v75h75v-75h-75zM400 400v75h75v-75h-75zM400 200v75h75v-75h-75zM400 100v75h75v-75h-75zM300 100v75h75v-75h-75zM400 300v75h75v-75h-75zM0 300v75h75v-75h-75zM0 200v75h75v-75h-75zM200 0v75h75v-75h-75zM400 0v75h75v-75h-75zM0 400v75
h75v-75h-75zM100 600v75h75v-75h-75zM300 600v75h75v-75h-75zM200 600v75h75v-75h-75z" />
    <glyph glyph-name="Uring" unicode="&#x16e;" 
d="M100 0v75h75v-75h-75zM0 100v75h75v-75h-75zM400 600v75h75v-75h-75zM0 300v75h75v-75h-75zM200 0v75h75v-75h-75zM400 400v75h75v-75h-75zM300 0v75h75v-75h-75zM400 100v75h75v-75h-75zM400 500v75h75v-75h-75zM0 600v75h75v-75h-75zM0 200v75h75v-75h-75zM400 200v75
h75v-75h-75zM400 300v75h75v-75h-75zM0 500v75h75v-75h-75zM0 400v75h75v-75h-75zM200 825v75h75v-75h-75zM300 925v75h75v-75h-75zM200 1025v75h75v-75h-75zM100 925v75h75v-75h-75z" />
    <glyph glyph-name="uring" unicode="&#x16f;" 
d="M100 0v75h75v-75h-75zM0 100v75h75v-75h-75zM400 400v75h75v-75h-75zM400 200v75h75v-75h-75zM400 100v75h75v-75h-75zM300 100v75h75v-75h-75zM400 300v75h75v-75h-75zM0 300v75h75v-75h-75zM0 200v75h75v-75h-75zM200 0v75h75v-75h-75zM400 0v75h75v-75h-75zM0 400v75
h75v-75h-75zM200 600v75h75v-75h-75zM300 700v75h75v-75h-75zM200 800v75h75v-75h-75zM100 700v75h75v-75h-75z" />
    <glyph glyph-name="Uhungarumlaut" unicode="&#x170;" 
d="M100 0v75h75v-75h-75zM0 100v75h75v-75h-75zM400 600v75h75v-75h-75zM0 300v75h75v-75h-75zM200 0v75h75v-75h-75zM400 400v75h75v-75h-75zM300 0v75h75v-75h-75zM400 100v75h75v-75h-75zM400 500v75h75v-75h-75zM0 600v75h75v-75h-75zM0 200v75h75v-75h-75zM400 200v75
h75v-75h-75zM400 300v75h75v-75h-75zM0 500v75h75v-75h-75zM0 400v75h75v-75h-75zM100 825v75h75v-75h-75zM300 825v75h75v-75h-75zM400 925v75h75v-75h-75zM200 925v75h75v-75h-75z" />
    <glyph glyph-name="uhungarumlaut" unicode="&#x171;" 
d="M100 0v75h75v-75h-75zM0 100v75h75v-75h-75zM400 400v75h75v-75h-75zM400 200v75h75v-75h-75zM400 100v75h75v-75h-75zM300 100v75h75v-75h-75zM400 300v75h75v-75h-75zM0 300v75h75v-75h-75zM0 200v75h75v-75h-75zM200 0v75h75v-75h-75zM400 0v75h75v-75h-75zM0 400v75
h75v-75h-75zM100 600v75h75v-75h-75zM300 600v75h75v-75h-75zM400 700v75h75v-75h-75zM200 700v75h75v-75h-75z" />
    <glyph glyph-name="Uogonek" unicode="&#x172;" 
d="M100 0v75h75v-75h-75zM0 100v75h75v-75h-75zM400 600v75h75v-75h-75zM0 300v75h75v-75h-75zM200 0v75h75v-75h-75zM400 400v75h75v-75h-75zM300 0v75h75v-75h-75zM400 100v75h75v-75h-75zM400 500v75h75v-75h-75zM0 600v75h75v-75h-75zM0 200v75h75v-75h-75zM400 200v75
h75v-75h-75zM400 300v75h75v-75h-75zM0 500v75h75v-75h-75zM0 400v75h75v-75h-75zM200 -100v75h75v-75h-75zM300 -200v75h75v-75h-75z" />
    <glyph glyph-name="uogonek" unicode="&#x173;" 
d="M100 0v75h75v-75h-75zM0 100v75h75v-75h-75zM400 400v75h75v-75h-75zM400 200v75h75v-75h-75zM400 100v75h75v-75h-75zM300 100v75h75v-75h-75zM400 300v75h75v-75h-75zM0 300v75h75v-75h-75zM0 200v75h75v-75h-75zM200 0v75h75v-75h-75zM400 0v75h75v-75h-75zM0 400v75
h75v-75h-75zM300 -100v75h75v-75h-75zM400 -200v75h75v-75h-75z" />
    <glyph glyph-name="Ydieresis" unicode="&#x178;" 
d="M200 0v75h75v-75h-75zM300 300v75h75v-75h-75zM200 100v75h75v-75h-75zM400 500v75h75v-75h-75zM400 400v75h75v-75h-75zM0 500v75h75v-75h-75zM400 600v75h75v-75h-75zM100 300v75h75v-75h-75zM0 400v75h75v-75h-75zM0 600v75h75v-75h-75zM200 200v75h75v-75h-75zM0 825
v75h75v-75h-75zM400 925v75h75v-75h-75zM0 925v75h75v-75h-75zM400 825v75h75v-75h-75z" />
    <glyph glyph-name="Zacute" unicode="&#x179;" 
d="M0 0v75h75v-75h-75zM300 600v75h75v-75h-75zM200 300v75h75v-75h-75zM100 200v75h75v-75h-75zM0 100v75h75v-75h-75zM100 600v75h75v-75h-75zM400 0v75h75v-75h-75zM200 0v75h75v-75h-75zM400 600v75h75v-75h-75zM300 400v75h75v-75h-75zM100 0v75h75v-75h-75zM0 600v75
h75v-75h-75zM200 600v75h75v-75h-75zM300 0v75h75v-75h-75zM400 500v75h75v-75h-75zM200 825v75h75v-75h-75zM100 825v75h75v-75h-75zM300 925v75h75v-75h-75z" />
    <glyph glyph-name="zacute" unicode="&#x17a;" 
d="M0 0v75h75v-75h-75zM100 100v75h75v-75h-75zM400 400v75h75v-75h-75zM400 0v75h75v-75h-75zM300 400v75h75v-75h-75zM200 0v75h75v-75h-75zM200 200v75h75v-75h-75zM100 0v75h75v-75h-75zM200 400v75h75v-75h-75zM100 400v75h75v-75h-75zM0 400v75h75v-75h-75zM300 300
v75h75v-75h-75zM300 0v75h75v-75h-75zM200 600v75h75v-75h-75zM100 600v75h75v-75h-75zM300 700v75h75v-75h-75z" />
    <glyph glyph-name="Zdotaccent" unicode="&#x17b;" 
d="M0 0v75h75v-75h-75zM300 600v75h75v-75h-75zM200 300v75h75v-75h-75zM100 200v75h75v-75h-75zM0 100v75h75v-75h-75zM100 600v75h75v-75h-75zM400 0v75h75v-75h-75zM200 0v75h75v-75h-75zM400 600v75h75v-75h-75zM300 400v75h75v-75h-75zM100 0v75h75v-75h-75zM0 600v75
h75v-75h-75zM200 600v75h75v-75h-75zM300 0v75h75v-75h-75zM400 500v75h75v-75h-75zM200 825v75h75v-75h-75z" />
    <glyph glyph-name="zdotaccent" unicode="&#x17c;" 
d="M0 0v75h75v-75h-75zM100 100v75h75v-75h-75zM400 400v75h75v-75h-75zM400 0v75h75v-75h-75zM300 400v75h75v-75h-75zM200 0v75h75v-75h-75zM200 200v75h75v-75h-75zM100 0v75h75v-75h-75zM200 400v75h75v-75h-75zM100 400v75h75v-75h-75zM0 400v75h75v-75h-75zM300 300
v75h75v-75h-75zM300 0v75h75v-75h-75zM200 600v75h75v-75h-75z" />
    <glyph glyph-name="Zcaron" unicode="&#x17d;" 
d="M0 0v75h75v-75h-75zM300 600v75h75v-75h-75zM200 300v75h75v-75h-75zM100 200v75h75v-75h-75zM0 100v75h75v-75h-75zM100 600v75h75v-75h-75zM400 0v75h75v-75h-75zM200 0v75h75v-75h-75zM400 600v75h75v-75h-75zM300 400v75h75v-75h-75zM100 0v75h75v-75h-75zM0 600v75
h75v-75h-75zM200 600v75h75v-75h-75zM300 0v75h75v-75h-75zM400 500v75h75v-75h-75zM100 925v75h75v-75h-75zM200 825v75h75v-75h-75zM300 925v75h75v-75h-75z" />
    <glyph glyph-name="zcaron" unicode="&#x17e;" 
d="M0 0v75h75v-75h-75zM100 100v75h75v-75h-75zM400 400v75h75v-75h-75zM400 0v75h75v-75h-75zM300 400v75h75v-75h-75zM200 0v75h75v-75h-75zM200 200v75h75v-75h-75zM100 0v75h75v-75h-75zM200 400v75h75v-75h-75zM100 400v75h75v-75h-75zM0 400v75h75v-75h-75zM300 300
v75h75v-75h-75zM300 0v75h75v-75h-75zM100 700v75h75v-75h-75zM200 600v75h75v-75h-75zM300 700v75h75v-75h-75z" />
    <glyph glyph-name="florin" unicode="&#x192;" 
d="M200 0v75h75v-75h-75zM300 400v75h75v-75h-75zM100 -200v75h75v-75h-75zM200 500v75h75v-75h-75zM200 400v75h75v-75h-75zM200 200v75h75v-75h-75zM300 600v75h75v-75h-75zM200 300v75h75v-75h-75zM200 -100v75h75v-75h-75zM100 400v75h75v-75h-75zM200 100v75h75v-75
h-75zM0 -200v75h75v-75h-75zM400 600v75h75v-75h-75zM400 400v75h75v-75h-75z" />
    <glyph glyph-name="Scommaaccent" unicode="&#x218;" 
d="M200 -100v75h75v-75h-75zM300 600v75h75v-75h-75zM200 600v75h75v-75h-75zM400 200v75h75v-75h-75zM0 500v75h75v-75h-75zM400 100v75h75v-75h-75zM200 0v75h75v-75h-75zM0 400v75h75v-75h-75zM100 0v75h75v-75h-75zM300 300v75h75v-75h-75zM100 600v75h75v-75h-75z
M200 300v75h75v-75h-75zM300 0v75h75v-75h-75zM100 -200v75h75v-75h-75zM100 300v75h75v-75h-75zM0 0v75h75v-75h-75zM400 600v75h75v-75h-75z" />
    <glyph glyph-name="scommaaccent" unicode="&#x219;" 
d="M0 0v75h75v-75h-75zM100 200v75h75v-75h-75zM400 400v75h75v-75h-75zM400 100v75h75v-75h-75zM300 400v75h75v-75h-75zM200 0v75h75v-75h-75zM200 200v75h75v-75h-75zM100 0v75h75v-75h-75zM200 400v75h75v-75h-75zM100 400v75h75v-75h-75zM0 300v75h75v-75h-75zM300 200
v75h75v-75h-75zM300 0v75h75v-75h-75zM200 -100v75h75v-75h-75zM100 -200v75h75v-75h-75z" />
    <glyph glyph-name="circumflex" unicode="&#x2c6;" 
d="M100 600v75h75v-75h-75zM300 600v75h75v-75h-75zM200 700v75h75v-75h-75z" />
    <glyph glyph-name="caron" unicode="&#x2c7;" 
d="M100 700v75h75v-75h-75zM200 600v75h75v-75h-75zM300 700v75h75v-75h-75z" />
    <glyph glyph-name="breve" unicode="&#x2d8;" 
d="M300 700v75h75v-75h-75zM200 600v75h75v-75h-75zM100 700v75h75v-75h-75z" />
    <glyph glyph-name="dotaccent" unicode="&#x2d9;" 
d="M200 600v75h75v-75h-75z" />
    <glyph glyph-name="ring" unicode="&#x2da;" 
d="M200 600v75h75v-75h-75zM300 700v75h75v-75h-75zM200 800v75h75v-75h-75zM100 700v75h75v-75h-75z" />
    <glyph glyph-name="ogonek" unicode="&#x2db;" 
d="M200 -100v75h75v-75h-75zM300 -200v75h75v-75h-75z" />
    <glyph glyph-name="tilde" unicode="&#x2dc;" 
d="M100 700v75h75v-75h-75zM300 600v75h75v-75h-75zM400 700v75h75v-75h-75zM200 600v75h75v-75h-75zM0 600v75h75v-75h-75z" />
    <glyph glyph-name="hungarumlaut" unicode="&#x2dd;" 
d="M100 600v75h75v-75h-75zM300 600v75h75v-75h-75zM400 700v75h75v-75h-75zM200 700v75h75v-75h-75z" />
    <glyph glyph-name="tonos" unicode="&#x384;" 
d="M0 600v75h75v-75h-75zM100 700v75h75v-75h-75z" />
    <glyph glyph-name="dieresistonos" unicode="&#x385;" 
d="M0 600v75h75v-75h-75zM200 700v75h75v-75h-75zM400 700v75h75v-75h-75zM0 700v75h75v-75h-75zM200 800v75h75v-75h-75zM400 600v75h75v-75h-75zM200 600v75h75v-75h-75z" />
    <glyph glyph-name="Alphatonos" unicode="&#x386;" 
d="M200 0v75h75v-75h-75zM400 100v75h75v-75h-75zM0 600v75h75v-75h-75zM400 400v75h75v-75h-75zM0 500v75h75v-75h-75zM400 0v75h75v-75h-75zM300 600v75h75v-75h-75zM0 400v75h75v-75h-75zM400 200v75h75v-75h-75zM400 500v75h75v-75h-75zM200 500v75h75v-75h-75zM200 200
v75h75v-75h-75zM300 200v75h75v-75h-75zM400 300v75h75v-75h-75zM200 100v75h75v-75h-75zM200 300v75h75v-75h-75zM200 400v75h75v-75h-75z" />
    <glyph glyph-name="Epsilontonos" unicode="&#x388;" 
d="M200 0v75h75v-75h-75zM200 300v75h75v-75h-75zM0 600v75h75v-75h-75zM300 300v75h75v-75h-75zM400 0v75h75v-75h-75zM200 400v75h75v-75h-75zM0 400v75h75v-75h-75zM400 600v75h75v-75h-75zM200 200v75h75v-75h-75zM300 0v75h75v-75h-75zM200 100v75h75v-75h-75zM0 500
v75h75v-75h-75zM200 500v75h75v-75h-75zM300 600v75h75v-75h-75zM200 600v75h75v-75h-75z" />
    <glyph glyph-name="Etatonos" unicode="&#x389;" 
d="M200 0v75h75v-75h-75zM200 600v75h75v-75h-75zM0 500v75h75v-75h-75zM200 500v75h75v-75h-75zM400 200v75h75v-75h-75zM400 400v75h75v-75h-75zM400 300v75h75v-75h-75zM0 400v75h75v-75h-75zM200 200v75h75v-75h-75zM200 300v75h75v-75h-75zM400 500v75h75v-75h-75z
M0 600v75h75v-75h-75zM200 400v75h75v-75h-75zM200 100v75h75v-75h-75zM400 0v75h75v-75h-75zM400 600v75h75v-75h-75zM300 300v75h75v-75h-75zM400 100v75h75v-75h-75z" />
    <glyph glyph-name="Iotatonos" unicode="&#x38a;" 
d="M200 0v75h75v-75h-75zM0 600v75h75v-75h-75zM200 600v75h75v-75h-75zM300 500v75h75v-75h-75zM300 400v75h75v-75h-75zM0 500v75h75v-75h-75zM400 600v75h75v-75h-75zM300 0v75h75v-75h-75zM300 300v75h75v-75h-75zM300 200v75h75v-75h-75zM400 0v75h75v-75h-75zM0 400
v75h75v-75h-75zM300 600v75h75v-75h-75zM300 100v75h75v-75h-75z" />
    <glyph glyph-name="Omicrontonos" unicode="&#x38c;" 
d="M300 0v75h75v-75h-75zM200 300v75h75v-75h-75zM0 600v75h75v-75h-75zM200 400v75h75v-75h-75zM400 100v75h75v-75h-75zM400 200v75h75v-75h-75zM400 300v75h75v-75h-75zM300 600v75h75v-75h-75zM0 400v75h75v-75h-75zM0 500v75h75v-75h-75zM200 100v75h75v-75h-75z
M400 500v75h75v-75h-75zM400 400v75h75v-75h-75zM200 200v75h75v-75h-75zM200 500v75h75v-75h-75z" />
    <glyph glyph-name="Upsilontonos" unicode="&#x38e;" 
d="M300 0v75h75v-75h-75zM0 600v75h75v-75h-75zM200 600v75h75v-75h-75zM400 400v75h75v-75h-75zM300 200v75h75v-75h-75zM300 300v75h75v-75h-75zM400 500v75h75v-75h-75zM0 500v75h75v-75h-75zM200 400v75h75v-75h-75zM200 500v75h75v-75h-75zM400 600v75h75v-75h-75z
M300 100v75h75v-75h-75zM0 400v75h75v-75h-75z" />
    <glyph glyph-name="Omegatonos" unicode="&#x38f;" 
d="M400 0v75h75v-75h-75zM300 600v75h75v-75h-75zM200 500v75h75v-75h-75zM400 500v75h75v-75h-75zM400 300v75h75v-75h-75zM0 400v75h75v-75h-75zM400 400v75h75v-75h-75zM200 0v75h75v-75h-75zM300 200v75h75v-75h-75zM0 500v75h75v-75h-75zM200 400v75h75v-75h-75z
M200 300v75h75v-75h-75zM300 0v75h75v-75h-75zM0 600v75h75v-75h-75z" />
    <glyph glyph-name="iotadieresistonos" unicode="&#x390;" 
d="M200 0v75h75v-75h-75zM200 100v75h75v-75h-75zM0 0v75h75v-75h-75zM0 400v75h75v-75h-75zM200 300v75h75v-75h-75zM200 400v75h75v-75h-75zM300 0v75h75v-75h-75zM400 0v75h75v-75h-75zM200 200v75h75v-75h-75zM100 400v75h75v-75h-75zM100 0v75h75v-75h-75zM0 600v75h75
v-75h-75zM200 700v75h75v-75h-75zM400 700v75h75v-75h-75zM0 700v75h75v-75h-75zM200 800v75h75v-75h-75zM400 600v75h75v-75h-75zM200 600v75h75v-75h-75z" />
    <glyph glyph-name="Alpha" unicode="&#x391;" 
d="M0 0v75h75v-75h-75zM300 200v75h75v-75h-75zM0 500v75h75v-75h-75zM400 200v75h75v-75h-75zM400 300v75h75v-75h-75zM200 200v75h75v-75h-75zM400 400v75h75v-75h-75zM100 200v75h75v-75h-75zM100 600v75h75v-75h-75zM0 300v75h75v-75h-75zM400 500v75h75v-75h-75z
M200 600v75h75v-75h-75zM0 400v75h75v-75h-75zM400 0v75h75v-75h-75zM400 100v75h75v-75h-75zM0 200v75h75v-75h-75zM300 600v75h75v-75h-75zM0 100v75h75v-75h-75z" />
    <glyph glyph-name="Beta" unicode="&#x392;" 
d="M0 0v75h75v-75h-75zM300 600v75h75v-75h-75zM400 200v75h75v-75h-75zM400 400v75h75v-75h-75zM0 300v75h75v-75h-75zM300 0v75h75v-75h-75zM0 500v75h75v-75h-75zM300 300v75h75v-75h-75zM100 600v75h75v-75h-75zM0 600v75h75v-75h-75zM0 200v75h75v-75h-75zM200 0v75h75
v-75h-75zM400 500v75h75v-75h-75zM100 0v75h75v-75h-75zM200 600v75h75v-75h-75zM100 300v75h75v-75h-75zM0 400v75h75v-75h-75zM200 300v75h75v-75h-75zM0 100v75h75v-75h-75zM400 100v75h75v-75h-75z" />
    <glyph glyph-name="Gamma" unicode="&#x393;" 
d="M0 0v75h75v-75h-75zM100 600v75h75v-75h-75zM400 600v75h75v-75h-75zM0 100v75h75v-75h-75zM0 300v75h75v-75h-75zM200 600v75h75v-75h-75zM0 600v75h75v-75h-75zM300 600v75h75v-75h-75zM0 400v75h75v-75h-75zM0 200v75h75v-75h-75zM0 500v75h75v-75h-75z" />
    <glyph glyph-name="uni0394" unicode="&#x394;" 
d="M0 0v75h75v-75h-75zM0 100v75h75v-75h-75zM300 600v75h75v-75h-75zM0 200v75h75v-75h-75zM400 100v75h75v-75h-75zM400 0v75h75v-75h-75zM0 400v75h75v-75h-75zM200 600v75h75v-75h-75zM400 500v75h75v-75h-75zM0 300v75h75v-75h-75zM100 600v75h75v-75h-75zM100 0v75h75
v-75h-75zM400 400v75h75v-75h-75zM200 0v75h75v-75h-75zM400 300v75h75v-75h-75zM400 200v75h75v-75h-75zM0 500v75h75v-75h-75zM300 0v75h75v-75h-75z" />
    <glyph glyph-name="Epsilon" unicode="&#x395;" 
d="M0 0v75h75v-75h-75zM0 300v75h75v-75h-75zM0 500v75h75v-75h-75zM200 0v75h75v-75h-75zM400 600v75h75v-75h-75zM0 200v75h75v-75h-75zM0 100v75h75v-75h-75zM200 600v75h75v-75h-75zM100 600v75h75v-75h-75zM300 600v75h75v-75h-75zM0 400v75h75v-75h-75zM300 300v75h75
v-75h-75zM100 0v75h75v-75h-75zM400 0v75h75v-75h-75zM100 300v75h75v-75h-75zM200 300v75h75v-75h-75zM300 0v75h75v-75h-75zM0 600v75h75v-75h-75z" />
    <glyph glyph-name="Zeta" unicode="&#x396;" 
d="M0 0v75h75v-75h-75zM300 600v75h75v-75h-75zM200 300v75h75v-75h-75zM100 200v75h75v-75h-75zM0 100v75h75v-75h-75zM100 600v75h75v-75h-75zM400 0v75h75v-75h-75zM200 0v75h75v-75h-75zM400 600v75h75v-75h-75zM300 400v75h75v-75h-75zM100 0v75h75v-75h-75zM0 600v75
h75v-75h-75zM200 600v75h75v-75h-75zM300 0v75h75v-75h-75zM400 500v75h75v-75h-75z" />
    <glyph glyph-name="Eta" unicode="&#x397;" 
d="M0 0v75h75v-75h-75zM400 200v75h75v-75h-75zM300 300v75h75v-75h-75zM400 400v75h75v-75h-75zM200 300v75h75v-75h-75zM400 300v75h75v-75h-75zM0 600v75h75v-75h-75zM100 300v75h75v-75h-75zM400 100v75h75v-75h-75zM400 500v75h75v-75h-75zM0 500v75h75v-75h-75zM400 0
v75h75v-75h-75zM400 600v75h75v-75h-75zM0 200v75h75v-75h-75zM0 100v75h75v-75h-75zM0 300v75h75v-75h-75zM0 400v75h75v-75h-75z" />
    <glyph glyph-name="Theta" unicode="&#x398;" 
d="M100 0v75h75v-75h-75zM100 600v75h75v-75h-75zM300 300v75h75v-75h-75zM400 100v75h75v-75h-75zM200 0v75h75v-75h-75zM0 100v75h75v-75h-75zM200 600v75h75v-75h-75zM200 300v75h75v-75h-75zM0 400v75h75v-75h-75zM0 300v75h75v-75h-75zM400 300v75h75v-75h-75zM400 500
v75h75v-75h-75zM400 400v75h75v-75h-75zM300 600v75h75v-75h-75zM300 0v75h75v-75h-75zM400 200v75h75v-75h-75zM0 200v75h75v-75h-75zM100 300v75h75v-75h-75zM0 500v75h75v-75h-75z" />
    <glyph glyph-name="Iota" unicode="&#x399;" 
d="M100 0v75h75v-75h-75zM200 0v75h75v-75h-75zM400 600v75h75v-75h-75zM200 300v75h75v-75h-75zM200 200v75h75v-75h-75zM200 400v75h75v-75h-75zM0 0v75h75v-75h-75zM0 600v75h75v-75h-75zM300 600v75h75v-75h-75zM400 0v75h75v-75h-75zM200 100v75h75v-75h-75zM300 0v75
h75v-75h-75zM200 500v75h75v-75h-75zM200 600v75h75v-75h-75zM100 600v75h75v-75h-75z" />
    <glyph glyph-name="Kappa" unicode="&#x39a;" 
d="M0 0v75h75v-75h-75zM100 300v75h75v-75h-75zM0 100v75h75v-75h-75zM0 200v75h75v-75h-75zM400 500v75h75v-75h-75zM300 400v75h75v-75h-75zM0 600v75h75v-75h-75zM300 200v75h75v-75h-75zM0 300v75h75v-75h-75zM400 600v75h75v-75h-75zM200 300v75h75v-75h-75zM400 100
v75h75v-75h-75zM0 500v75h75v-75h-75zM0 400v75h75v-75h-75zM400 0v75h75v-75h-75z" />
    <glyph glyph-name="Lambda" unicode="&#x39b;" 
d="M0 0v75h75v-75h-75zM400 200v75h75v-75h-75zM300 600v75h75v-75h-75zM0 300v75h75v-75h-75zM400 400v75h75v-75h-75zM400 300v75h75v-75h-75zM100 600v75h75v-75h-75zM400 500v75h75v-75h-75zM0 200v75h75v-75h-75zM0 100v75h75v-75h-75zM400 100v75h75v-75h-75zM0 500
v75h75v-75h-75zM0 400v75h75v-75h-75zM400 0v75h75v-75h-75zM200 600v75h75v-75h-75z" />
    <glyph glyph-name="Mu" unicode="&#x39c;" 
d="M0 0v75h75v-75h-75zM0 300v75h75v-75h-75zM400 600v75h75v-75h-75zM400 400v75h75v-75h-75zM400 500v75h75v-75h-75zM0 500v75h75v-75h-75zM300 500v75h75v-75h-75zM100 400v75h75v-75h-75zM400 0v75h75v-75h-75zM400 300v75h75v-75h-75zM0 100v75h75v-75h-75zM400 200
v75h75v-75h-75zM0 400v75h75v-75h-75zM200 200v75h75v-75h-75zM300 400v75h75v-75h-75zM0 200v75h75v-75h-75zM0 600v75h75v-75h-75zM200 300v75h75v-75h-75zM100 500v75h75v-75h-75zM400 100v75h75v-75h-75z" />
    <glyph glyph-name="Nu" unicode="&#x39d;" 
d="M0 0v75h75v-75h-75zM400 100v75h75v-75h-75zM0 600v75h75v-75h-75zM300 200v75h75v-75h-75zM0 500v75h75v-75h-75zM400 200v75h75v-75h-75zM400 300v75h75v-75h-75zM400 500v75h75v-75h-75zM0 300v75h75v-75h-75zM0 200v75h75v-75h-75zM200 400v75h75v-75h-75zM0 400v75
h75v-75h-75zM0 100v75h75v-75h-75zM400 0v75h75v-75h-75zM200 300v75h75v-75h-75zM400 600v75h75v-75h-75zM100 500v75h75v-75h-75zM400 400v75h75v-75h-75z" />
    <glyph glyph-name="Xi" unicode="&#x39e;" 
d="M0 0v75h75v-75h-75zM200 100v75h75v-75h-75zM100 300v75h75v-75h-75zM300 300v75h75v-75h-75zM300 0v75h75v-75h-75zM100 0v75h75v-75h-75zM0 600v75h75v-75h-75zM400 0v75h75v-75h-75zM300 600v75h75v-75h-75zM200 500v75h75v-75h-75zM200 400v75h75v-75h-75zM200 200
v75h75v-75h-75zM100 600v75h75v-75h-75zM200 600v75h75v-75h-75zM400 600v75h75v-75h-75zM200 0v75h75v-75h-75zM200 300v75h75v-75h-75z" />
    <glyph glyph-name="Omicron" unicode="&#x39f;" 
d="M100 0v75h75v-75h-75zM200 0v75h75v-75h-75zM300 600v75h75v-75h-75zM400 300v75h75v-75h-75zM400 100v75h75v-75h-75zM400 400v75h75v-75h-75zM300 0v75h75v-75h-75zM100 600v75h75v-75h-75zM400 500v75h75v-75h-75zM0 500v75h75v-75h-75zM0 400v75h75v-75h-75zM0 100
v75h75v-75h-75zM0 200v75h75v-75h-75zM400 200v75h75v-75h-75zM0 300v75h75v-75h-75zM200 600v75h75v-75h-75z" />
    <glyph glyph-name="Pi" unicode="&#x3a0;" 
d="M0 0v75h75v-75h-75zM400 200v75h75v-75h-75zM400 600v75h75v-75h-75zM400 400v75h75v-75h-75zM400 0v75h75v-75h-75zM0 600v75h75v-75h-75zM300 600v75h75v-75h-75zM200 600v75h75v-75h-75zM400 100v75h75v-75h-75zM400 500v75h75v-75h-75zM0 500v75h75v-75h-75zM400 300
v75h75v-75h-75zM100 600v75h75v-75h-75zM0 200v75h75v-75h-75zM0 100v75h75v-75h-75zM0 300v75h75v-75h-75zM0 400v75h75v-75h-75z" />
    <glyph glyph-name="Rho" unicode="&#x3a1;" 
d="M0 0v75h75v-75h-75zM300 600v75h75v-75h-75zM400 400v75h75v-75h-75zM0 400v75h75v-75h-75zM100 600v75h75v-75h-75zM0 500v75h75v-75h-75zM0 200v75h75v-75h-75zM200 200v75h75v-75h-75zM0 600v75h75v-75h-75zM400 500v75h75v-75h-75zM100 200v75h75v-75h-75zM0 300v75
h75v-75h-75zM400 300v75h75v-75h-75zM200 600v75h75v-75h-75zM0 100v75h75v-75h-75zM300 200v75h75v-75h-75z" />
    <glyph glyph-name="Sigma" unicode="&#x3a3;" 
d="M0 0v75h75v-75h-75zM100 0v75h75v-75h-75zM400 600v75h75v-75h-75zM100 200v75h75v-75h-75zM0 100v75h75v-75h-75zM200 300v75h75v-75h-75zM400 0v75h75v-75h-75zM200 0v75h75v-75h-75zM200 600v75h75v-75h-75zM0 500v75h75v-75h-75zM300 600v75h75v-75h-75zM0 600v75h75
v-75h-75zM100 400v75h75v-75h-75zM300 0v75h75v-75h-75zM100 600v75h75v-75h-75z" />
    <glyph glyph-name="Tau" unicode="&#x3a4;" 
d="M200 0v75h75v-75h-75zM200 300v75h75v-75h-75zM400 600v75h75v-75h-75zM100 600v75h75v-75h-75zM0 600v75h75v-75h-75zM200 500v75h75v-75h-75zM300 600v75h75v-75h-75zM200 200v75h75v-75h-75zM200 400v75h75v-75h-75zM200 600v75h75v-75h-75zM200 100v75h75v-75h-75z
" />
    <glyph glyph-name="Upsilon" unicode="&#x3a5;" 
d="M200 0v75h75v-75h-75zM300 300v75h75v-75h-75zM200 100v75h75v-75h-75zM400 500v75h75v-75h-75zM400 400v75h75v-75h-75zM0 500v75h75v-75h-75zM400 600v75h75v-75h-75zM100 300v75h75v-75h-75zM0 400v75h75v-75h-75zM0 600v75h75v-75h-75zM200 200v75h75v-75h-75z" />
    <glyph glyph-name="Phi" unicode="&#x3a6;" 
d="M200 0v75h75v-75h-75zM200 200v75h75v-75h-75zM200 600v75h75v-75h-75zM400 300v75h75v-75h-75zM200 400v75h75v-75h-75zM300 500v75h75v-75h-75zM400 200v75h75v-75h-75zM400 400v75h75v-75h-75zM100 100v75h75v-75h-75zM0 300v75h75v-75h-75zM0 400v75h75v-75h-75z
M100 500v75h75v-75h-75zM300 100v75h75v-75h-75zM0 200v75h75v-75h-75zM200 300v75h75v-75h-75zM200 100v75h75v-75h-75zM200 500v75h75v-75h-75z" />
    <glyph glyph-name="Chi" unicode="&#x3a7;" 
d="M0 0v75h75v-75h-75zM0 500v75h75v-75h-75zM400 100v75h75v-75h-75zM100 200v75h75v-75h-75zM400 500v75h75v-75h-75zM0 600v75h75v-75h-75zM100 400v75h75v-75h-75zM300 200v75h75v-75h-75zM400 600v75h75v-75h-75zM0 100v75h75v-75h-75zM300 400v75h75v-75h-75zM400 0
v75h75v-75h-75zM200 300v75h75v-75h-75z" />
    <glyph glyph-name="Psi" unicode="&#x3a8;" 
d="M200 0v75h75v-75h-75zM200 600v75h75v-75h-75zM300 200v75h75v-75h-75zM400 400v75h75v-75h-75zM200 400v75h75v-75h-75zM200 200v75h75v-75h-75zM400 500v75h75v-75h-75zM200 500v75h75v-75h-75zM400 600v75h75v-75h-75zM0 400v75h75v-75h-75zM0 500v75h75v-75h-75z
M100 200v75h75v-75h-75zM0 600v75h75v-75h-75zM0 300v75h75v-75h-75zM200 300v75h75v-75h-75zM400 300v75h75v-75h-75zM200 100v75h75v-75h-75z" />
    <glyph glyph-name="uni03A9" unicode="&#x3a9;" 
d="M400 0v75h75v-75h-75zM300 600v75h75v-75h-75zM0 400v75h75v-75h-75zM100 200v75h75v-75h-75zM400 400v75h75v-75h-75zM0 500v75h75v-75h-75zM0 300v75h75v-75h-75zM200 200v75h75v-75h-75zM200 600v75h75v-75h-75zM300 200v75h75v-75h-75zM300 0v75h75v-75h-75zM400 500
v75h75v-75h-75zM0 0v75h75v-75h-75zM200 0v75h75v-75h-75zM100 600v75h75v-75h-75zM100 0v75h75v-75h-75zM400 300v75h75v-75h-75z" />
    <glyph glyph-name="Iotadieresis" unicode="&#x3aa;" 
d="M100 0v75h75v-75h-75zM200 0v75h75v-75h-75zM400 600v75h75v-75h-75zM200 300v75h75v-75h-75zM200 200v75h75v-75h-75zM200 400v75h75v-75h-75zM0 0v75h75v-75h-75zM0 600v75h75v-75h-75zM300 600v75h75v-75h-75zM400 0v75h75v-75h-75zM200 100v75h75v-75h-75zM300 0v75
h75v-75h-75zM200 500v75h75v-75h-75zM200 600v75h75v-75h-75zM100 600v75h75v-75h-75zM0 825v75h75v-75h-75zM400 925v75h75v-75h-75zM0 925v75h75v-75h-75zM400 825v75h75v-75h-75z" />
    <glyph glyph-name="Upsilondieresis" unicode="&#x3ab;" 
d="M200 0v75h75v-75h-75zM300 300v75h75v-75h-75zM200 100v75h75v-75h-75zM400 500v75h75v-75h-75zM400 400v75h75v-75h-75zM0 500v75h75v-75h-75zM400 600v75h75v-75h-75zM100 300v75h75v-75h-75zM0 400v75h75v-75h-75zM0 600v75h75v-75h-75zM200 200v75h75v-75h-75zM0 825
v75h75v-75h-75zM400 925v75h75v-75h-75zM0 925v75h75v-75h-75zM400 825v75h75v-75h-75z" />
    <glyph glyph-name="alphatonos" unicode="&#x3ac;" 
d="M100 0v75h75v-75h-75zM400 100v75h75v-75h-75zM400 400v75h75v-75h-75zM0 300v75h75v-75h-75zM400 200v75h75v-75h-75zM400 0v75h75v-75h-75zM300 300v75h75v-75h-75zM200 400v75h75v-75h-75zM200 0v75h75v-75h-75zM100 400v75h75v-75h-75zM0 200v75h75v-75h-75zM300 100
v75h75v-75h-75zM400 300v75h75v-75h-75zM0 100v75h75v-75h-75zM200 600v75h75v-75h-75zM300 700v75h75v-75h-75z" />
    <glyph glyph-name="epsilontonos" unicode="&#x3ad;" 
d="M100 0v75h75v-75h-75zM400 400v75h75v-75h-75zM400 0v75h75v-75h-75zM0 100v75h75v-75h-75zM300 200v75h75v-75h-75zM100 400v75h75v-75h-75zM200 200v75h75v-75h-75zM300 400v75h75v-75h-75zM200 0v75h75v-75h-75zM200 400v75h75v-75h-75zM0 300v75h75v-75h-75zM300 0
v75h75v-75h-75zM100 200v75h75v-75h-75zM200 600v75h75v-75h-75zM300 700v75h75v-75h-75z" />
    <glyph glyph-name="etatonos" unicode="&#x3ae;" 
d="M0 0v75h75v-75h-75zM200 400v75h75v-75h-75zM400 -100v75h75v-75h-75zM100 300v75h75v-75h-75zM400 200v75h75v-75h-75zM0 100v75h75v-75h-75zM400 300v75h75v-75h-75zM400 100v75h75v-75h-75zM0 300v75h75v-75h-75zM300 400v75h75v-75h-75zM400 -200v75h75v-75h-75z
M0 200v75h75v-75h-75zM0 400v75h75v-75h-75zM400 0v75h75v-75h-75zM200 600v75h75v-75h-75zM300 700v75h75v-75h-75z" />
    <glyph glyph-name="iotatonos" unicode="&#x3af;" 
d="M200 0v75h75v-75h-75zM200 100v75h75v-75h-75zM0 0v75h75v-75h-75zM0 400v75h75v-75h-75zM200 300v75h75v-75h-75zM200 400v75h75v-75h-75zM300 0v75h75v-75h-75zM400 0v75h75v-75h-75zM200 200v75h75v-75h-75zM100 400v75h75v-75h-75zM100 0v75h75v-75h-75zM200 600v75
h75v-75h-75zM300 700v75h75v-75h-75z" />
    <glyph glyph-name="upsilondieresistonos" unicode="&#x3b0;" 
d="M100 0v75h75v-75h-75zM0 400v75h75v-75h-75zM400 400v75h75v-75h-75zM0 300v75h75v-75h-75zM0 200v75h75v-75h-75zM200 0v75h75v-75h-75zM300 0v75h75v-75h-75zM0 100v75h75v-75h-75zM400 300v75h75v-75h-75zM400 100v75h75v-75h-75zM400 200v75h75v-75h-75zM0 600v75h75
v-75h-75zM200 700v75h75v-75h-75zM400 700v75h75v-75h-75zM0 700v75h75v-75h-75zM200 800v75h75v-75h-75zM400 600v75h75v-75h-75zM200 600v75h75v-75h-75z" />
    <glyph glyph-name="alpha" unicode="&#x3b1;" 
d="M100 0v75h75v-75h-75zM400 100v75h75v-75h-75zM400 400v75h75v-75h-75zM0 300v75h75v-75h-75zM400 200v75h75v-75h-75zM400 0v75h75v-75h-75zM300 300v75h75v-75h-75zM200 400v75h75v-75h-75zM200 0v75h75v-75h-75zM100 400v75h75v-75h-75zM0 200v75h75v-75h-75zM300 100
v75h75v-75h-75zM400 300v75h75v-75h-75zM0 100v75h75v-75h-75z" />
    <glyph glyph-name="beta" unicode="&#x3b2;" 
d="M0 0v75h75v-75h-75zM400 200v75h75v-75h-75zM0 -100v75h75v-75h-75zM0 500v75h75v-75h-75zM0 300v75h75v-75h-75zM0 100v75h75v-75h-75zM400 500v75h75v-75h-75zM0 400v75h75v-75h-75zM300 600v75h75v-75h-75zM200 600v75h75v-75h-75zM0 200v75h75v-75h-75zM300 0v75h75
v-75h-75zM100 600v75h75v-75h-75zM0 -200v75h75v-75h-75zM200 0v75h75v-75h-75zM200 300v75h75v-75h-75zM400 400v75h75v-75h-75zM300 300v75h75v-75h-75zM100 0v75h75v-75h-75zM400 100v75h75v-75h-75z" />
    <glyph glyph-name="gamma" unicode="&#x3b3;" 
d="M200 0v75h75v-75h-75zM100 200v75h75v-75h-75zM200 -100v75h75v-75h-75zM0 400v75h75v-75h-75zM400 300v75h75v-75h-75zM0 300v75h75v-75h-75zM200 -200v75h75v-75h-75zM300 100v75h75v-75h-75zM400 200v75h75v-75h-75zM400 400v75h75v-75h-75zM100 100v75h75v-75h-75z
" />
    <glyph glyph-name="delta" unicode="&#x3b4;" 
d="M100 0v75h75v-75h-75zM-1 500v75h75v-75h-75zM0 300v75h75v-75h-75zM200 600v75h75v-75h-75zM400 100v75h75v-75h-75zM300 600v75h75v-75h-75zM300 0v75h75v-75h-75zM99 400v75h75v-75h-75zM199 400v75h75v-75h-75zM400 200v75h75v-75h-75zM0 200v75h75v-75h-75zM0 100
v75h75v-75h-75zM300 400v75h75v-75h-75zM100 600v75h75v-75h-75zM200 0v75h75v-75h-75zM400 300v75h75v-75h-75z" />
    <glyph glyph-name="epsilon" unicode="&#x3b5;" 
d="M100 0v75h75v-75h-75zM400 400v75h75v-75h-75zM400 0v75h75v-75h-75zM0 100v75h75v-75h-75zM300 200v75h75v-75h-75zM100 400v75h75v-75h-75zM200 200v75h75v-75h-75zM300 400v75h75v-75h-75zM200 0v75h75v-75h-75zM200 400v75h75v-75h-75zM0 300v75h75v-75h-75zM300 0
v75h75v-75h-75zM100 200v75h75v-75h-75z" />
    <glyph glyph-name="zeta" unicode="&#x3b6;" 
d="M300 0v75h75v-75h-75zM200 0v75h75v-75h-75zM100 0v75h75v-75h-75zM0 200v75h75v-75h-75zM300 400v75h75v-75h-75zM200 600v75h75v-75h-75zM290 -200v75h75v-75h-75zM400 0v75h75v-75h-75zM0 100v75h75v-75h-75zM400 -100v75h75v-75h-75zM300 600v75h75v-75h-75zM0 300
v75h75v-75h-75zM100 400v75h75v-75h-75zM400 500v75h75v-75h-75zM100 600v75h75v-75h-75zM200 400v75h75v-75h-75z" />
    <glyph glyph-name="eta" unicode="&#x3b7;" 
d="M0 0v75h75v-75h-75zM200 400v75h75v-75h-75zM400 -100v75h75v-75h-75zM100 300v75h75v-75h-75zM400 200v75h75v-75h-75zM0 100v75h75v-75h-75zM400 300v75h75v-75h-75zM400 100v75h75v-75h-75zM0 300v75h75v-75h-75zM300 400v75h75v-75h-75zM400 -200v75h75v-75h-75z
M0 200v75h75v-75h-75zM0 400v75h75v-75h-75zM400 0v75h75v-75h-75z" />
    <glyph glyph-name="theta" unicode="&#x3b8;" 
d="M200 0v75h75v-75h-75zM300 500v75h75v-75h-75zM0 300v75h75v-75h-75zM300 400v75h75v-75h-75zM200 300v75h75v-75h-75zM100 400v75h75v-75h-75zM100 300v75h75v-75h-75zM200 600v75h75v-75h-75zM100 100v75h75v-75h-75zM100 200v75h75v-75h-75zM400 300v75h75v-75h-75z
M300 100v75h75v-75h-75zM300 300v75h75v-75h-75zM300 200v75h75v-75h-75zM100 500v75h75v-75h-75z" />
    <glyph glyph-name="iota" unicode="&#x3b9;" 
d="M200 0v75h75v-75h-75zM200 100v75h75v-75h-75zM0 0v75h75v-75h-75zM0 400v75h75v-75h-75zM200 300v75h75v-75h-75zM200 400v75h75v-75h-75zM300 0v75h75v-75h-75zM400 0v75h75v-75h-75zM200 200v75h75v-75h-75zM100 400v75h75v-75h-75zM100 0v75h75v-75h-75z" />
    <glyph glyph-name="kappa" unicode="&#x3ba;" 
d="M0 0v75h75v-75h-75zM300 100v75h75v-75h-75zM400 400v75h75v-75h-75zM0 300v75h75v-75h-75zM200 200v75h75v-75h-75zM100 200v75h75v-75h-75zM400 0v75h75v-75h-75zM0 100v75h75v-75h-75zM0 200v75h75v-75h-75zM300 300v75h75v-75h-75zM0 400v75h75v-75h-75z" />
    <glyph glyph-name="lambda" unicode="&#x3bb;" 
d="M0 0v75h75v-75h-75zM400 200v75h75v-75h-75zM400 400v75h75v-75h-75zM0 100v75h75v-75h-75zM200 600v75h75v-75h-75zM300 400v75h75v-75h-75zM100 400v75h75v-75h-75zM0 200v75h75v-75h-75zM300 600v75h75v-75h-75zM400 500v75h75v-75h-75zM200 400v75h75v-75h-75zM0 300
v75h75v-75h-75zM400 100v75h75v-75h-75zM400 0v75h75v-75h-75zM100 600v75h75v-75h-75zM400 300v75h75v-75h-75z" />
    <glyph glyph-name="uni03BC" unicode="&#x3bc;" 
d="M0 0v75h75v-75h-75zM200 0v75h75v-75h-75zM0 -200v75h75v-75h-75zM400 200v75h75v-75h-75zM400 100v75h75v-75h-75zM100 0v75h75v-75h-75zM400 0v75h75v-75h-75zM0 100v75h75v-75h-75zM400 400v75h75v-75h-75zM300 100v75h75v-75h-75zM400 300v75h75v-75h-75zM0 300v75
h75v-75h-75zM0 200v75h75v-75h-75zM0 -100v75h75v-75h-75zM0 400v75h75v-75h-75z" />
    <glyph glyph-name="nu" unicode="&#x3bd;" 
d="M200 0v75h75v-75h-75zM400 400v75h75v-75h-75zM0 400v75h75v-75h-75zM100 100v75h75v-75h-75zM100 200v75h75v-75h-75zM300 100v75h75v-75h-75zM400 200v75h75v-75h-75zM400 300v75h75v-75h-75zM0 300v75h75v-75h-75z" />
    <glyph glyph-name="xi" unicode="&#x3be;" 
d="M200 0v75h75v-75h-75zM400 0v75h75v-75h-75zM0 500v75h75v-75h-75zM400 -100v75h75v-75h-75zM200 600v75h75v-75h-75zM400 600v75h75v-75h-75zM300 0v75h75v-75h-75zM300 300v75h75v-75h-75zM0 100v75h75v-75h-75zM300 600v75h75v-75h-75zM100 0v75h75v-75h-75zM100 300
v75h75v-75h-75zM0 400v75h75v-75h-75zM200 300v75h75v-75h-75zM300 -200v75h75v-75h-75zM100 600v75h75v-75h-75zM0 200v75h75v-75h-75z" />
    <glyph glyph-name="omicron" unicode="&#x3bf;" 
d="M100 0v75h75v-75h-75zM400 300v75h75v-75h-75zM100 400v75h75v-75h-75zM400 200v75h75v-75h-75zM0 200v75h75v-75h-75zM200 400v75h75v-75h-75zM0 300v75h75v-75h-75zM300 400v75h75v-75h-75zM300 0v75h75v-75h-75zM0 100v75h75v-75h-75zM400 100v75h75v-75h-75zM200 0
v75h75v-75h-75z" />
    <glyph glyph-name="pi" unicode="&#x3c0;" 
d="M0 0v75h75v-75h-75zM400 100v75h75v-75h-75zM400 400v75h75v-75h-75zM0 200v75h75v-75h-75zM300 400v75h75v-75h-75zM0 400v75h75v-75h-75zM0 300v75h75v-75h-75zM100 400v75h75v-75h-75zM400 0v75h75v-75h-75zM200 400v75h75v-75h-75zM400 300v75h75v-75h-75zM0 100v75
h75v-75h-75zM400 200v75h75v-75h-75z" />
    <glyph glyph-name="rho" unicode="&#x3c1;" 
d="M0 0v75h75v-75h-75zM300 400v75h75v-75h-75zM0 -200v75h75v-75h-75zM200 0v75h75v-75h-75zM300 0v75h75v-75h-75zM400 200v75h75v-75h-75zM200 400v75h75v-75h-75zM400 300v75h75v-75h-75zM0 100v75h75v-75h-75zM0 -100v75h75v-75h-75zM400 100v75h75v-75h-75zM0 200v75
h75v-75h-75zM0 300v75h75v-75h-75zM100 0v75h75v-75h-75zM100 400v75h75v-75h-75z" />
    <glyph glyph-name="sigma1" unicode="&#x3c2;" 
d="M100 0v75h75v-75h-75zM300 400v75h75v-75h-75zM390 -100v75h75v-75h-75zM200 400v75h75v-75h-75zM300 -200v75h75v-75h-75zM0 300v75h75v-75h-75zM0 200v75h75v-75h-75zM0 100v75h75v-75h-75zM100 400v75h75v-75h-75zM400 400v75h75v-75h-75zM300 0v75h75v-75h-75zM200 0
v75h75v-75h-75z" />
    <glyph glyph-name="sigma" unicode="&#x3c3;" 
d="M100 0v75h75v-75h-75zM400 400v75h75v-75h-75zM0 200v75h75v-75h-75zM400 100v75h75v-75h-75zM200 0v75h75v-75h-75zM200 400v75h75v-75h-75zM300 0v75h75v-75h-75zM0 300v75h75v-75h-75zM300 300v75h75v-75h-75zM100 400v75h75v-75h-75zM400 200v75h75v-75h-75zM300 400
v75h75v-75h-75zM0 100v75h75v-75h-75z" />
    <glyph glyph-name="tau" unicode="&#x3c4;" 
d="M300 0v75h75v-75h-75zM200 200v75h75v-75h-75zM400 400v75h75v-75h-75zM200 100v75h75v-75h-75zM300 400v75h75v-75h-75zM0 400v75h75v-75h-75zM100 400v75h75v-75h-75zM200 300v75h75v-75h-75zM200 400v75h75v-75h-75zM400 0v75h75v-75h-75z" />
    <glyph glyph-name="upsilon" unicode="&#x3c5;" 
d="M100 0v75h75v-75h-75zM0 400v75h75v-75h-75zM400 400v75h75v-75h-75zM0 300v75h75v-75h-75zM0 200v75h75v-75h-75zM200 0v75h75v-75h-75zM300 0v75h75v-75h-75zM0 100v75h75v-75h-75zM400 300v75h75v-75h-75zM400 100v75h75v-75h-75zM400 200v75h75v-75h-75z" />
    <glyph glyph-name="phi" unicode="&#x3c6;" 
d="M100 0v75h75v-75h-75zM400 300v75h75v-75h-75zM200 500v75h75v-75h-75zM200 100v75h75v-75h-75zM200 300v75h75v-75h-75zM200 600v75h75v-75h-75zM0 300v75h75v-75h-75zM400 100v75h75v-75h-75zM0 200v75h75v-75h-75zM200 200v75h75v-75h-75zM400 200v75h75v-75h-75z
M200 -200v75h75v-75h-75zM300 400v75h75v-75h-75zM200 0v75h75v-75h-75zM200 400v75h75v-75h-75zM100 400v75h75v-75h-75zM0 100v75h75v-75h-75zM300 0v75h75v-75h-75zM200 -100v75h75v-75h-75z" />
    <glyph glyph-name="chi" unicode="&#x3c7;" 
d="M100 0v75h75v-75h-75zM100 200v75h75v-75h-75zM400 -100v75h75v-75h-75zM300 200v75h75v-75h-75zM300 0v75h75v-75h-75zM0 -100v75h75v-75h-75zM400 300v75h75v-75h-75zM0 400v75h75v-75h-75zM400 -200v75h75v-75h-75zM200 100v75h75v-75h-75zM400 400v75h75v-75h-75z
M0 300v75h75v-75h-75zM0 -200v75h75v-75h-75z" />
    <glyph glyph-name="psi" unicode="&#x3c8;" 
d="M100 0v75h75v-75h-75zM200 0v75h75v-75h-75zM200 500v75h75v-75h-75zM200 300v75h75v-75h-75zM400 200v75h75v-75h-75zM0 400v75h75v-75h-75zM400 100v75h75v-75h-75zM200 400v75h75v-75h-75zM200 200v75h75v-75h-75zM0 200v75h75v-75h-75zM400 300v75h75v-75h-75z
M200 -100v75h75v-75h-75zM300 0v75h75v-75h-75zM200 100v75h75v-75h-75zM400 400v75h75v-75h-75zM0 300v75h75v-75h-75zM200 -200v75h75v-75h-75zM0 100v75h75v-75h-75z" />
    <glyph glyph-name="omega" unicode="&#x3c9;" 
d="M100 0v75h75v-75h-75zM400 200v75h75v-75h-75zM0 400v75h75v-75h-75zM400 300v75h75v-75h-75zM0 200v75h75v-75h-75zM0 100v75h75v-75h-75zM200 200v75h75v-75h-75zM300 0v75h75v-75h-75zM400 100v75h75v-75h-75zM200 100v75h75v-75h-75zM0 300v75h75v-75h-75zM200 300
v75h75v-75h-75zM400 400v75h75v-75h-75z" />
    <glyph glyph-name="iotadieresis" unicode="&#x3ca;" 
d="M200 0v75h75v-75h-75zM200 100v75h75v-75h-75zM0 0v75h75v-75h-75zM0 400v75h75v-75h-75zM200 300v75h75v-75h-75zM200 400v75h75v-75h-75zM300 0v75h75v-75h-75zM400 0v75h75v-75h-75zM200 200v75h75v-75h-75zM100 400v75h75v-75h-75zM100 0v75h75v-75h-75zM0 600v75h75
v-75h-75zM400 700v75h75v-75h-75zM0 700v75h75v-75h-75zM400 600v75h75v-75h-75z" />
    <glyph glyph-name="upsilondieresis" unicode="&#x3cb;" 
d="M100 0v75h75v-75h-75zM0 400v75h75v-75h-75zM400 400v75h75v-75h-75zM0 300v75h75v-75h-75zM0 200v75h75v-75h-75zM200 0v75h75v-75h-75zM300 0v75h75v-75h-75zM0 100v75h75v-75h-75zM400 300v75h75v-75h-75zM400 100v75h75v-75h-75zM400 200v75h75v-75h-75zM0 600v75h75
v-75h-75zM400 700v75h75v-75h-75zM0 700v75h75v-75h-75zM400 600v75h75v-75h-75z" />
    <glyph glyph-name="omicrontonos" unicode="&#x3cc;" 
d="M100 0v75h75v-75h-75zM400 300v75h75v-75h-75zM100 400v75h75v-75h-75zM400 200v75h75v-75h-75zM0 200v75h75v-75h-75zM200 400v75h75v-75h-75zM0 300v75h75v-75h-75zM300 400v75h75v-75h-75zM300 0v75h75v-75h-75zM0 100v75h75v-75h-75zM400 100v75h75v-75h-75zM200 0
v75h75v-75h-75zM200 600v75h75v-75h-75zM300 700v75h75v-75h-75z" />
    <glyph glyph-name="upsilontonos" unicode="&#x3cd;" 
d="M100 0v75h75v-75h-75zM0 400v75h75v-75h-75zM400 400v75h75v-75h-75zM0 300v75h75v-75h-75zM0 200v75h75v-75h-75zM200 0v75h75v-75h-75zM300 0v75h75v-75h-75zM0 100v75h75v-75h-75zM400 300v75h75v-75h-75zM400 100v75h75v-75h-75zM400 200v75h75v-75h-75zM200 600v75
h75v-75h-75zM300 700v75h75v-75h-75z" />
    <glyph glyph-name="omegatonos" unicode="&#x3ce;" 
d="M100 0v75h75v-75h-75zM400 200v75h75v-75h-75zM0 400v75h75v-75h-75zM400 300v75h75v-75h-75zM0 200v75h75v-75h-75zM0 100v75h75v-75h-75zM200 200v75h75v-75h-75zM300 0v75h75v-75h-75zM400 100v75h75v-75h-75zM200 100v75h75v-75h-75zM0 300v75h75v-75h-75zM200 300
v75h75v-75h-75zM400 400v75h75v-75h-75zM200 600v75h75v-75h-75zM300 700v75h75v-75h-75z" />
    <glyph glyph-name="endash" unicode="&#x2013;" 
d="M100 200v75h75v-75h-75zM200 200v75h75v-75h-75zM300 200v75h75v-75h-75z" />
    <glyph glyph-name="emdash" unicode="&#x2014;" 
d="M0 200v75h75v-75h-75zM300 200v75h75v-75h-75zM400 200v75h75v-75h-75zM200 200v75h75v-75h-75zM100 200v75h75v-75h-75z" />
    <glyph glyph-name="afii00208" unicode="&#x2015;" 
d="M0 200v75h75v-75h-75zM300 200v75h75v-75h-75zM400 200v75h75v-75h-75zM200 200v75h75v-75h-75zM100 200v75h75v-75h-75z" />
    <glyph glyph-name="quoteleft" unicode="&#x2018;" 
d="M200 400v75h75v-75h-75zM300 600v75h75v-75h-75zM200 500v75h75v-75h-75z" />
    <glyph glyph-name="quoteright" unicode="&#x2019;" 
d="M200 400v75h75v-75h-75zM300 500v75h75v-75h-75zM300 600v75h75v-75h-75z" />
    <glyph glyph-name="quotesinglbase" unicode="&#x201a;" 
d="M300 0v75h75v-75h-75zM300 100v75h75v-75h-75zM200 -100v75h75v-75h-75z" />
    <glyph glyph-name="quotedblleft" unicode="&#x201c;" 
d="M100 400v75h75v-75h-75zM200 600v75h75v-75h-75zM400 600v75h75v-75h-75zM300 500v75h75v-75h-75zM300 400v75h75v-75h-75zM100 500v75h75v-75h-75z" />
    <glyph glyph-name="quotedblright" unicode="&#x201d;" 
d="M100 400v75h75v-75h-75zM300 400v75h75v-75h-75zM400 600v75h75v-75h-75zM400 500v75h75v-75h-75zM200 600v75h75v-75h-75zM200 500v75h75v-75h-75z" />
    <glyph glyph-name="quotedblbase" unicode="&#x201e;" 
d="M100 -100v75h75v-75h-75zM300 -100v75h75v-75h-75zM400 100v75h75v-75h-75zM400 0v75h75v-75h-75zM200 100v75h75v-75h-75zM200 0v75h75v-75h-75z" />
    <glyph glyph-name="dagger" unicode="&#x2020;" 
d="M200 0v75h75v-75h-75zM200 600v75h75v-75h-75zM200 100v75h75v-75h-75zM200 300v75h75v-75h-75zM200 500v75h75v-75h-75zM200 200v75h75v-75h-75zM300 400v75h75v-75h-75zM100 400v75h75v-75h-75zM200 400v75h75v-75h-75z" />
    <glyph glyph-name="daggerdbl" unicode="&#x2021;" 
d="M200 0v75h75v-75h-75zM200 400v75h75v-75h-75zM200 600v75h75v-75h-75zM200 100v75h75v-75h-75zM300 400v75h75v-75h-75zM200 300v75h75v-75h-75zM100 400v75h75v-75h-75zM200 500v75h75v-75h-75zM300 200v75h75v-75h-75zM100 200v75h75v-75h-75zM200 200v75h75v-75h-75z
" />
    <glyph glyph-name="bullet" unicode="&#x2022;" 
d="M0 200v75h75v-75h-75zM200 400v75h75v-75h-75zM0 300v75h75v-75h-75zM100 200v75h75v-75h-75zM200 300v75h75v-75h-75zM200 200v75h75v-75h-75zM0 400v75h75v-75h-75zM100 300v75h75v-75h-75zM100 400v75h75v-75h-75z" />
    <glyph glyph-name="ellipsis" unicode="&#x2026;" 
d="M0 0v75h75v-75h-75zM200 0v75h75v-75h-75zM400 100v75h75v-75h-75zM0 100v75h75v-75h-75zM400 0v75h75v-75h-75zM200 100v75h75v-75h-75z" />
    <glyph glyph-name="perthousand" unicode="&#x2030;" 
d="M0 0v75h75v-75h-75zM100 300v75h75v-75h-75zM400 100v75h75v-75h-75zM100 200v75h75v-75h-75zM200 100v75h75v-75h-75zM0 600v75h75v-75h-75zM0 100v75h75v-75h-75zM200 0v75h75v-75h-75zM300 500v75h75v-75h-75zM300 600v75h75v-75h-75zM200 400v75h75v-75h-75zM400 0
v75h75v-75h-75zM0 500v75h75v-75h-75z" />
    <glyph glyph-name="guilsinglleft" unicode="&#x2039;" 
d="M300 0v75h75v-75h-75zM200 300v75h75v-75h-75zM300 400v75h75v-75h-75zM100 200v75h75v-75h-75zM200 100v75h75v-75h-75z" />
    <glyph glyph-name="guilsinglright" unicode="&#x203a;" 
d="M200 0v75h75v-75h-75zM300 300v75h75v-75h-75zM200 400v75h75v-75h-75zM400 200v75h75v-75h-75zM300 100v75h75v-75h-75z" />
    <glyph glyph-name="fraction" unicode="&#x2044;" 
d="M100 0v75h75v-75h-75zM400 500v75h75v-75h-75zM100 100v75h75v-75h-75zM300 400v75h75v-75h-75zM200 200v75h75v-75h-75zM400 600v75h75v-75h-75zM200 300v75h75v-75h-75z" />
    <glyph glyph-name="Euro" unicode="&#x20ac;" 
d="M200 0v75h75v-75h-75zM300 0v75h75v-75h-75zM300 600v75h75v-75h-75zM0 400v75h75v-75h-75zM400 600v75h75v-75h-75zM200 400v75h75v-75h-75zM100 100v75h75v-75h-75zM0 200v75h75v-75h-75zM100 500v75h75v-75h-75zM300 400v75h75v-75h-75zM100 400v75h75v-75h-75z
M200 200v75h75v-75h-75zM400 0v75h75v-75h-75zM200 600v75h75v-75h-75zM100 300v75h75v-75h-75zM100 200v75h75v-75h-75z" />
    <glyph glyph-name="trademark" unicode="&#x2122;" 
d="M100 400v75h75v-75h-75zM400 500v75h75v-75h-75zM500 600v75h75v-75h-75zM300 400v75h75v-75h-75zM500 400v75h75v-75h-75zM0 600v75h75v-75h-75zM100 500v75h75v-75h-75zM300 600v75h75v-75h-75zM200 600v75h75v-75h-75zM500 500v75h75v-75h-75zM300 500v75h75v-75h-75z
M100 600v75h75v-75h-75z" />
    <glyph glyph-name="Omega" unicode="&#x2126;" 
d="M400 0v75h75v-75h-75zM400 300v75h75v-75h-75zM100 0v75h75v-75h-75zM100 600v75h75v-75h-75zM200 0v75h75v-75h-75zM0 0v75h75v-75h-75zM400 500v75h75v-75h-75zM300 0v75h75v-75h-75zM300 200v75h75v-75h-75zM200 600v75h75v-75h-75zM200 200v75h75v-75h-75zM0 300v75
h75v-75h-75zM0 500v75h75v-75h-75zM400 400v75h75v-75h-75zM100 200v75h75v-75h-75zM0 400v75h75v-75h-75zM300 600v75h75v-75h-75z" />
    <glyph glyph-name="Delta" unicode="&#x2206;" 
d="M0 0v75h75v-75h-75zM300 0v75h75v-75h-75zM0 500v75h75v-75h-75zM400 200v75h75v-75h-75zM400 300v75h75v-75h-75zM200 0v75h75v-75h-75zM400 400v75h75v-75h-75zM100 0v75h75v-75h-75zM100 600v75h75v-75h-75zM0 300v75h75v-75h-75zM400 500v75h75v-75h-75zM200 600v75
h75v-75h-75zM0 400v75h75v-75h-75zM400 0v75h75v-75h-75zM400 100v75h75v-75h-75zM0 200v75h75v-75h-75zM300 600v75h75v-75h-75zM0 100v75h75v-75h-75z" />
    <glyph glyph-name="approxequal" unicode="&#x2248;" 
d="M300 200v75h75v-75h-75zM400 300v75h75v-75h-75zM100 400v75h75v-75h-75zM200 300v75h75v-75h-75zM0 300v75h75v-75h-75zM300 0v75h75v-75h-75zM400 100v75h75v-75h-75zM100 200v75h75v-75h-75zM200 100v75h75v-75h-75zM0 100v75h75v-75h-75z" />
    <glyph glyph-name="notequal" unicode="&#x2260;" 
d="M100 0v75h75v-75h-75zM100 100v75h75v-75h-75zM0 100v75h75v-75h-75zM400 600v75h75v-75h-75zM200 100v75h75v-75h-75zM100 300v75h75v-75h-75zM300 100v75h75v-75h-75zM200 200v75h75v-75h-75zM300 400v75h75v-75h-75zM400 500v75h75v-75h-75zM200 300v75h75v-75h-75z
M0 300v75h75v-75h-75zM300 300v75h75v-75h-75zM400 100v75h75v-75h-75zM400 300v75h75v-75h-75z" />
    <glyph glyph-name="lessequal" unicode="&#x2264;" 
d="M0 0v75h75v-75h-75zM100 0v75h75v-75h-75zM400 400v75h75v-75h-75zM400 200v75h75v-75h-75zM200 0v75h75v-75h-75zM300 400v75h75v-75h-75zM0 300v75h75v-75h-75zM100 300v75h75v-75h-75zM200 400v75h75v-75h-75zM300 200v75h75v-75h-75zM400 0v75h75v-75h-75zM200 200
v75h75v-75h-75zM300 0v75h75v-75h-75z" />
    <glyph glyph-name="greaterequal" unicode="&#x2265;" 
d="M0 0v75h75v-75h-75zM100 400v75h75v-75h-75zM0 200v75h75v-75h-75zM300 300v75h75v-75h-75zM200 0v75h75v-75h-75zM200 400v75h75v-75h-75zM200 200v75h75v-75h-75zM0 400v75h75v-75h-75zM400 300v75h75v-75h-75zM100 0v75h75v-75h-75zM400 0v75h75v-75h-75zM100 200v75
h75v-75h-75zM300 0v75h75v-75h-75z" />
    <glyph glyph-name="A.smcp" 
d="M0 0v75h75v-75h-75zM100 400v75h75v-75h-75zM300 200v75h75v-75h-75zM400 300v75h75v-75h-75zM400 0v75h75v-75h-75zM0 100v75h75v-75h-75zM400 200v75h75v-75h-75zM300 400v75h75v-75h-75zM200 200v75h75v-75h-75zM100 200v75h75v-75h-75zM400 100v75h75v-75h-75zM0 200
v75h75v-75h-75zM200 400v75h75v-75h-75zM0 300v75h75v-75h-75z" />
    <glyph glyph-name="B.smcp" 
d="M0 0v75h75v-75h-75zM200 400v75h75v-75h-75zM300 400v75h75v-75h-75zM200 200v75h75v-75h-75zM0 100v75h75v-75h-75zM0 300v75h75v-75h-75zM200 0v75h75v-75h-75zM100 400v75h75v-75h-75zM0 400v75h75v-75h-75zM400 300v75h75v-75h-75zM300 200v75h75v-75h-75zM0 200v75
h75v-75h-75zM100 200v75h75v-75h-75zM300 0v75h75v-75h-75zM100 0v75h75v-75h-75zM400 100v75h75v-75h-75z" />
    <glyph glyph-name="C.smcp" 
d="M100 0v75h75v-75h-75zM400 400v75h75v-75h-75zM300 400v75h75v-75h-75zM200 0v75h75v-75h-75zM200 400v75h75v-75h-75zM0 200v75h75v-75h-75zM0 300v75h75v-75h-75zM0 100v75h75v-75h-75zM100 400v75h75v-75h-75zM300 0v75h75v-75h-75zM400 0v75h75v-75h-75z" />
    <glyph glyph-name="D.smcp" 
d="M0 0v75h75v-75h-75zM300 0v75h75v-75h-75zM300 400v75h75v-75h-75zM400 200v75h75v-75h-75zM0 200v75h75v-75h-75zM200 400v75h75v-75h-75zM0 400v75h75v-75h-75zM100 0v75h75v-75h-75zM0 300v75h75v-75h-75zM0 100v75h75v-75h-75zM200 0v75h75v-75h-75zM100 400v75h75
v-75h-75zM400 300v75h75v-75h-75zM400 100v75h75v-75h-75z" />
    <glyph glyph-name="E.smcp" 
d="M0 0v75h75v-75h-75zM100 0v75h75v-75h-75zM400 400v75h75v-75h-75zM200 200v75h75v-75h-75zM0 100v75h75v-75h-75zM0 300v75h75v-75h-75zM200 0v75h75v-75h-75zM200 400v75h75v-75h-75zM100 400v75h75v-75h-75zM0 400v75h75v-75h-75zM300 200v75h75v-75h-75zM0 200v75h75
v-75h-75zM300 400v75h75v-75h-75zM300 0v75h75v-75h-75zM100 200v75h75v-75h-75zM400 0v75h75v-75h-75z" />
    <glyph glyph-name="F.smcp" 
d="M0 0v75h75v-75h-75zM100 200v75h75v-75h-75zM400 400v75h75v-75h-75zM0 400v75h75v-75h-75zM300 200v75h75v-75h-75zM200 200v75h75v-75h-75zM0 100v75h75v-75h-75zM100 400v75h75v-75h-75zM0 300v75h75v-75h-75zM300 400v75h75v-75h-75zM0 200v75h75v-75h-75zM200 400
v75h75v-75h-75z" />
    <glyph glyph-name="G.smcp" 
d="M100 0v75h75v-75h-75zM300 400v75h75v-75h-75zM300 200v75h75v-75h-75zM400 200v75h75v-75h-75zM300 0v75h75v-75h-75zM200 400v75h75v-75h-75zM200 0v75h75v-75h-75zM400 0v75h75v-75h-75zM100 400v75h75v-75h-75zM400 400v75h75v-75h-75zM400 100v75h75v-75h-75zM0 100
v75h75v-75h-75zM0 200v75h75v-75h-75zM0 300v75h75v-75h-75z" />
    <glyph glyph-name="H.smcp" 
d="M0 0v75h75v-75h-75zM400 100v75h75v-75h-75zM300 200v75h75v-75h-75zM0 200v75h75v-75h-75zM200 200v75h75v-75h-75zM400 0v75h75v-75h-75zM0 300v75h75v-75h-75zM400 400v75h75v-75h-75zM400 200v75h75v-75h-75zM100 200v75h75v-75h-75zM0 400v75h75v-75h-75zM0 100v75
h75v-75h-75zM400 300v75h75v-75h-75z" />
    <glyph glyph-name="I.smcp" 
d="M100 0v75h75v-75h-75zM200 100v75h75v-75h-75zM400 400v75h75v-75h-75zM200 200v75h75v-75h-75zM200 0v75h75v-75h-75zM0 0v75h75v-75h-75zM100 400v75h75v-75h-75zM200 300v75h75v-75h-75zM0 400v75h75v-75h-75zM300 0v75h75v-75h-75zM300 400v75h75v-75h-75zM400 0v75
h75v-75h-75zM200 400v75h75v-75h-75z" />
    <glyph glyph-name="J.smcp" 
d="M100 0v75h75v-75h-75zM0 100v75h75v-75h-75zM200 0v75h75v-75h-75zM200 400v75h75v-75h-75zM300 300v75h75v-75h-75zM100 400v75h75v-75h-75zM300 400v75h75v-75h-75zM0 400v75h75v-75h-75zM300 200v75h75v-75h-75zM300 100v75h75v-75h-75z" />
    <glyph glyph-name="K.smcp" 
d="M0 0v75h75v-75h-75zM400 400v75h75v-75h-75zM300 200v75h75v-75h-75zM400 300v75h75v-75h-75zM0 400v75h75v-75h-75zM200 200v75h75v-75h-75zM0 100v75h75v-75h-75zM0 200v75h75v-75h-75zM400 100v75h75v-75h-75zM100 200v75h75v-75h-75zM400 0v75h75v-75h-75zM0 300v75
h75v-75h-75z" />
    <glyph glyph-name="L.smcp" 
d="M0 0v75h75v-75h-75zM300 0v75h75v-75h-75zM0 400v75h75v-75h-75zM100 0v75h75v-75h-75zM0 100v75h75v-75h-75zM200 0v75h75v-75h-75zM0 200v75h75v-75h-75zM400 0v75h75v-75h-75zM0 300v75h75v-75h-75z" />
    <glyph glyph-name="M.smcp" 
d="M0 0v75h75v-75h-75zM400 0v75h75v-75h-75zM400 400v75h75v-75h-75zM400 200v75h75v-75h-75zM0 100v75h75v-75h-75zM400 100v75h75v-75h-75zM0 300v75h75v-75h-75zM0 200v75h75v-75h-75zM300 300v75h75v-75h-75zM100 300v75h75v-75h-75zM200 100v75h75v-75h-75zM400 300
v75h75v-75h-75zM200 200v75h75v-75h-75zM0 400v75h75v-75h-75z" />
    <glyph glyph-name="N.smcp" 
d="M0 0v75h75v-75h-75zM400 200v75h75v-75h-75zM0 200v75h75v-75h-75zM400 300v75h75v-75h-75zM0 400v75h75v-75h-75zM400 100v75h75v-75h-75zM400 0v75h75v-75h-75zM0 100v75h75v-75h-75zM0 300v75h75v-75h-75zM100 300v75h75v-75h-75zM200 200v75h75v-75h-75zM300 100v75
h75v-75h-75zM400 400v75h75v-75h-75z" />
    <glyph glyph-name="O.smcp" 
d="M100 0v75h75v-75h-75zM300 400v75h75v-75h-75zM400 300v75h75v-75h-75zM400 200v75h75v-75h-75zM0 200v75h75v-75h-75zM100 400v75h75v-75h-75zM200 0v75h75v-75h-75zM200 400v75h75v-75h-75zM300 0v75h75v-75h-75zM0 100v75h75v-75h-75zM400 100v75h75v-75h-75zM0 300
v75h75v-75h-75z" />
    <glyph glyph-name="P.smcp" 
d="M0 0v75h75v-75h-75zM0 400v75h75v-75h-75zM300 400v75h75v-75h-75zM400 300v75h75v-75h-75zM0 100v75h75v-75h-75zM200 200v75h75v-75h-75zM100 400v75h75v-75h-75zM0 200v75h75v-75h-75zM0 300v75h75v-75h-75zM200 400v75h75v-75h-75zM300 200v75h75v-75h-75zM100 200
v75h75v-75h-75z" />
    <glyph glyph-name="Q.smcp" 
d="M100 0v75h75v-75h-75zM200 -100v75h75v-75h-75zM300 -200v75h75v-75h-75zM400 200v75h75v-75h-75zM200 400v75h75v-75h-75zM300 400v75h75v-75h-75zM0 200v75h75v-75h-75zM300 0v75h75v-75h-75zM200 100v75h75v-75h-75zM400 100v75h75v-75h-75zM0 100v75h75v-75h-75z
M100 400v75h75v-75h-75zM0 300v75h75v-75h-75zM200 0v75h75v-75h-75zM400 300v75h75v-75h-75z" />
    <glyph glyph-name="R.smcp" 
d="M0 0v75h75v-75h-75zM0 400v75h75v-75h-75zM300 400v75h75v-75h-75zM300 200v75h75v-75h-75zM100 200v75h75v-75h-75zM0 100v75h75v-75h-75zM0 300v75h75v-75h-75zM300 100v75h75v-75h-75zM400 0v75h75v-75h-75zM100 400v75h75v-75h-75zM200 400v75h75v-75h-75zM0 200v75
h75v-75h-75zM400 300v75h75v-75h-75zM200 200v75h75v-75h-75z" />
    <glyph glyph-name="S.smcp" 
d="M0 0v75h75v-75h-75zM100 200v75h75v-75h-75zM400 400v75h75v-75h-75zM400 100v75h75v-75h-75zM300 400v75h75v-75h-75zM200 0v75h75v-75h-75zM200 200v75h75v-75h-75zM100 0v75h75v-75h-75zM200 400v75h75v-75h-75zM100 400v75h75v-75h-75zM0 300v75h75v-75h-75zM300 200
v75h75v-75h-75zM300 0v75h75v-75h-75z" />
    <glyph glyph-name="T.smcp" 
d="M200 0v75h75v-75h-75zM200 100v75h75v-75h-75zM400 400v75h75v-75h-75zM200 300v75h75v-75h-75zM300 400v75h75v-75h-75zM200 200v75h75v-75h-75zM200 400v75h75v-75h-75zM0 400v75h75v-75h-75zM100 400v75h75v-75h-75z" />
    <glyph glyph-name="U.smcp" 
d="M100 0v75h75v-75h-75zM0 300v75h75v-75h-75zM400 400v75h75v-75h-75zM200 0v75h75v-75h-75zM0 400v75h75v-75h-75zM0 200v75h75v-75h-75zM400 200v75h75v-75h-75zM0 100v75h75v-75h-75zM400 300v75h75v-75h-75zM300 0v75h75v-75h-75zM400 100v75h75v-75h-75z" />
    <glyph glyph-name="V.smcp" 
d="M200 0v75h75v-75h-75zM0 400v75h75v-75h-75zM400 400v75h75v-75h-75zM100 100v75h75v-75h-75zM0 200v75h75v-75h-75zM300 100v75h75v-75h-75zM400 200v75h75v-75h-75zM400 300v75h75v-75h-75zM0 300v75h75v-75h-75z" />
    <glyph glyph-name="W.smcp" 
d="M100 0v75h75v-75h-75zM200 200v75h75v-75h-75zM200 100v75h75v-75h-75zM0 400v75h75v-75h-75zM400 100v75h75v-75h-75zM400 400v75h75v-75h-75zM0 100v75h75v-75h-75zM300 0v75h75v-75h-75zM400 300v75h75v-75h-75zM200 300v75h75v-75h-75zM400 200v75h75v-75h-75zM0 200
v75h75v-75h-75zM0 300v75h75v-75h-75z" />
    <glyph glyph-name="X.smcp" 
d="M0 0v75h75v-75h-75zM0 300v75h75v-75h-75zM400 100v75h75v-75h-75zM0 400v75h75v-75h-75zM300 200v75h75v-75h-75zM200 200v75h75v-75h-75zM400 0v75h75v-75h-75zM0 100v75h75v-75h-75zM100 200v75h75v-75h-75zM400 400v75h75v-75h-75zM400 300v75h75v-75h-75z" />
    <glyph glyph-name="Y.smcp" 
d="M200 0v75h75v-75h-75zM400 400v75h75v-75h-75zM200 100v75h75v-75h-75zM0 400v75h75v-75h-75zM400 300v75h75v-75h-75zM300 200v75h75v-75h-75zM0 300v75h75v-75h-75zM100 200v75h75v-75h-75z" />
    <glyph glyph-name="Z.smcp" 
d="M0 0v75h75v-75h-75zM100 100v75h75v-75h-75zM400 400v75h75v-75h-75zM400 0v75h75v-75h-75zM300 400v75h75v-75h-75zM200 0v75h75v-75h-75zM200 200v75h75v-75h-75zM100 0v75h75v-75h-75zM200 400v75h75v-75h-75zM100 400v75h75v-75h-75zM0 400v75h75v-75h-75zM300 300
v75h75v-75h-75zM300 0v75h75v-75h-75z" />
    <glyph glyph-name="Alpha.smcp" 
d="M0 0v75h75v-75h-75zM100 400v75h75v-75h-75zM300 200v75h75v-75h-75zM400 300v75h75v-75h-75zM400 0v75h75v-75h-75zM0 100v75h75v-75h-75zM400 200v75h75v-75h-75zM300 400v75h75v-75h-75zM200 200v75h75v-75h-75zM100 200v75h75v-75h-75zM400 100v75h75v-75h-75zM0 200
v75h75v-75h-75zM200 400v75h75v-75h-75zM0 300v75h75v-75h-75z" />
    <glyph glyph-name="Beta.smcp" 
d="M0 0v75h75v-75h-75zM200 400v75h75v-75h-75zM300 400v75h75v-75h-75zM200 200v75h75v-75h-75zM0 100v75h75v-75h-75zM0 300v75h75v-75h-75zM200 0v75h75v-75h-75zM100 400v75h75v-75h-75zM0 400v75h75v-75h-75zM400 300v75h75v-75h-75zM300 200v75h75v-75h-75zM0 200v75
h75v-75h-75zM100 200v75h75v-75h-75zM300 0v75h75v-75h-75zM100 0v75h75v-75h-75zM400 100v75h75v-75h-75z" />
    <glyph glyph-name="Gamma.smcp" 
d="M0 0v75h75v-75h-75zM400 400v75h75v-75h-75zM0 300v75h75v-75h-75zM0 100v75h75v-75h-75zM100 400v75h75v-75h-75zM300 400v75h75v-75h-75zM200 400v75h75v-75h-75zM0 400v75h75v-75h-75zM0 200v75h75v-75h-75z" />
    <glyph glyph-name="Delta.smcp" 
d="M0 0v75h75v-75h-75zM100 400v75h75v-75h-75zM300 0v75h75v-75h-75zM400 300v75h75v-75h-75zM400 0v75h75v-75h-75zM0 100v75h75v-75h-75zM400 200v75h75v-75h-75zM300 400v75h75v-75h-75zM200 0v75h75v-75h-75zM100 0v75h75v-75h-75zM400 100v75h75v-75h-75zM0 200v75h75
v-75h-75zM200 400v75h75v-75h-75zM0 300v75h75v-75h-75z" />
    <glyph glyph-name="Epsilon.smcp" 
d="M0 0v75h75v-75h-75zM100 0v75h75v-75h-75zM400 400v75h75v-75h-75zM200 200v75h75v-75h-75zM0 100v75h75v-75h-75zM0 300v75h75v-75h-75zM200 0v75h75v-75h-75zM200 400v75h75v-75h-75zM100 400v75h75v-75h-75zM0 400v75h75v-75h-75zM300 200v75h75v-75h-75zM0 200v75h75
v-75h-75zM300 400v75h75v-75h-75zM300 0v75h75v-75h-75zM100 200v75h75v-75h-75zM400 0v75h75v-75h-75z" />
    <glyph glyph-name="Zeta.smcp" 
d="M0 0v75h75v-75h-75zM100 100v75h75v-75h-75zM400 400v75h75v-75h-75zM400 0v75h75v-75h-75zM300 400v75h75v-75h-75zM200 0v75h75v-75h-75zM200 200v75h75v-75h-75zM100 0v75h75v-75h-75zM200 400v75h75v-75h-75zM100 400v75h75v-75h-75zM0 400v75h75v-75h-75zM300 300
v75h75v-75h-75zM300 0v75h75v-75h-75z" />
    <glyph glyph-name="Eta.smcp" 
d="M0 0v75h75v-75h-75zM400 100v75h75v-75h-75zM300 200v75h75v-75h-75zM0 200v75h75v-75h-75zM200 200v75h75v-75h-75zM400 0v75h75v-75h-75zM0 300v75h75v-75h-75zM400 400v75h75v-75h-75zM400 200v75h75v-75h-75zM100 200v75h75v-75h-75zM0 400v75h75v-75h-75zM0 100v75
h75v-75h-75zM400 300v75h75v-75h-75z" />
    <glyph glyph-name="Etatonos.smcp" 
d="M0 0v75h75v-75h-75zM400 100v75h75v-75h-75zM300 200v75h75v-75h-75zM0 200v75h75v-75h-75zM200 200v75h75v-75h-75zM400 0v75h75v-75h-75zM0 300v75h75v-75h-75zM400 400v75h75v-75h-75zM400 200v75h75v-75h-75zM100 200v75h75v-75h-75zM0 400v75h75v-75h-75zM0 100v75
h75v-75h-75zM400 300v75h75v-75h-75zM200 600v75h75v-75h-75zM300 700v75h75v-75h-75z" />
    <glyph glyph-name="Theta.smcp" 
d="M100 0v75h75v-75h-75zM0 100v75h75v-75h-75zM300 200v75h75v-75h-75zM0 300v75h75v-75h-75zM200 0v75h75v-75h-75zM200 400v75h75v-75h-75zM300 0v75h75v-75h-75zM400 100v75h75v-75h-75zM100 200v75h75v-75h-75zM200 200v75h75v-75h-75zM0 200v75h75v-75h-75zM300 400
v75h75v-75h-75zM400 300v75h75v-75h-75zM400 200v75h75v-75h-75zM100 400v75h75v-75h-75z" />
    <glyph glyph-name="Iota.smcp" 
d="M100 0v75h75v-75h-75zM200 100v75h75v-75h-75zM400 400v75h75v-75h-75zM200 200v75h75v-75h-75zM200 0v75h75v-75h-75zM0 0v75h75v-75h-75zM100 400v75h75v-75h-75zM200 300v75h75v-75h-75zM0 400v75h75v-75h-75zM300 0v75h75v-75h-75zM300 400v75h75v-75h-75zM400 0v75
h75v-75h-75zM200 400v75h75v-75h-75z" />
    <glyph glyph-name="Iotatonos.smcp" 
d="M200 600v75h75v-75h-75zM300 700v75h75v-75h-75zM100 0v75h75v-75h-75zM200 100v75h75v-75h-75zM400 400v75h75v-75h-75zM200 200v75h75v-75h-75zM200 0v75h75v-75h-75zM0 0v75h75v-75h-75zM100 400v75h75v-75h-75zM200 300v75h75v-75h-75zM0 400v75h75v-75h-75zM300 0
v75h75v-75h-75zM300 400v75h75v-75h-75zM400 0v75h75v-75h-75zM200 400v75h75v-75h-75z" />
    <glyph glyph-name="Iotadieresis.smcp" 
d="M0 600v75h75v-75h-75zM400 700v75h75v-75h-75zM0 700v75h75v-75h-75zM400 600v75h75v-75h-75zM100 0v75h75v-75h-75zM200 100v75h75v-75h-75zM400 400v75h75v-75h-75zM200 200v75h75v-75h-75zM200 0v75h75v-75h-75zM0 0v75h75v-75h-75zM100 400v75h75v-75h-75zM200 300
v75h75v-75h-75zM0 400v75h75v-75h-75zM300 0v75h75v-75h-75zM300 400v75h75v-75h-75zM400 0v75h75v-75h-75zM200 400v75h75v-75h-75z" />
    <glyph glyph-name="Kappa.smcp" 
d="M0 0v75h75v-75h-75zM400 400v75h75v-75h-75zM300 200v75h75v-75h-75zM400 300v75h75v-75h-75zM0 400v75h75v-75h-75zM200 200v75h75v-75h-75zM0 100v75h75v-75h-75zM0 200v75h75v-75h-75zM400 100v75h75v-75h-75zM100 200v75h75v-75h-75zM400 0v75h75v-75h-75zM0 300v75
h75v-75h-75z" />
    <glyph glyph-name="Lambda.smcp" 
d="M0 0v75h75v-75h-75zM400 300v75h75v-75h-75zM300 400v75h75v-75h-75zM200 400v75h75v-75h-75zM100 400v75h75v-75h-75zM400 100v75h75v-75h-75zM0 300v75h75v-75h-75zM400 0v75h75v-75h-75zM0 200v75h75v-75h-75zM0 100v75h75v-75h-75zM400 200v75h75v-75h-75z" />
    <glyph glyph-name="Mu.smcp" 
d="M0 0v75h75v-75h-75zM400 0v75h75v-75h-75zM400 400v75h75v-75h-75zM400 200v75h75v-75h-75zM0 100v75h75v-75h-75zM400 100v75h75v-75h-75zM0 300v75h75v-75h-75zM0 200v75h75v-75h-75zM300 300v75h75v-75h-75zM100 300v75h75v-75h-75zM200 100v75h75v-75h-75zM400 300
v75h75v-75h-75zM200 200v75h75v-75h-75zM0 400v75h75v-75h-75z" />
    <glyph glyph-name="Nu.smcp" 
d="M0 0v75h75v-75h-75zM400 200v75h75v-75h-75zM0 200v75h75v-75h-75zM400 300v75h75v-75h-75zM0 400v75h75v-75h-75zM400 100v75h75v-75h-75zM400 0v75h75v-75h-75zM0 100v75h75v-75h-75zM0 300v75h75v-75h-75zM100 300v75h75v-75h-75zM200 200v75h75v-75h-75zM300 100v75
h75v-75h-75zM400 400v75h75v-75h-75z" />
    <glyph glyph-name="Xi.smcp" 
d="M0 0v75h75v-75h-75zM100 0v75h75v-75h-75zM400 400v75h75v-75h-75zM100 200v75h75v-75h-75zM100 400v75h75v-75h-75zM200 200v75h75v-75h-75zM200 400v75h75v-75h-75zM200 0v75h75v-75h-75zM400 0v75h75v-75h-75zM200 100v75h75v-75h-75zM300 0v75h75v-75h-75zM0 400v75
h75v-75h-75zM300 200v75h75v-75h-75zM300 400v75h75v-75h-75zM200 300v75h75v-75h-75z" />
    <glyph glyph-name="Omicron.smcp" 
d="M100 0v75h75v-75h-75zM300 400v75h75v-75h-75zM400 300v75h75v-75h-75zM400 200v75h75v-75h-75zM0 200v75h75v-75h-75zM100 400v75h75v-75h-75zM200 0v75h75v-75h-75zM200 400v75h75v-75h-75zM300 0v75h75v-75h-75zM0 100v75h75v-75h-75zM400 100v75h75v-75h-75zM0 300
v75h75v-75h-75z" />
    <glyph glyph-name="Omicrontonos.smcp" 
d="M100 0v75h75v-75h-75zM300 400v75h75v-75h-75zM400 300v75h75v-75h-75zM400 200v75h75v-75h-75zM0 200v75h75v-75h-75zM100 400v75h75v-75h-75zM200 0v75h75v-75h-75zM200 400v75h75v-75h-75zM300 0v75h75v-75h-75zM0 100v75h75v-75h-75zM400 100v75h75v-75h-75zM0 300
v75h75v-75h-75zM200 600v75h75v-75h-75zM300 700v75h75v-75h-75z" />
    <glyph glyph-name="Pi.smcp" 
d="M0 0v75h75v-75h-75zM400 100v75h75v-75h-75zM400 400v75h75v-75h-75zM0 200v75h75v-75h-75zM300 400v75h75v-75h-75zM400 0v75h75v-75h-75zM0 300v75h75v-75h-75zM100 400v75h75v-75h-75zM400 200v75h75v-75h-75zM200 400v75h75v-75h-75zM0 400v75h75v-75h-75zM0 100v75
h75v-75h-75zM400 300v75h75v-75h-75z" />
    <glyph glyph-name="Rho.smcp" 
d="M0 0v75h75v-75h-75zM0 400v75h75v-75h-75zM300 400v75h75v-75h-75zM400 300v75h75v-75h-75zM0 100v75h75v-75h-75zM200 200v75h75v-75h-75zM100 400v75h75v-75h-75zM0 200v75h75v-75h-75zM0 300v75h75v-75h-75zM200 400v75h75v-75h-75zM300 200v75h75v-75h-75zM100 200
v75h75v-75h-75z" />
    <glyph glyph-name="Sigma.smcp" 
d="M0 0v75h75v-75h-75zM400 400v75h75v-75h-75zM100 300v75h75v-75h-75zM200 400v75h75v-75h-75zM300 400v75h75v-75h-75zM200 0v75h75v-75h-75zM200 200v75h75v-75h-75zM100 100v75h75v-75h-75zM400 0v75h75v-75h-75zM300 0v75h75v-75h-75zM0 400v75h75v-75h-75zM100 400
v75h75v-75h-75zM100 0v75h75v-75h-75z" />
    <glyph glyph-name="Tau.smcp" 
d="M200 0v75h75v-75h-75zM200 100v75h75v-75h-75zM400 400v75h75v-75h-75zM200 300v75h75v-75h-75zM300 400v75h75v-75h-75zM200 200v75h75v-75h-75zM200 400v75h75v-75h-75zM0 400v75h75v-75h-75zM100 400v75h75v-75h-75z" />
    <glyph glyph-name="Upsilon.smcp" 
d="M200 0v75h75v-75h-75zM400 400v75h75v-75h-75zM200 100v75h75v-75h-75zM0 400v75h75v-75h-75zM400 300v75h75v-75h-75zM300 200v75h75v-75h-75zM0 300v75h75v-75h-75zM100 200v75h75v-75h-75z" />
    <glyph glyph-name="Upsilontonos.smcp" 
d="M200 0v75h75v-75h-75zM400 400v75h75v-75h-75zM200 100v75h75v-75h-75zM0 400v75h75v-75h-75zM400 300v75h75v-75h-75zM300 200v75h75v-75h-75zM0 300v75h75v-75h-75zM100 200v75h75v-75h-75zM200 600v75h75v-75h-75zM300 700v75h75v-75h-75z" />
    <glyph glyph-name="Upsilondieresis.smcp" 
d="M200 0v75h75v-75h-75zM400 400v75h75v-75h-75zM200 100v75h75v-75h-75zM0 400v75h75v-75h-75zM400 300v75h75v-75h-75zM300 200v75h75v-75h-75zM0 300v75h75v-75h-75zM100 200v75h75v-75h-75zM0 600v75h75v-75h-75zM400 700v75h75v-75h-75zM0 700v75h75v-75h-75zM400 600
v75h75v-75h-75z" />
    <glyph glyph-name="Phi.smcp" 
d="M200 0v75h75v-75h-75zM200 300v75h75v-75h-75zM300 100v75h75v-75h-75zM300 300v75h75v-75h-75zM100 300v75h75v-75h-75zM100 100v75h75v-75h-75zM400 200v75h75v-75h-75zM200 400v75h75v-75h-75zM0 200v75h75v-75h-75zM200 100v75h75v-75h-75zM200 200v75h75v-75h-75z
" />
    <glyph glyph-name="Chi.smcp" 
d="M0 0v75h75v-75h-75zM0 300v75h75v-75h-75zM400 100v75h75v-75h-75zM0 400v75h75v-75h-75zM300 200v75h75v-75h-75zM200 200v75h75v-75h-75zM400 0v75h75v-75h-75zM0 100v75h75v-75h-75zM100 200v75h75v-75h-75zM400 400v75h75v-75h-75zM400 300v75h75v-75h-75z" />
    <glyph glyph-name="Psi.smcp" 
d="M200 0v75h75v-75h-75zM200 400v75h75v-75h-75zM0 400v75h75v-75h-75zM100 200v75h75v-75h-75zM300 200v75h75v-75h-75zM200 200v75h75v-75h-75zM400 300v75h75v-75h-75zM400 400v75h75v-75h-75zM0 300v75h75v-75h-75zM200 100v75h75v-75h-75zM200 300v75h75v-75h-75z" />
    <glyph glyph-name="Omega.smcp" 
d="M400 0v75h75v-75h-75zM300 200v75h75v-75h-75zM200 200v75h75v-75h-75zM0 300v75h75v-75h-75zM0 0v75h75v-75h-75zM100 0v75h75v-75h-75zM100 400v75h75v-75h-75zM200 400v75h75v-75h-75zM200 0v75h75v-75h-75zM300 0v75h75v-75h-75zM300 400v75h75v-75h-75zM100 200v75
h75v-75h-75zM400 300v75h75v-75h-75z" />
    <glyph glyph-name="Omegatonos.smcp" 
d="M400 0v75h75v-75h-75zM300 200v75h75v-75h-75zM200 200v75h75v-75h-75zM0 300v75h75v-75h-75zM0 0v75h75v-75h-75zM100 0v75h75v-75h-75zM100 400v75h75v-75h-75zM200 400v75h75v-75h-75zM200 0v75h75v-75h-75zM300 0v75h75v-75h-75zM300 400v75h75v-75h-75zM100 200v75
h75v-75h-75zM400 300v75h75v-75h-75zM200 600v75h75v-75h-75zM300 700v75h75v-75h-75z" />
    <glyph glyph-name="Alphatonos.smcp" 
d="M0 0v75h75v-75h-75zM100 400v75h75v-75h-75zM300 200v75h75v-75h-75zM400 300v75h75v-75h-75zM400 0v75h75v-75h-75zM0 100v75h75v-75h-75zM400 200v75h75v-75h-75zM300 400v75h75v-75h-75zM200 200v75h75v-75h-75zM100 200v75h75v-75h-75zM400 100v75h75v-75h-75zM0 200
v75h75v-75h-75zM200 400v75h75v-75h-75zM0 300v75h75v-75h-75zM200 600v75h75v-75h-75zM300 700v75h75v-75h-75z" />
    <glyph glyph-name="Epsilontonos.smcp" 
d="M0 0v75h75v-75h-75zM100 0v75h75v-75h-75zM400 400v75h75v-75h-75zM200 200v75h75v-75h-75zM0 100v75h75v-75h-75zM0 300v75h75v-75h-75zM200 0v75h75v-75h-75zM200 400v75h75v-75h-75zM100 400v75h75v-75h-75zM0 400v75h75v-75h-75zM300 200v75h75v-75h-75zM0 200v75h75
v-75h-75zM300 400v75h75v-75h-75zM300 0v75h75v-75h-75zM100 200v75h75v-75h-75zM400 0v75h75v-75h-75zM200 600v75h75v-75h-75zM300 700v75h75v-75h-75z" />
    <glyph glyph-name="Iotadieresistonos.smcp" 
d="M100 0v75h75v-75h-75zM200 100v75h75v-75h-75zM400 400v75h75v-75h-75zM200 200v75h75v-75h-75zM200 0v75h75v-75h-75zM0 0v75h75v-75h-75zM100 400v75h75v-75h-75zM200 300v75h75v-75h-75zM0 400v75h75v-75h-75zM300 0v75h75v-75h-75zM300 400v75h75v-75h-75zM400 0v75
h75v-75h-75zM200 400v75h75v-75h-75zM0 600v75h75v-75h-75zM200 700v75h75v-75h-75zM400 700v75h75v-75h-75zM0 700v75h75v-75h-75zM200 800v75h75v-75h-75zM400 600v75h75v-75h-75zM200 600v75h75v-75h-75z" />
    <glyph glyph-name="Upsilondieresistonos.smcp" 
d="M200 0v75h75v-75h-75zM400 400v75h75v-75h-75zM200 100v75h75v-75h-75zM0 400v75h75v-75h-75zM400 300v75h75v-75h-75zM300 200v75h75v-75h-75zM0 300v75h75v-75h-75zM100 200v75h75v-75h-75zM0 600v75h75v-75h-75zM200 700v75h75v-75h-75zM400 700v75h75v-75h-75zM0 700
v75h75v-75h-75zM200 800v75h75v-75h-75zM400 600v75h75v-75h-75zM200 600v75h75v-75h-75z" />
    <glyph glyph-name="theta.alt" 
d="M100 0v75h75v-75h-75zM200 400v75h75v-75h-75zM0 200v75h75v-75h-75zM300 400v75h75v-75h-75zM0 100v75h75v-75h-75zM400 400v75h75v-75h-75zM0 500v75h75v-75h-75zM100 400v75h75v-75h-75zM300 300v75h75v-75h-75zM200 0v75h75v-75h-75zM300 200v75h75v-75h-75zM200 600
v75h75v-75h-75zM300 500v75h75v-75h-75zM300 100v75h75v-75h-75zM100 600v75h75v-75h-75z" />
    <glyph glyph-name="beta.alt" 
d="M200 0v75h75v-75h-75zM100 200v75h75v-75h-75zM0 200v75h75v-75h-75zM300 300v75h75v-75h-75zM0 300v75h75v-75h-75zM300 0v75h75v-75h-75zM400 200v75h75v-75h-75zM100 500v75h75v-75h-75zM100 0v75h75v-75h-75zM400 400v75h75v-75h-75zM0 400v75h75v-75h-75zM400 500
v75h75v-75h-75zM300 600v75h75v-75h-75zM200 600v75h75v-75h-75zM400 100v75h75v-75h-75zM0 100v75h75v-75h-75zM200 300v75h75v-75h-75z" />
    <glyph glyph-name="rho.alt" 
d="M0 0v75h75v-75h-75zM0 -100v75h75v-75h-75zM100 -200v75h75v-75h-75zM0 200v75h75v-75h-75zM300 400v75h75v-75h-75zM400 200v75h75v-75h-75zM400 300v75h75v-75h-75zM200 0v75h75v-75h-75zM0 100v75h75v-75h-75zM100 400v75h75v-75h-75zM300 0v75h75v-75h-75zM200 400
v75h75v-75h-75zM0 300v75h75v-75h-75zM400 100v75h75v-75h-75zM100 0v75h75v-75h-75z" />
    <glyph glyph-name="phi.alt" 
d="M100 0v75h75v-75h-75zM0 100v75h75v-75h-75zM400 300v75h75v-75h-75zM400 200v75h75v-75h-75zM200 0v75h75v-75h-75zM300 0v75h75v-75h-75zM200 -100v75h75v-75h-75zM200 100v75h75v-75h-75zM0 400v75h75v-75h-75zM200 -200v75h75v-75h-75zM300 400v75h75v-75h-75z
M200 300v75h75v-75h-75zM200 200v75h75v-75h-75zM0 200v75h75v-75h-75zM400 100v75h75v-75h-75zM0 300v75h75v-75h-75z" />
    <glyph glyph-name="gamma.alt" 
d="M200 100v75h75v-75h-75zM300 -100v75h75v-75h-75zM100 0v75h75v-75h-75zM400 400v75h75v-75h-75zM200 -200v75h75v-75h-75zM400 300v75h75v-75h-75zM100 200v75h75v-75h-75zM0 400v75h75v-75h-75zM300 200v75h75v-75h-75zM300 0v75h75v-75h-75zM100 -100v75h75v-75h-75z
M100 300v75h75v-75h-75z" />
    <glyph glyph-name="mu.alt" 
d="M0 0v75h75v-75h-75zM0 -100v75h75v-75h-75zM0 400v75h75v-75h-75zM300 100v75h75v-75h-75zM400 0v75h75v-75h-75zM0 200v75h75v-75h-75zM400 300v75h75v-75h-75zM400 400v75h75v-75h-75zM0 100v75h75v-75h-75zM0 300v75h75v-75h-75zM100 0v75h75v-75h-75zM100 -200v75h75
v-75h-75zM400 200v75h75v-75h-75zM400 100v75h75v-75h-75zM200 0v75h75v-75h-75z" />
    <glyph glyph-name="commaaccent" 
d="M300 -100v75h75v-75h-75zM200 -200v75h75v-75h-75z" />
    <glyph glyph-name="zero.lf" 
d="M100 0v75h75v-75h-75zM400 100v75h75v-75h-75zM200 300v75h75v-75h-75zM0 400v75h75v-75h-75zM300 500v75h75v-75h-75zM400 300v75h75v-75h-75zM0 100v75h75v-75h-75zM0 200v75h75v-75h-75zM100 600v75h75v-75h-75zM100 100v75h75v-75h-75zM400 200v75h75v-75h-75z
M200 600v75h75v-75h-75zM300 600v75h75v-75h-75zM0 500v75h75v-75h-75zM0 300v75h75v-75h-75zM200 0v75h75v-75h-75zM300 0v75h75v-75h-75zM400 400v75h75v-75h-75zM200 200v75h75v-75h-75zM200 400v75h75v-75h-75zM400 500v75h75v-75h-75z" />
    <glyph glyph-name="one.lf" 
d="M0 0v75h75v-75h-75zM200 400v75h75v-75h-75zM200 600v75h75v-75h-75zM200 300v75h75v-75h-75zM400 0v75h75v-75h-75zM100 600v75h75v-75h-75zM100 0v75h75v-75h-75zM200 200v75h75v-75h-75zM200 0v75h75v-75h-75zM300 0v75h75v-75h-75zM0 600v75h75v-75h-75zM200 500v75
h75v-75h-75zM200 100v75h75v-75h-75z" />
    <glyph glyph-name="two.lf" 
d="M0 0v75h75v-75h-75zM300 600v75h75v-75h-75zM200 200v75h75v-75h-75zM200 600v75h75v-75h-75zM400 0v75h75v-75h-75zM400 500v75h75v-75h-75zM100 600v75h75v-75h-75zM100 100v75h75v-75h-75zM100 0v75h75v-75h-75zM300 0v75h75v-75h-75zM200 0v75h75v-75h-75zM300 300
v75h75v-75h-75zM0 500v75h75v-75h-75zM400 400v75h75v-75h-75z" />
    <glyph glyph-name="three.lf" 
d="M400 200v75h75v-75h-75zM200 0v75h75v-75h-75zM0 100v75h75v-75h-75zM100 0v75h75v-75h-75zM400 400v75h75v-75h-75zM0 500v75h75v-75h-75zM100 600v75h75v-75h-75zM400 500v75h75v-75h-75zM300 300v75h75v-75h-75zM300 0v75h75v-75h-75zM300 600v75h75v-75h-75zM400 100
v75h75v-75h-75zM200 600v75h75v-75h-75zM100 300v75h75v-75h-75zM200 300v75h75v-75h-75z" />
    <glyph glyph-name="four.lf" 
d="M300 0v75h75v-75h-75zM300 500v75h75v-75h-75zM400 200v75h75v-75h-75zM200 200v75h75v-75h-75zM100 200v75h75v-75h-75zM100 400v75h75v-75h-75zM0 200v75h75v-75h-75zM300 200v75h75v-75h-75zM300 100v75h75v-75h-75zM200 500v75h75v-75h-75zM300 400v75h75v-75h-75z
M0 300v75h75v-75h-75zM300 300v75h75v-75h-75zM300 600v75h75v-75h-75z" />
    <glyph glyph-name="five.lf" 
d="M0 0v75h75v-75h-75zM400 100v75h75v-75h-75zM200 0v75h75v-75h-75zM300 300v75h75v-75h-75zM400 600v75h75v-75h-75zM0 600v75h75v-75h-75zM0 400v75h75v-75h-75zM100 600v75h75v-75h-75zM200 300v75h75v-75h-75zM300 0v75h75v-75h-75zM300 600v75h75v-75h-75zM100 300
v75h75v-75h-75zM100 0v75h75v-75h-75zM200 600v75h75v-75h-75zM0 500v75h75v-75h-75zM0 300v75h75v-75h-75zM400 200v75h75v-75h-75z" />
    <glyph glyph-name="six.lf" 
d="M100 0v75h75v-75h-75zM200 300v75h75v-75h-75zM200 600v75h75v-75h-75zM100 300v75h75v-75h-75zM300 300v75h75v-75h-75zM0 100v75h75v-75h-75zM0 400v75h75v-75h-75zM400 100v75h75v-75h-75zM300 0v75h75v-75h-75zM400 200v75h75v-75h-75zM100 500v75h75v-75h-75zM0 200
v75h75v-75h-75zM0 300v75h75v-75h-75zM300 600v75h75v-75h-75zM200 0v75h75v-75h-75z" />
    <glyph glyph-name="seven.lf" 
d="M100 0v75h75v-75h-75zM200 300v75h75v-75h-75zM100 200v75h75v-75h-75zM300 400v75h75v-75h-75zM300 600v75h75v-75h-75zM0 600v75h75v-75h-75zM400 500v75h75v-75h-75zM200 600v75h75v-75h-75zM100 100v75h75v-75h-75zM400 600v75h75v-75h-75zM100 600v75h75v-75h-75z
" />
    <glyph glyph-name="eight.lf" 
d="M100 0v75h75v-75h-75zM200 300v75h75v-75h-75zM300 0v75h75v-75h-75zM200 600v75h75v-75h-75zM200 0v75h75v-75h-75zM400 100v75h75v-75h-75zM100 600v75h75v-75h-75zM0 400v75h75v-75h-75zM400 400v75h75v-75h-75zM0 100v75h75v-75h-75zM0 500v75h75v-75h-75zM400 200
v75h75v-75h-75zM100 300v75h75v-75h-75zM400 500v75h75v-75h-75zM300 300v75h75v-75h-75zM300 600v75h75v-75h-75zM0 200v75h75v-75h-75z" />
    <glyph glyph-name="nine.lf" 
d="M100 0v75h75v-75h-75zM400 400v75h75v-75h-75zM400 200v75h75v-75h-75zM0 400v75h75v-75h-75zM0 500v75h75v-75h-75zM200 0v75h75v-75h-75zM200 300v75h75v-75h-75zM100 600v75h75v-75h-75zM300 100v75h75v-75h-75zM300 300v75h75v-75h-75zM100 300v75h75v-75h-75z
M400 500v75h75v-75h-75zM400 300v75h75v-75h-75zM300 600v75h75v-75h-75zM200 600v75h75v-75h-75z" />
    <glyph glyph-name="roundDotComponent" horiz-adv-x="75" 
d="M0 0v75h75v-75h-75z" />
  </font>
</defs>
</svg>
